# Blender 3.4.0
# www.blender.org
mtllib bench_mx_1.mtl
o bench_mx_1
v 0.914825 0.589744 -0.218000
v 0.914825 0.629744 -0.218000
v -0.929160 0.589744 0.000329
v -0.929160 0.589744 0.111785
v -0.914863 0.589744 0.220000
v -0.914863 0.629744 0.220000
v -0.800001 0.475744 0.020001
v -0.800001 0.589744 0.020001
v -0.800001 0.475744 -0.019999
v -0.800001 0.589744 -0.019999
v 0.799999 0.475744 0.020001
v 0.799999 0.589744 0.020001
v 0.799999 0.475744 -0.019999
v 0.799999 0.589744 -0.019999
v 0.833109 -0.000256 0.156000
v 0.793112 -0.000256 0.156000
v 0.833108 0.589744 0.156000
v 0.793112 0.589744 0.156000
v 0.833109 -0.000256 0.096000
v 0.793112 -0.000256 0.096000
v 0.793112 -0.000256 0.057001
v 0.833109 -0.000256 0.057001
v 0.793112 -0.000256 -0.053999
v 0.793112 -0.000256 -0.155000
v 0.833109 -0.000256 -0.155000
v 0.833109 -0.000256 -0.093000
v 0.793112 -0.000256 -0.093000
v 0.793112 0.589744 -0.154999
v 0.833108 0.589744 -0.154999
v 0.833109 -0.000256 -0.053999
v -0.796891 -0.000256 0.156000
v -0.836888 -0.000256 0.156000
v -0.796892 0.589744 0.156000
v -0.836888 0.589744 0.156000
v -0.796891 -0.000256 0.096000
v -0.836888 -0.000256 0.096000
v -0.836888 -0.000256 0.057001
v -0.796891 -0.000256 0.057001
v -0.836888 -0.000256 -0.053999
v -0.836888 -0.000256 -0.155000
v -0.796891 -0.000256 -0.155000
v -0.796891 -0.000256 -0.093000
v -0.836888 -0.000256 -0.093000
v -0.836888 0.589744 -0.154999
v -0.796892 0.589744 -0.154999
v -0.796891 -0.000256 -0.053999
v 0.917175 0.589744 0.000329
v 0.917175 0.629744 0.000329
v -0.917790 0.589744 0.000329
v -0.917790 0.629744 0.000329
v 0.914825 0.629744 -0.111041
v -0.917790 0.589744 -0.111041
v 0.914825 0.589744 -0.111041
v -0.917790 0.629744 -0.111041
v 0.917175 0.589744 0.111785
v -0.914863 0.629744 0.111785
v 0.917175 0.629744 0.111785
v -0.914863 0.589744 0.111785
v 0.923807 0.589744 0.111785
v 0.923807 0.589744 0.220000
v 0.923807 0.629744 0.220000
v 0.923807 0.629744 0.111785
v 0.926431 0.589744 -0.111041
v 0.926431 0.589744 0.000329
v 0.926431 0.629744 0.000329
v 0.926431 0.629744 -0.111041
v -0.925539 0.589744 -0.111041
v -0.925539 0.589744 -0.218000
v -0.925539 0.629744 -0.218000
v -0.925539 0.629744 -0.111041
v -0.929160 0.629744 0.000329
v -0.929160 0.629744 0.111785
vn 1.0000 -0.0000 -0.0000
vn -1.0000 -0.0000 -0.0000
vn -0.0000 -0.0000 1.0000
vn -0.0000 1.0000 -0.0000
vn -0.0000 -1.0000 -0.0000
vn -0.0000 -0.0000 -1.0000
vn 0.0008 -1.0000 -0.0000
vn -0.0002 1.0000 -0.0000
vn 0.0012 -1.0000 -0.0000
vt 0.588262 0.054982
vt 0.384286 -0.716435
vt 0.588286 -0.718685
vt 0.588262 0.108316
vt 0.588285 -0.716435
vt 0.437619 -0.716435
vt 0.297157 0.929982
vt 0.148549 0.929983
vt 0.384286 1.723149
vt 0.004263 0.925365
vt 0.004263 0.983316
vt 0.437619 1.723149
vt 0.004286 1.723148
vt 0.148571 -0.000000
vt 0.188571 0.000000
vt 0.000000 0.000000
vt 0.148571 -0.000000
vt 0.137143 0.000000
vt 0.000000 0.000000
vt 0.148571 2.142857
vt 0.188571 2.142857
vt 0.000000 2.142857
vt 0.148571 2.142857
vt 0.137143 2.142857
vt 0.000000 2.142857
vt 0.308571 0.525714
vt 0.308571 0.108571
vt 0.488571 0.894286
vt 0.308571 0.474286
vt 0.308571 0.108571
vt 0.540000 0.894286
vt 0.308571 0.891429
vt 0.488571 0.105714
vt 0.308571 0.891429
vt 0.540000 0.105714
vt 0.955446 0.525714
vt 0.388571 0.525714
vt 0.388571 0.108571
vt 0.955446 0.474286
vt 0.388571 0.474286
vt 0.388571 0.108571
vt 0.931245 0.474286
vt 0.440864 0.106448
vt 0.440700 0.474286
vt 0.931245 0.525714
vt 0.440864 0.106448
vt 0.440700 0.525714
vt 0.930555 0.474286
vt 0.589205 0.106458
vt 0.589563 0.474286
vt 0.540000 0.894286
vt 0.720000 0.108571
vt 0.720000 0.474286
vt 0.488571 0.894286
vt 0.720000 0.108571
vt 0.720000 0.525714
vt 0.955446 0.525714
vt 0.640000 0.108571
vt 0.640000 0.525714
vt 0.955446 0.474286
vt 0.640000 0.108571
vt 0.640000 0.474286
vt 0.540000 0.105714
vt 0.720000 0.891429
vt 0.488571 0.105714
vt 0.720000 0.891429
vt 0.930555 0.525714
vt 0.589205 0.106458
vt 0.589563 0.525714
vt 0.308571 0.525714
vt 0.308571 0.108571
vt 0.488571 0.894286
vt 0.308571 0.474286
vt 0.308571 0.108571
vt 0.540000 0.894286
vt 0.308571 0.891429
vt 0.488571 0.105714
vt 0.308571 0.891429
vt 0.540000 0.105714
vt 0.955446 0.525714
vt 0.388571 0.525714
vt 0.388571 0.108571
vt 0.955446 0.474286
vt 0.388571 0.474286
vt 0.388571 0.108571
vt 0.931245 0.474286
vt 0.440864 0.106448
vt 0.440700 0.474286
vt 0.931245 0.525714
vt 0.440864 0.106448
vt 0.440700 0.525714
vt 0.930555 0.474286
vt 0.589205 0.106458
vt 0.589563 0.474286
vt 0.540000 0.894286
vt 0.720000 0.108571
vt 0.720000 0.474286
vt 0.488571 0.894286
vt 0.720000 0.108571
vt 0.720000 0.525714
vt 0.955446 0.525714
vt 0.640000 0.108571
vt 0.640000 0.525714
vt 0.955446 0.474286
vt 0.640000 0.108571
vt 0.640000 0.474286
vt 0.540000 0.105714
vt 0.720000 0.891429
vt 0.488571 0.105714
vt 0.720000 0.891429
vt 0.930555 0.525714
vt 0.589205 0.106458
vt 0.589563 0.525714
vt 0.297157 0.054982
vt 0.297180 -0.720796
vt 0.297180 -0.719569
vt 0.297157 0.108316
vt 0.297157 0.928492
vt 0.297180 1.727051
vt 0.297157 0.983316
vt 0.445674 -0.716435
vt 0.445651 0.108316
vt 0.445651 0.928492
vt 0.445674 -0.718685
vt 0.445651 0.054982
vt 0.445651 0.983316
vt 0.445674 1.727051
vt 0.148549 0.054982
vt 0.148572 -0.720796
vt 0.148572 1.723148
vt 0.148549 0.983316
vt 0.148549 0.108316
vt 0.148572 -0.719569
vt 0.148549 0.926520
vt 0.148572 -0.726755
vt 0.148549 0.054982
vt 0.384286 -0.728411
vt 0.004286 -0.726755
vt 0.004263 0.054982
vt 0.437619 -0.728411
vt 0.004286 -0.728411
vt 0.004263 0.108316
vt 0.148572 -0.728411
vt 0.148549 0.108316
vt 0.445674 -0.729113
vt 0.445651 0.054982
vt 0.297180 -0.729113
vt 0.297157 0.054982
vt 0.297180 -0.731909
vt 0.297157 0.108316
vt 0.445674 -0.731909
vt 0.445651 0.108316
vt 0.445651 0.929982
vt 0.384286 1.737383
vt 0.588262 0.929982
vt 0.588285 1.737383
vt 0.437619 1.737383
vt 0.588262 0.983316
vt 0.445674 1.737383
vt 0.445651 0.983316
vt 0.297180 1.742211
vt 0.297157 0.983316
vt 0.148572 1.742211
vt 0.148549 0.983316
s 0
usemtl planks_hr_2
f 53/125/1 1/1/1 2/4/1 51/122/1
f 56/131/2 58/134/2 5/10/2 6/11/2
f 6/12/3 5/9/3 60/137/3 61/140/3
f 54/127/4 51/121/4 2/5/4 69/156/4 70/159/4
f 58/134/5 55/129/5 59/135/5 60/138/5 5/10/5
f 9/17/6 10/19/6 14/25/6 13/23/6
f 11/20/3 12/22/3 8/16/3 7/14/3
f 9/18/5 13/24/5 11/21/5 7/15/5
f 29/65/6 25/54/6 24/51/6 28/63/6
f 20/39/5 21/42/5 22/45/5 19/36/5
f 20/40/5 19/37/5 15/26/5 16/29/5
f 30/67/5 23/48/5 27/60/5 26/57/5
f 23/49/2 21/43/2 16/30/2 18/34/2 28/64/2 24/52/2
f 24/52/7 27/61/7 23/49/7
f 20/41/5 16/30/5 21/43/5
f 29/66/1 17/32/1 22/46/1 30/68/1
f 17/32/1 15/27/1 22/46/1
f 15/27/4 19/38/4 22/46/4
f 26/58/8 25/55/8 30/68/8
f 25/55/1 29/66/1 30/68/1
f 22/47/5 21/44/5 23/50/5 30/69/5
f 17/33/3 18/35/3 16/31/3 15/28/3
f 26/59/5 27/62/5 24/53/5 25/56/5
f 2/6/6 1/2/6 68/154/6 69/157/6
f 45/109/6 41/98/6 40/95/6 44/107/6
f 36/83/5 37/86/5 38/89/5 35/80/5
f 36/84/5 35/81/5 31/70/5 32/73/5
f 46/111/5 39/92/5 43/104/5 42/101/5
f 39/93/2 37/87/2 32/74/2 34/78/2 44/108/2 40/96/2
f 40/96/9 43/105/9 39/93/9
f 36/85/5 32/74/5 37/87/5
f 45/110/1 33/76/1 38/90/1 46/112/1
f 33/76/1 31/71/1 38/90/1
f 31/71/4 35/82/4 38/90/4
f 42/102/8 41/99/8 46/112/8
f 41/99/1 45/110/1 46/112/1
f 38/91/5 37/88/5 39/94/5 46/113/5
f 33/77/3 34/79/3 32/75/3 31/72/3
f 42/103/5 43/106/5 40/97/5 41/100/5
f 52/123/5 53/124/5 63/145/5 64/147/5 47/115/5 49/118/5
f 56/130/4 57/133/4 48/116/4 50/119/4 71/161/4 72/163/4
f 54/126/2 52/123/2 49/118/2 50/120/2
f 55/128/1 47/114/1 48/117/1 57/132/1
f 52/123/3 54/126/3 70/160/3 67/153/3
f 68/155/5 1/3/5 53/124/5 52/123/5 67/153/5
f 50/119/4 48/116/4 65/149/4 66/151/4 51/121/4 54/127/4
f 48/117/3 47/114/3 64/148/3 65/150/3
f 55/128/6 57/132/6 62/144/6 59/136/6
f 6/13/4 61/141/4 62/143/4 57/133/4 56/130/4
f 49/118/5 47/115/5 55/129/5 58/134/5 4/8/5 3/7/5
f 50/120/6 49/118/6 3/7/6 71/162/6
f 60/139/1 59/136/1 62/144/1 61/142/1
f 64/148/1 63/146/1 66/152/1 65/150/1
f 53/125/6 51/122/6 66/152/6 63/146/6
f 69/158/2 68/155/2 67/153/2 70/160/2
f 71/162/2 3/7/2 4/8/2 72/164/2
f 58/134/3 56/131/3 72/164/3 4/8/3
