# Blender 3.4.0
# www.blender.org
mtllib package_hr_1.mtl
o package_hr_1
v -0.281378 0.015915 -0.199462
v -0.276880 0.002613 0.182103
v 0.265855 0.015269 0.084825
v 0.135346 0.010305 -0.218868
v -0.267340 0.015709 0.189264
v 0.270482 0.015269 0.151409
v 0.260116 0.033941 -0.122720
v 0.134502 0.016653 -0.221163
v -0.199506 0.025709 0.213722
v 0.192975 0.045271 0.152907
v 0.192734 0.065028 0.073969
v 0.264536 0.002775 0.199593
v -0.082393 -0.000582 -0.143939
v 0.237661 0.033586 -0.206062
v 0.246406 0.016653 -0.207351
v 0.257580 0.015269 0.208126
v -0.291233 0.018278 -0.084271
v -0.285462 0.015709 0.173703
v -0.155443 0.016653 -0.217616
v 0.180426 0.064028 -0.147520
v 0.271419 0.002061 0.153134
v 0.237856 0.000689 -0.157601
v 0.245428 0.016653 -0.223959
v -0.226079 0.042030 -0.156173
v -0.240732 0.044995 0.122478
v -0.198387 0.067857 -0.099745
v -0.129502 0.067615 0.134910
v 0.262550 0.015269 0.199098
vn 0.2971 0.9407 0.1635
vn 0.8567 0.4602 -0.2328
vn 0.8653 0.1564 0.4763
vn -0.0115 -0.3414 -0.9398
vn 0.8109 -0.5832 -0.0478
vn -0.2863 -0.2906 0.9130
vn 0.7971 -0.6012 -0.0559
vn -0.6607 0.7479 0.0647
vn -0.0156 -0.7345 0.6785
vn -0.0732 -0.9967 -0.0339
vn 0.0455 -0.9724 -0.2287
vn -0.3926 0.9182 -0.0524
vn -0.0025 -0.9885 -0.1509
vn -0.0174 0.7225 -0.6911
vn -0.6348 0.7715 -0.0416
vn 0.0328 0.8701 0.4918
vn -0.0660 0.8574 -0.5104
vn -0.0066 0.8429 -0.5381
vn 0.8857 0.4614 -0.0522
vn 0.9803 0.1247 0.1533
vn 0.9957 0.0617 -0.0692
vn -0.6684 -0.7438 -0.0077
vn -0.0222 -0.9781 -0.2068
vn -0.0087 0.9999 0.0101
vn 0.9079 -0.4145 -0.0624
vn -0.2458 0.9199 0.3055
vn -0.6503 0.0596 0.7573
vn 0.0087 1.0000 -0.0032
vn 0.3613 0.9305 0.0601
vn 0.3605 0.9324 -0.0250
vn 0.0259 0.8908 0.4537
vn -0.0239 -0.9784 -0.2052
vn -0.0698 0.8911 -0.4484
vn -0.3708 0.9282 -0.0294
vn -0.0000 -1.0000 0.0098
vn -0.0237 -0.3428 -0.9391
vn -0.0249 0.9136 -0.4059
vn -0.2055 0.9767 0.0613
vn -0.2220 0.9288 0.2966
vn 0.0536 0.9687 0.2423
vn 0.5298 0.8231 0.2044
vn 0.3316 0.9404 0.0754
vn 0.5658 0.8238 -0.0352
vn 0.3800 0.9189 -0.1063
vn -0.0426 0.9106 -0.4111
vn 0.9855 -0.1324 -0.1059
vn 0.0027 -1.0000 0.0056
vt 0.959418 0.883807
vt 0.038450 0.892906
vt 0.034190 0.155705
vt 0.955942 0.129237
vt 0.470090 0.386672
vt 0.475132 0.330242
vt 0.539389 0.320950
vt 0.637285 0.922277
vt 0.637419 0.922183
vt 0.369090 0.957572
vt 0.047001 0.124287
vt 0.043571 0.137444
vt 0.533103 0.189732
vt 0.475926 0.198728
vt 0.463801 0.745159
vt 0.466036 0.741937
vt 0.638037 0.923298
vt 0.367483 0.949679
vt 0.093832 0.072053
vt 0.902812 0.067148
vt 0.109901 0.079641
vt 0.413018 0.199713
vt 0.412828 0.355004
vt 0.469526 0.107872
vt 0.537595 0.094649
vt 0.805664 0.774007
vt 0.448304 0.905889
vt 0.551603 0.899410
vt 0.551424 0.898880
vt 0.455210 0.908426
vt 0.470831 0.864070
vt 0.464033 0.091086
vt 0.542970 0.077774
vt 0.459244 0.084814
vt 0.967033 0.656009
vt 0.028699 0.667165
vt 0.962574 0.145849
vt 0.035224 0.158804
vt 0.031304 0.152498
vt 0.862385 0.921818
vt 0.862289 0.920845
vt 0.137337 0.937482
vt 0.403110 0.790724
vt 0.474961 0.199267
vt 0.532276 0.186525
vt 0.558210 0.801024
vt 0.555108 0.929805
vt 0.458537 0.937306
vt 0.082116 0.807746
vt 0.070545 0.259576
vt 0.103983 0.696739
vt 0.158377 0.235119
vt 0.470377 0.109829
s 0
usemtl package_hr_1
f 10/22/1 16/34/1 28/53/1
f 7/16/2 15/30/2 14/27/2
f 12/24/3 28/53/3 16/32/3
f 19/40/4 8/17/4 4/9/4
f 15/28/5 22/46/5 23/47/5
f 5/12/6 2/3/6 9/19/6
f 15/29/7 3/7/7 22/46/7
f 17/36/8 5/11/8 25/50/8
f 2/4/9 12/25/9 16/33/9 9/20/9
f 13/26/10 2/4/10 1/1/10
f 23/47/11 22/46/11 4/8/11
f 17/36/12 24/49/12 1/2/12
f 13/26/13 4/9/13 22/46/13
f 8/18/14 14/27/14 23/48/14
f 25/50/15 26/51/15 24/49/15
f 9/21/16 10/22/16 27/52/16
f 8/18/17 20/43/17 14/27/17
f 19/42/18 20/43/18 8/18/18
f 23/48/19 14/27/19 15/30/19
f 28/53/20 12/24/20 21/44/20 6/14/20
f 21/45/21 3/7/21 6/13/21
f 1/1/22 2/4/22 18/37/22 17/35/22
f 13/26/23 19/40/23 4/9/23
f 18/38/24 5/11/24 17/36/24
f 7/15/25 3/5/25 15/31/25
f 5/11/26 9/21/26 25/50/26
f 2/3/27 5/12/27 18/39/27
f 11/23/28 20/43/28 26/51/28 27/52/28
f 28/53/29 6/14/29 10/22/29
f 10/22/30 6/14/30 3/6/30
f 16/34/31 10/22/31 9/21/31
f 1/1/32 19/41/32 13/26/32
f 24/49/33 19/42/33 1/2/33
f 25/50/34 24/49/34 17/36/34
f 12/25/35 2/4/35 13/26/35
f 8/18/36 23/48/36 4/10/36
f 19/42/37 24/49/37 26/51/37
f 26/51/38 25/50/38 27/52/38
f 9/21/39 27/52/39 25/50/39
f 27/52/40 10/22/40 11/23/40
f 3/6/41 11/23/41 10/22/41
f 3/6/42 7/16/42 20/43/42
f 3/6/43 20/43/43 11/23/43
f 7/16/44 14/27/44 20/43/44
f 19/42/45 26/51/45 20/43/45
f 22/46/46 3/7/46 21/45/46
f 13/26/47 22/46/47 21/45/47 12/25/47
