# Blender 3.4.0
# www.blender.org
mtllib painting_1.mtl
o painting_1
v -0.293048 0.329805 0.020520
v -0.293048 -0.329805 0.020520
v 0.293048 -0.329805 0.020520
v 0.293048 0.329805 0.020520
v -0.305243 0.342000 0.020520
v -0.305243 -0.342000 0.020520
v 0.305243 -0.342000 0.020520
v 0.305243 0.342000 0.020520
v -0.270933 0.307690 0.041040
v -0.270933 -0.307690 0.041040
v 0.270933 -0.307690 0.041040
v 0.270933 0.307690 0.041040
v -0.253741 0.290498 0.030780
v -0.253741 -0.290498 0.030780
v 0.253741 -0.290498 0.030780
v 0.253741 0.290498 0.030780
v -0.222705 0.259462 0.061560
v -0.222705 -0.259462 0.061560
v 0.222705 -0.259462 0.061560
v 0.222705 0.259462 0.061560
v -0.163736 0.200493 0.046170
v -0.163736 -0.200493 0.046170
v 0.163736 -0.200493 0.046170
v 0.163736 0.200493 0.046170
v -0.193221 -0.229978 0.051300
v -0.193221 0.229978 0.051300
v 0.193221 -0.229978 0.051300
v 0.193221 0.229978 0.051300
v -0.166236 0.202993 0.051300
v -0.163736 0.200493 0.048800
v -0.163736 -0.200493 0.048800
v -0.166236 -0.202993 0.051300
v 0.166236 -0.202993 0.051300
v 0.163736 -0.200493 0.048800
v 0.163736 0.200493 0.048800
v 0.166236 0.202993 0.051300
v -0.305243 -0.342000 0.000000
v -0.305243 0.342000 -0.000000
v 0.305243 0.342000 -0.000000
v 0.305243 -0.342000 0.000000
vn 1.0000 -0.0000 -0.0000
vn -0.0000 -0.0000 1.0000
vn -0.6802 -0.0000 0.7331
vn -0.0000 -0.6802 0.7331
vn 0.6802 -0.0000 0.7331
vn -0.0000 0.6802 0.7331
vn 0.5125 -0.0000 0.8587
vn -0.0000 0.5125 0.8587
vn -0.5125 -0.0000 0.8587
vn -0.0000 -0.5125 0.8587
vn -0.7042 -0.0000 0.7100
vn -0.0000 -0.7042 0.7100
vn 0.7042 -0.0000 0.7100
vn -0.0000 0.7042 0.7100
vn 0.3286 -0.0000 0.9445
vn -0.0000 0.3286 0.9445
vn -0.3286 -0.0000 0.9445
vn -0.0000 -0.3286 0.9445
vn -1.0000 -0.0000 -0.0000
vn -0.0000 1.0000 -0.0000
vn -0.0000 -1.0000 -0.0000
vn -0.0000 -0.7071 0.7071
vn -0.0000 0.7071 0.7071
vn -0.7071 -0.0000 0.7071
vn 0.7071 -0.0000 0.7071
vt 0.019975 0.982171
vt 0.019975 0.017829
vt 0.980025 0.017829
vt 0.980025 0.982171
vt 0.000000 1.000000
vt 1.000000 0.961778
vt 0.053738 0.961778
vt 0.000000 0.000000
vt 0.000000 0.961778
vt 0.053738 0.961778
vt 1.000000 0.000000
vt 0.000000 0.961778
vt 0.946262 0.961778
vt 1.000000 1.000000
vt 1.000000 0.961778
vt 0.946262 0.961778
vt 0.056201 0.949839
vt 0.056201 0.050161
vt 0.943799 0.050161
vt 0.943799 0.949839
vt 0.084362 0.924705
vt 0.084362 0.075295
vt 0.915638 0.075295
vt 0.915638 0.924705
vt 0.135200 0.879331
vt 0.135200 0.120669
vt 0.864800 0.120669
vt 0.864800 0.879331
vt 0.218750 0.800000
vt 0.218750 0.200000
vt 0.781250 0.200000
vt 0.781250 0.800000
vt 0.183497 0.163775
vt 0.183497 0.836225
vt 0.816503 0.163775
vt 0.816503 0.836225
vt 0.215761 0.803071
vt 0.218750 0.800000
vt 0.218750 0.200000
vt 0.215761 0.196929
vt 0.784239 0.196929
vt 0.781250 0.200000
vt 0.781250 0.800000
vt 0.784239 0.803071
vt 0.000000 0.979628
vt 0.053738 0.979628
vt 1.000000 0.979628
vt 0.053738 0.979628
vt 1.000000 0.979628
vt 0.946262 0.979628
vt 0.000000 0.979628
vt 0.946262 0.979628
s 0
usemtl painting_1
f 30/38/1 31/39/1 22/30/1 21/29/1
f 2/2/2 1/1/2 5/5/2 6/8/2
f 3/3/2 2/2/2 6/8/2 7/11/2
f 4/4/2 3/3/2 7/11/2 8/14/2
f 1/1/2 4/4/2 8/14/2 5/5/2
f 10/18/3 9/17/3 1/1/3 2/2/3
f 11/19/4 10/18/4 2/2/4 3/3/4
f 12/20/5 11/19/5 3/3/5 4/4/5
f 9/17/6 12/20/6 4/4/6 1/1/6
f 14/22/7 13/21/7 9/17/7 10/18/7
f 15/23/8 14/22/8 10/18/8 11/19/8
f 16/24/9 15/23/9 11/19/9 12/20/9
f 13/21/10 16/24/10 12/20/10 9/17/10
f 18/26/11 17/25/11 13/21/11 14/22/11
f 19/27/12 18/26/12 14/22/12 15/23/12
f 20/28/13 19/27/13 15/23/13 16/24/13
f 17/25/14 20/28/14 16/24/14 13/21/14
f 25/33/15 26/34/15 17/25/15 18/26/15
f 27/35/16 25/33/16 18/26/16 19/27/16
f 28/36/17 27/35/17 19/27/17 20/28/17
f 26/34/18 28/36/18 20/28/18 17/25/18
f 40/51/1 39/49/1 8/15/1 7/12/1
f 38/47/19 37/45/19 6/9/19 5/6/19
f 39/50/20 38/48/20 5/7/20 8/16/20
f 37/46/21 40/52/21 7/13/21 6/10/21
f 22/30/2 23/31/2 24/32/2 21/29/2
f 34/42/19 35/43/19 24/32/19 23/31/19
f 36/44/2 33/41/2 27/35/2 28/36/2
f 32/40/2 29/37/2 26/34/2 25/33/2
f 35/43/21 30/38/21 21/29/21 24/32/21
f 31/39/20 34/42/20 23/31/20 22/30/20
f 33/41/2 32/40/2 25/33/2 27/35/2
f 36/44/22 29/37/22 30/38/22 35/43/22
f 32/40/23 33/41/23 34/42/23 31/39/23
f 33/41/24 36/44/24 35/43/24 34/42/24
f 29/37/25 32/40/25 31/39/25 30/38/25
f 29/37/2 36/44/2 28/36/2 26/34/2
