# Blender 3.4.0
# www.blender.org
mtllib bedside_table_2_2.mtl
o bedside_table_2_2
v -0.228003 0.564000 -0.108000
v -0.252002 0.120000 0.252000
v -0.228002 0.144000 -0.108000
v 0.251999 0.120000 0.252000
v 0.251999 0.120000 -0.132000
v -0.252004 0.120000 -0.132000
v 0.228003 0.144000 0.252000
v 0.227996 0.144000 -0.108000
v -0.228000 0.144000 0.252000
v 0.251999 0.588000 -0.132000
v 0.227996 0.564000 -0.108000
v -0.252004 0.588000 -0.132000
v -0.252002 0.588000 0.252000
v 0.251999 0.588000 0.252000
v 0.227998 0.564000 0.252000
v -0.228004 0.564000 0.252000
v -0.218998 0.000000 0.218998
v -0.218998 0.000000 0.189001
v -0.189002 0.000000 0.218998
v -0.189002 0.000000 0.189001
v 0.218998 0.000000 -0.069002
v 0.218998 0.000000 -0.098999
v 0.218998 0.000000 0.189001
v 0.218998 0.000000 0.218998
v 0.189002 0.000000 0.189001
v 0.189002 0.000000 0.218998
v 0.189002 0.000000 -0.069002
v 0.189002 0.000000 -0.098999
v -0.189002 0.000000 -0.069002
v -0.189002 0.000000 -0.098999
v -0.218998 0.000000 -0.069002
v -0.218998 0.000000 -0.098999
v -0.186219 0.120000 0.221781
v -0.221781 0.120000 0.221781
v -0.186219 0.120000 0.186219
v -0.221781 0.120000 0.186219
v 0.186219 0.120000 0.221781
v 0.186219 0.120000 0.186219
v 0.221781 0.120000 0.186219
v 0.221781 0.120000 0.221781
v 0.186219 0.120000 -0.101781
v 0.221781 0.120000 -0.101781
v 0.186219 0.120000 -0.066219
v 0.221781 0.120000 -0.066219
v -0.221781 0.120000 -0.101781
v -0.186219 0.120000 -0.101781
v -0.221781 0.120000 -0.066219
v -0.186219 0.120000 -0.066219
v -0.228002 0.288000 0.252000
v -0.228003 0.288000 -0.108000
v -0.228002 0.312000 -0.108000
v 0.227999 0.288000 -0.108000
v 0.227996 0.312000 -0.108000
v 0.228000 0.312000 0.252000
v -0.228002 0.312000 0.252000
v 0.228003 0.288000 0.252000
v 0.210001 0.201601 -0.060000
v 0.210002 0.218401 -0.060000
v 0.228002 0.201601 -0.060000
v 0.228002 0.218401 -0.060000
v 0.210002 0.201601 0.175200
v 0.210002 0.206401 0.180000
v 0.210002 0.213601 0.180000
v 0.210002 0.218401 0.175200
v 0.228002 0.206401 0.180000
v 0.228002 0.201601 0.175200
v 0.228002 0.218401 0.175200
v 0.228002 0.213601 0.180000
v -0.210001 0.201601 -0.060000
v -0.210002 0.218401 -0.060000
v -0.228002 0.201601 -0.060000
v -0.228002 0.218401 -0.060000
v -0.210002 0.201601 0.175200
v -0.210002 0.206401 0.180000
v -0.210002 0.213601 0.180000
v -0.210002 0.218401 0.175200
v -0.228002 0.206401 0.180000
v -0.228002 0.201601 0.175200
v -0.228002 0.218401 0.175200
v -0.228002 0.213601 0.180000
vn -0.0000 1.0000 -0.0000
vn -0.0000 -0.0000 1.0000
vn -0.0000 -1.0000 -0.0000
vn -1.0000 -0.0000 -0.0000
vn 1.0000 -0.0000 -0.0000
vn -0.0000 -0.0000 -1.0000
vn -0.0000 -0.0232 0.9997
vn 0.9997 -0.0232 -0.0000
vn -0.9997 -0.0232 -0.0000
vn -0.0000 -0.0232 -0.9997
vn -0.0000 -0.7071 0.7071
vn -0.0000 0.7071 0.7071
vt 0.404173 0.705485
vt 0.437971 0.386531
vt 0.689305 0.455864
vt 0.437969 0.048531
vt 0.420638 0.611864
vt 0.420638 0.260864
vt 0.437972 0.083197
vt 0.437971 0.351864
vt 0.697971 0.065864
vt 0.437972 0.048534
vt 0.784639 0.611864
vt 0.784638 0.260864
vt 0.715305 0.048533
vt 0.784639 0.334531
vt 0.784634 0.065861
vt 0.715298 0.048530
vt 0.420637 0.334531
vt 0.420634 0.065862
vt 0.437971 0.065864
vt 0.767308 0.278197
vt 0.767306 0.611864
vt 0.697971 0.065864
vt 0.767304 0.083197
vt 0.767304 0.351864
vt 0.437974 0.278197
vt 0.437974 0.611864
vt 0.437971 0.065864
vt 0.386840 -0.091706
vt 0.715304 0.386530
vt 0.784639 0.403864
vt 0.733507 0.705485
vt 0.689305 0.455864
vt 0.767303 0.386531
vt 0.750841 -0.091706
vt 0.715305 0.386530
vt 0.420637 0.403863
vt 0.750841 0.183354
vt 0.437971 0.386531
vt 0.420638 0.598864
vt 0.386840 0.183354
vt 0.437971 0.386531
vt 0.784638 0.598864
vt 0.733507 0.963354
vt 0.429305 0.455864
vt 0.767304 0.581531
vt 0.404173 0.963354
vt 0.437970 0.581531
vt 0.429305 0.455864
vt 0.825705 0.566281
vt 0.201260 0.566345
vt 0.170554 0.631363
vt 0.804040 0.566281
vt 0.170554 0.609699
vt 0.206474 0.566371
vt 0.825704 0.544615
vt 0.201260 0.544681
vt 0.193854 0.631362
vt 0.804039 0.544615
vt 0.193854 0.609698
vt 0.206474 0.544707
vt 0.170554 0.250030
vt 0.206468 0.250039
vt 0.444453 0.250036
vt 0.201243 0.250034
vt 0.170554 0.228366
vt 0.422788 0.250036
vt 0.206507 0.250033
vt 0.170554 0.609698
vt 0.804145 0.250029
vt 0.201275 0.250014
vt 0.170554 0.631363
vt 0.825810 0.250029
vt 0.193854 0.609698
vt 0.206506 0.271696
vt 0.804143 0.271694
vt 0.193854 0.631363
vt 0.201274 0.271680
vt 0.825807 0.271694
vt 0.193854 0.250030
vt 0.206468 0.271703
vt 0.444452 0.271701
vt 0.201242 0.271699
vt 0.193854 0.228365
vt 0.422788 0.271701
vt 0.193854 0.250030
vt 0.206504 0.544702
vt 0.444455 0.544720
vt 0.201273 0.544724
vt 0.193854 0.228366
vt 0.422791 0.544720
vt 0.170554 0.250029
vt 0.206504 0.566366
vt 0.444456 0.566383
vt 0.201274 0.566387
vt 0.170554 0.228365
vt 0.422791 0.566383
vt 0.287937 0.542673
vt 0.280531 0.633372
vt 0.287937 0.568356
vt 0.257231 0.633372
vt 0.280531 0.607688
vt 0.293151 0.542695
vt 0.257231 0.607689
vt 0.293151 0.568378
vt 0.280530 0.633372
vt 0.287951 0.273691
vt 0.280530 0.607689
vt 0.293183 0.273706
vt 0.293183 0.248024
vt 0.256378 0.607689
vt 0.287951 0.248006
vt 0.256378 0.633372
vt 0.287918 0.273707
vt 0.280531 0.226356
vt 0.287918 0.248024
vt 0.256377 0.226356
vt 0.280531 0.252039
vt 0.293144 0.273711
vt 0.256377 0.252039
vt 0.293143 0.248029
vt 0.287950 0.568395
vt 0.257231 0.226355
vt 0.287950 0.542713
vt 0.280531 0.226356
vt 0.257231 0.252039
vt 0.293180 0.568375
vt 0.280531 0.252040
vt 0.293181 0.542692
vt 0.404173 0.966196
vt 0.437971 0.382197
vt 0.404173 0.706196
vt 0.733507 -0.073804
vt 0.733507 0.706196
vt 0.404174 -0.073805
vt 0.404174 0.186195
vt 0.767308 0.399530
vt 0.733507 0.186195
vt 0.437971 0.399530
vt 0.733507 0.966196
vt 0.767310 0.382197
vt 0.079180 0.784207
vt 0.442305 -0.330202
vt 0.338168 -0.110069
vt 1.058484 0.004185
vt 0.442305 -0.318069
vt 0.338168 -0.122203
vt 0.092180 0.784206
vt 0.429304 -0.330202
vt 1.045483 0.004184
vt 0.429305 -0.318069
vt 0.079186 0.954107
vt 0.442307 -0.110069
vt 0.168294 -0.110074
vt 0.442307 -0.113536
vt 0.164827 -0.113541
vt 0.442307 -0.118736
vt 1.058475 0.177521
vt 0.164827 -0.118741
vt 1.058475 0.174054
vt 0.168293 -0.122208
vt 0.429306 -0.113536
vt 0.092186 0.954109
vt 0.429306 -0.110069
vt 1.045469 0.174053
vt 0.429306 -0.118736
vt 1.045469 0.177520
vt 0.079180 0.784207
vt 0.442305 -0.330202
vt 0.338168 -0.110069
vt 1.058484 0.004185
vt 0.442305 -0.318069
vt 0.338168 -0.122203
vt 0.092180 0.784206
vt 0.429304 -0.330202
vt 1.045483 0.004184
vt 0.429305 -0.318069
vt 0.079186 0.954107
vt 0.442307 -0.110069
vt 0.168294 -0.110074
vt 0.442307 -0.113536
vt 0.164827 -0.113541
vt 0.442307 -0.118736
vt 1.058475 0.177521
vt 0.164827 -0.118741
vt 1.058475 0.174054
vt 0.168293 -0.122208
vt 0.429306 -0.113536
vt 0.092186 0.954109
vt 0.429306 -0.110069
vt 1.045469 0.174053
vt 0.429306 -0.118736
vt 1.045469 0.177520
s 1
usemtl wood_4
f 14/40/1 10/28/1 12/34/1 13/37/1
f 15/45/2 14/42/2 13/39/2 16/47/2
f 1/1/3 11/31/3 15/43/3 16/46/3
f 2/4/4 13/38/4 12/35/4 6/16/4
f 9/25/2 2/6/2 4/12/2 7/20/2
f 5/13/5 10/29/5 14/41/5 4/10/5
f 6/17/3 5/14/3 4/11/3 2/5/3
f 15/44/4 11/32/4 8/22/4 7/19/4
f 4/12/2 14/42/2 15/45/2 7/20/2
f 8/23/2 11/33/2 1/2/2 3/7/2
f 9/25/2 16/47/2 13/39/2 2/6/2
f 6/18/6 12/36/6 10/30/6 5/15/6
f 18/52/3 20/58/3 19/55/3 17/49/3
f 17/50/7 19/56/7 33/97/7 34/99/7
f 33/98/8 19/57/8 20/59/8 35/101/8
f 36/103/9 18/53/9 17/51/9 34/100/9
f 20/60/10 18/54/10 36/104/10 35/102/10
f 38/107/9 25/73/9 26/76/9 37/105/9
f 23/67/10 25/74/10 38/108/10 39/109/10
f 26/77/7 24/70/7 40/111/7 37/106/7
f 40/112/8 24/71/8 23/68/8 39/110/8
f 25/75/3 23/69/3 24/72/3 26/78/3
f 22/64/10 28/82/10 41/113/10 42/115/10
f 41/114/9 28/83/9 27/79/9 43/117/9
f 44/119/8 21/61/8 22/65/8 42/116/8
f 27/80/7 21/62/7 44/120/7 43/118/7
f 28/84/3 22/66/3 21/63/3 27/81/3
f 30/88/10 32/94/10 45/121/10 46/123/10
f 45/122/9 32/95/9 31/91/9 47/125/9
f 48/127/8 29/85/8 30/89/8 46/124/8
f 31/92/7 29/86/7 48/128/7 47/126/7
f 32/96/3 30/90/3 29/87/3 31/93/3
f 7/21/1 8/24/1 3/8/1 9/26/1
f 3/9/5 1/3/5 16/48/5 9/27/5
f 54/135/1 53/134/1 51/132/1 55/137/1
f 50/131/3 52/133/3 56/139/3 49/129/3
f 56/140/2 54/136/2 55/138/2 49/130/2
f 67/164/1 60/149/1 58/144/1 64/159/1
f 57/141/3 59/147/3 66/162/3 61/151/3
f 57/142/6 58/145/6 60/150/6 59/148/6
f 65/161/2 68/165/2 63/156/2 62/154/2
f 65/161/11 62/154/11 61/152/11 66/163/11
f 67/164/12 64/159/12 63/157/12 68/166/12
f 61/153/4 62/155/4 63/158/4 64/160/4 58/146/4 57/143/4
f 79/190/1 76/185/1 70/170/1 72/175/1
f 69/167/3 73/177/3 78/188/3 71/173/3
f 69/168/6 71/174/6 72/176/6 70/171/6
f 77/187/2 74/180/2 75/182/2 80/191/2
f 77/187/11 78/189/11 73/178/11 74/180/11
f 79/190/12 80/192/12 75/183/12 76/185/12
f 73/179/5 69/169/5 70/172/5 76/186/5 75/184/5 74/181/5
o bedside_table_2_2_drawer
v -0.204002 0.168001 0.252000
v -0.204002 0.180001 0.252000
v -0.204003 0.168001 -0.072000
v -0.204002 0.180001 -0.072000
v 0.203999 0.168001 0.252000
v 0.203999 0.180001 0.252000
v 0.203999 0.168001 -0.072000
v 0.203998 0.180001 -0.072000
v 0.204002 0.156001 0.252000
v 0.204002 0.264001 0.252000
v 0.204001 0.156001 -0.108000
v 0.204002 0.264001 -0.108000
v 0.216002 0.156001 0.252000
v 0.216002 0.264001 0.252000
v 0.216002 0.156001 -0.108000
v 0.216002 0.264001 -0.108000
v -0.239999 0.132001 0.252000
v -0.239998 0.300001 0.252000
v 0.240002 0.132001 0.252000
v 0.240002 0.300001 0.252000
v -0.203998 0.156001 -0.072000
v -0.203998 0.264001 -0.072000
v -0.203999 0.156001 -0.084000
v -0.203998 0.264001 -0.084000
v 0.204002 0.156001 -0.072000
v 0.204002 0.264001 -0.072000
v 0.204002 0.156001 -0.084000
v 0.204002 0.264001 -0.084000
v 0.000001 0.192001 0.290400
v -0.016969 0.199030 0.290400
v -0.023999 0.216001 0.290400
v 0.000002 0.240001 0.290400
v -0.016969 0.232971 0.290400
v 0.024002 0.216001 0.290400
v 0.016973 0.199030 0.290400
v 0.016973 0.232971 0.290400
v 0.000002 0.240001 0.296400
v 0.000002 0.230259 0.305400
v -0.014257 0.216001 0.305400
v -0.023999 0.216001 0.296400
v -0.010081 0.226083 0.305400
v -0.016969 0.232971 0.296400
v 0.000002 0.201742 0.305400
v 0.000001 0.192001 0.296400
v -0.010081 0.205919 0.305400
v -0.016969 0.199030 0.296400
v 0.016973 0.232971 0.296400
v 0.010085 0.226083 0.305400
v 0.014261 0.216001 0.305400
v 0.024002 0.216001 0.296400
v 0.016973 0.199030 0.296400
v 0.010085 0.205919 0.305400
v 0.000001 0.208237 0.290400
v -0.007763 0.216000 0.290400
v 0.000002 0.223765 0.290400
v 0.007766 0.216000 0.290400
v 0.000002 0.223765 0.276000
v 0.000001 0.208237 0.276000
v -0.007763 0.216000 0.276000
v 0.007766 0.216000 0.276000
v -0.239998 0.300001 0.264000
v -0.239998 0.132001 0.264000
v 0.240002 0.300001 0.264000
v 0.240002 0.132001 0.264000
v -0.215998 0.276001 0.276000
v -0.215998 0.156001 0.276000
v 0.216002 0.276001 0.276000
v 0.216002 0.156001 0.276000
v -0.215998 0.276001 0.276000
v -0.227998 0.288001 0.264000
v -0.219949 0.279951 0.267950
v -0.227998 0.144001 0.264000
v -0.215998 0.156001 0.276000
v -0.219949 0.152051 0.267950
v 0.228002 0.288001 0.264000
v 0.216002 0.276001 0.276000
v 0.219953 0.279951 0.267950
v 0.216002 0.156001 0.276000
v 0.228002 0.144001 0.264000
v 0.219953 0.152051 0.267950
v 0.203998 0.201600 0.252000
v 0.216000 0.201600 0.252000
v 0.216000 0.201600 -0.108000
v 0.203998 0.201600 -0.108000
v 0.216000 0.218400 -0.108000
v 0.203998 0.218400 -0.108000
v 0.203998 0.218400 0.252000
v 0.216000 0.218400 0.252000
v 0.210000 0.218400 0.252000
v 0.210000 0.201600 0.252000
v 0.210000 0.201600 -0.108000
v 0.210000 0.218400 -0.108000
v -0.204002 0.156001 -0.108000
v -0.204002 0.264001 -0.108000
v -0.204001 0.156001 0.252000
v -0.204002 0.264001 0.252000
v -0.216003 0.156001 -0.108000
v -0.216003 0.264001 -0.108000
v -0.216003 0.156001 0.252000
v -0.216002 0.264001 0.252000
v -0.203998 0.201600 -0.108000
v -0.216001 0.201600 -0.108000
v -0.216001 0.201600 0.252000
v -0.203998 0.201600 0.252000
v -0.216001 0.218400 0.252000
v -0.203998 0.218400 0.252000
v -0.203998 0.218400 -0.108000
v -0.216001 0.218400 -0.108000
v -0.210001 0.218400 -0.108000
v -0.210001 0.201600 -0.108000
v -0.210001 0.201600 0.252000
v -0.210001 0.218400 0.252000
vn -0.0000 1.0000 -0.0000
vn -0.0000 -1.0000 -0.0000
vn -0.0000 -0.0000 1.0000
vn 1.0000 -0.0000 -0.0000
vn -1.0000 0.0001 -0.0000
vn -0.0000 -0.0000 -1.0000
vn -1.0000 -0.0000 -0.0000
vn -0.7071 -0.7071 -0.0000
vn -0.7071 0.7071 -0.0000
vn 0.7071 -0.7071 -0.0000
vn 0.7071 0.7071 -0.0000
vn -0.0000 -0.4377 0.8991
vn 0.3095 -0.3095 0.8991
vn 0.4377 -0.0000 0.8991
vn 0.3095 0.3095 0.8991
vn -0.0000 0.4377 0.8991
vn -0.3095 0.3095 0.8991
vn -0.4377 -0.0000 0.8991
vn -0.3095 -0.3095 0.8991
vn 0.6786 -0.0000 0.7345
vn 0.4798 0.4798 0.7345
vn -0.6786 -0.0000 0.7345
vn -0.4798 -0.4798 0.7345
vn -0.0000 -0.6786 0.7345
vn 0.4798 -0.4798 0.7345
vn -0.0000 0.6786 0.7345
vn -0.4798 0.4798 0.7345
vn -0.4405 -0.0000 0.8977
vn -0.6230 -0.0000 0.7822
vn -0.8977 -0.0000 0.4405
vn 0.8977 -0.0000 0.4405
vn 0.6230 -0.0000 0.7822
vn 0.4405 -0.0000 0.8977
vn -0.0000 -0.8977 0.4405
vn -0.0000 -0.6230 0.7822
vn -0.0000 -0.4405 0.8977
vn -0.0000 0.4405 0.8977
vn -0.0000 0.6230 0.7822
vn -0.0000 0.8977 0.4405
vn -1.0000 -0.0001 -0.0000
vn 1.0000 0.0001 -0.0000
vn 1.0000 -0.0001 -0.0000
vt 0.421507 1.009529
vt 0.716174 0.229529
vt 0.421507 0.775529
vt 0.716174 -0.004471
vt 0.716174 1.009529
vt 0.421507 0.229529
vt 0.716174 0.775529
vt 0.421507 -0.004471
vt 0.378173 1.009529
vt 0.112841 -0.077139
vt 0.143305 -0.077136
vt 0.759507 0.229529
vt 0.143305 -0.155136
vt 0.112841 -0.155139
vt 0.378173 0.749529
vt 0.143305 -0.363136
vt 0.372841 -0.077139
vt 0.759507 -0.030471
vt 0.372841 -0.155139
vt 0.143304 -0.285136
vt 0.386840 1.009529
vt -0.571566 -0.363129
vt 0.134637 -0.077136
vt 0.750840 0.229529
vt 0.134637 -0.155136
vt -0.571564 -0.285129
vt 0.386841 0.749529
vt 0.134637 -0.363136
vt -0.311566 -0.363129
vt 0.750840 -0.030471
vt -0.311564 -0.285129
vt 0.134638 -0.285136
vt -0.049657 0.752695
vt 0.788971 0.269532
vt -0.104988 1.822044
vt 0.917676 1.042031
vt -0.049657 0.631362
vt 0.788972 0.390864
vt -0.734070 0.432037
vt 0.442306 0.269529
vt 0.241661 1.822006
vt 0.570981 1.042023
vt -0.734068 0.553370
vt 0.442308 0.390862
vt 0.437974 -0.077136
vt 0.346835 -0.077136
vt 0.083513 0.775539
vt 1.054151 -0.004482
vt 0.437974 -0.155136
vt 0.346835 -0.155136
vt 0.355502 -0.077136
vt 0.437971 -0.363135
vt 0.083512 0.766870
vt 1.054152 -0.013149
vt 0.355502 -0.155135
vt 0.437972 -0.285136
vt 0.143301 -0.077138
vt -0.337569 -0.363128
vt 0.378164 0.775512
vt 0.759462 -0.004488
vt 0.143301 -0.155138
vt -0.337568 -0.285128
vt -0.328903 -0.363128
vt 0.143306 -0.363137
vt 0.378164 0.766844
vt 0.759463 -0.013155
vt -0.328901 -0.285128
vt 0.143307 -0.285137
vt 0.343685 0.000778
vt 0.318479 -0.117489
vt 0.343685 -0.116222
vt 0.343685 -0.013846
vt 0.333848 -0.111758
vt 0.343685 -0.028471
vt 0.340598 -0.096278
vt 0.343685 -0.057721
vt 0.318675 -0.074497
vt 0.343685 -0.043096
vt 0.334157 -0.080604
vt 0.343685 -0.086971
vt 0.297612 -0.096418
vt 0.303841 -0.111107
vt 0.343685 -0.101596
vt 0.343685 -0.072346
vt 0.303473 -0.081145
vt 0.338908 -0.057721
vt 0.278360 -0.074805
vt 0.278956 -0.085726
vt 0.268232 -0.096224
vt 0.338908 -0.028471
vt 0.257693 -0.096267
vt 0.271407 -0.088738
vt 0.338908 -0.043096
vt 0.263482 -0.081534
vt 0.279112 -0.106847
vt 0.338908 0.000778
vt 0.278425 -0.117760
vt 0.338908 -0.116221
vt 0.271527 -0.103697
vt 0.338908 -0.013846
vt 0.263597 -0.110971
vt 0.338908 -0.072346
vt 0.293939 -0.080691
vt 0.286471 -0.088948
vt 0.289599 -0.096353
vt 0.338908 -0.086971
vt 0.300814 -0.096293
vt 0.294034 -0.111997
vt 0.338908 -0.101596
vt 0.286627 -0.103755
vt 0.287630 -0.076040
vt 0.287630 -0.038189
vt 0.287630 -0.047651
vt 0.287630 -0.057114
vt 0.287630 -0.066576
vt 0.299095 -0.057114
vt 0.299095 -0.076040
vt 0.299095 -0.038189
vt 0.299095 -0.047651
vt 0.299095 -0.066576
vt 0.917676 1.050697
vt -0.058324 0.631362
vt 0.428446 0.775207
vt -0.058323 0.752695
vt -0.104988 1.830711
vt 0.428446 0.653271
vt 0.570981 1.050690
vt -0.742734 0.553370
vt 0.776829 0.775207
vt -0.742737 0.432037
vt 0.241661 1.830673
vt 0.776829 0.653271
vt 0.445863 0.757787
vt 0.445863 0.670691
vt 0.759409 0.757787
vt 0.759409 0.670691
vt 0.445863 0.757787
vt 0.437155 0.766497
vt 0.442994 0.760654
vt 0.437155 0.661981
vt 0.445863 0.670691
vt 0.442994 0.667824
vt 0.768121 0.766497
vt 0.759409 0.757787
vt 0.762277 0.760654
vt 0.759409 0.670691
vt 0.768121 0.661981
vt 0.762277 0.667824
vt 0.112841 -0.106779
vt 0.143305 -0.106776
vt 0.112841 -0.104439
vt 0.143305 -0.104436
vt -0.571565 -0.333489
vt 0.134638 -0.106776
vt -0.571565 -0.331930
vt 0.134637 -0.104436
vt 0.134638 -0.333496
vt -0.311565 -0.333489
vt 0.134637 -0.335836
vt -0.311565 -0.331929
vt 0.143305 -0.333496
vt 0.372841 -0.106779
vt 0.143305 -0.335836
vt 0.372841 -0.104439
vt -0.311565 -0.322178
vt 0.134637 -0.322186
vt -0.311565 -0.324128
vt 0.143305 -0.322186
vt 0.372841 -0.118089
vt 0.112841 -0.118089
vt 0.143305 -0.118086
vt -0.571565 -0.322179
vt 0.134637 -0.118086
vt -0.571565 -0.324129
vt 0.138970 -0.118086
vt 0.200310 0.551258
vt -0.571565 -0.324129
vt -0.571565 -0.331930
vt 0.138970 -0.104436
vt 0.200310 0.537608
vt 0.138970 -0.335836
vt -0.311565 -0.331929
vt 0.460310 0.537608
vt 0.138970 -0.322186
vt 0.460310 0.551258
vt -0.311565 -0.324128
vt 0.378173 1.009529
vt 0.112841 -0.077139
vt 0.143305 -0.077136
vt 0.759507 0.229529
vt 0.143305 -0.155136
vt 0.112841 -0.155139
vt 0.378173 0.749529
vt 0.143305 -0.363136
vt 0.372841 -0.077139
vt 0.759507 -0.030471
vt 0.372841 -0.155139
vt 0.143304 -0.285136
vt 0.386840 1.009529
vt -0.571566 -0.363129
vt 0.134637 -0.077136
vt 0.750840 0.229529
vt 0.134637 -0.155136
vt -0.571564 -0.285129
vt 0.386841 0.749529
vt 0.134637 -0.363136
vt -0.311566 -0.363129
vt 0.750840 -0.030471
vt -0.311564 -0.285129
vt 0.134638 -0.285136
vt 0.112841 -0.106779
vt 0.143305 -0.106776
vt 0.112841 -0.104439
vt 0.143305 -0.104436
vt -0.571565 -0.333489
vt 0.134638 -0.106776
vt -0.571565 -0.331930
vt 0.134637 -0.104436
vt 0.134638 -0.333496
vt -0.311565 -0.333489
vt 0.134637 -0.335836
vt -0.311565 -0.331929
vt 0.143305 -0.333496
vt 0.372841 -0.106779
vt 0.143305 -0.335836
vt 0.372841 -0.104439
vt -0.311565 -0.322178
vt 0.134637 -0.322186
vt -0.311565 -0.324128
vt 0.143305 -0.322186
vt 0.372841 -0.118089
vt 0.112841 -0.118089
vt 0.143305 -0.118086
vt -0.571565 -0.322179
vt 0.134637 -0.118086
vt -0.571565 -0.324129
vt 0.138970 -0.118086
vt 0.200310 0.551258
vt -0.571565 -0.324129
vt -0.571565 -0.331930
vt 0.138970 -0.104436
vt 0.200310 0.537608
vt 0.138970 -0.335836
vt -0.311565 -0.331929
vt 0.460310 0.537608
vt 0.138970 -0.322186
vt 0.460310 0.551258
vt -0.311565 -0.324128
s 1
usemtl wood_4
f 86/198/13 88/200/13 84/196/13 82/194/13
f 83/195/14 87/199/14 85/197/14 81/193/14
f 94/216/13 96/222/13 92/210/13 90/204/13
f 168/365/15 94/217/15 90/205/15 167/363/15
f 165/357/16 96/223/16 94/218/16 168/364/16
f 167/362/17 90/206/17 92/211/17 166/361/17
f 166/360/18 92/212/18 96/224/18 165/358/18
f 91/207/14 95/219/14 93/213/14 89/201/14
f 143/319/13 100/234/13 98/228/13 141/313/13
f 99/231/16 100/235/16 143/320/16 144/322/16
f 142/316/19 141/314/19 98/229/19 97/225/19
f 97/226/18 98/230/18 100/236/18 99/232/18
f 97/227/14 99/233/14 144/323/14 142/317/14
f 106/252/13 108/258/13 104/246/13 102/240/13
f 105/249/15 106/253/15 102/241/15 101/237/15
f 107/255/16 108/259/16 106/254/16 105/250/16
f 101/238/19 102/242/19 104/247/19 103/243/19
f 103/244/18 104/248/18 108/260/18 107/256/18
f 103/245/14 107/257/14 105/251/14 101/239/14
f 153/333/15 158/338/15 148/328/15 146/326/15
f 126/292/20 110/264/20 109/261/14 124/288/14
f 117/278/13 112/268/13 113/270/21 122/285/21
f 114/272/16 130/298/16 131/301/22 115/275/22
f 116/276/23 127/294/23 130/298/16 114/272/16
f 112/268/13 117/278/13 127/294/23 116/276/23
f 123/287/24 132/302/25 129/297/26 128/296/27 118/280/28 121/284/29 119/281/30 125/291/31
f 122/285/21 113/270/21 111/266/19 120/282/19
f 120/282/19 111/266/19 110/264/20 126/292/20
f 128/296/27 129/297/26 130/299/32 127/295/33
f 125/291/31 119/281/30 120/283/34 126/293/35
f 132/302/25 123/287/24 124/289/36 131/300/37
f 118/280/28 128/296/27 127/295/33 117/279/38
f 121/284/29 118/280/28 117/279/38 122/286/39
f 119/281/30 121/284/29 122/286/39 120/283/34
f 110/265/18 111/267/18 113/271/18 112/269/18 116/277/18 114/273/18 115/274/18 109/262/18
f 129/297/26 132/302/25 131/300/37 130/299/32
f 123/287/24 125/291/31 126/293/35 124/289/36
f 115/275/22 131/301/22 124/290/14 109/263/14
f 135/306/13 136/307/16 140/312/16 137/308/13
f 135/306/13 137/308/13 139/311/19 134/305/19
f 136/307/16 133/303/14 138/309/14 140/312/16
f 156/336/15 149/329/15 145/325/15 147/327/15
f 158/338/15 156/336/15 147/327/15 148/328/15
f 152/332/15 150/330/15 141/315/15 142/318/15
f 148/328/15 147/327/15 145/325/15 146/326/15
f 155/335/15 159/339/15 144/324/15 143/321/15
f 159/339/15 152/332/15 142/318/15 144/324/15
f 150/330/15 155/335/15 143/321/15 141/315/15
f 150/330/40 152/332/40 154/334/41 151/331/41
f 151/331/41 154/334/41 153/333/42 149/329/42
f 156/336/43 158/338/43 160/340/44 157/337/44
f 157/337/44 160/340/44 159/339/45 155/335/45
f 158/338/46 153/333/46 154/334/47 160/340/47
f 160/340/47 154/334/47 152/332/48 159/339/48
f 155/335/49 150/330/49 151/331/50 157/337/50
f 157/337/50 151/331/50 149/329/51 156/336/51
f 149/329/15 153/333/15 146/326/15 145/325/15
f 133/304/14 134/305/19 139/311/19 138/310/14
f 91/208/18 164/353/18 163/349/18 95/220/18
f 89/202/52 161/341/52 164/354/52 91/209/52
f 95/221/16 163/350/16 162/345/16 93/214/16
f 93/215/15 162/346/15 161/342/15 89/203/15
f 164/355/18 166/360/18 165/358/18 172/376/18 171/373/18 163/351/18
f 161/343/19 167/362/19 166/361/19 164/356/19
f 162/347/13 163/352/13 171/374/13 170/370/13
f 168/365/15 167/363/15 161/344/15 162/348/15 170/371/15 169/367/15
f 171/375/16 172/377/16 169/368/16 170/372/16
f 165/359/14 168/366/14 169/369/14 172/378/14
f 178/394/13 180/400/13 176/388/13 174/382/13
f 188/427/18 178/395/18 174/383/18 187/425/18
f 185/419/19 180/401/19 178/396/19 188/426/19
f 187/424/53 174/384/53 176/389/53 186/423/53
f 186/422/15 176/390/15 180/402/15 185/420/15
f 175/385/14 179/397/14 177/391/14 173/379/14
f 175/386/15 184/415/15 183/411/15 179/398/15
f 173/380/54 181/403/54 184/416/54 175/387/54
f 179/399/19 183/412/19 182/407/19 177/392/19
f 177/393/18 182/408/18 181/404/18 173/381/18
f 184/417/15 186/422/15 185/420/15 192/438/15 191/435/15 183/413/15
f 181/405/16 187/424/16 186/423/16 184/418/16
f 182/409/13 183/414/13 191/436/13 190/432/13
f 188/427/18 187/425/18 181/406/18 182/410/18 190/433/18 189/429/18
f 191/437/19 192/439/19 189/430/19 190/434/19
f 185/421/14 188/428/14 189/431/14 192/440/14
