# Blender 3.4.0
# www.blender.org
mtllib bedside_table_1_1.mtl
o bedside_table_1_1
v -0.247499 0.000000 0.217499
v -0.251874 0.610000 0.221874
v -0.247499 0.000000 0.182501
v -0.251874 0.610000 0.178126
v -0.212501 0.000000 0.217499
v -0.208126 0.610000 0.221874
v -0.212501 0.000000 0.182501
v -0.208126 0.610000 0.178126
v 0.247499 0.000000 -0.182501
v 0.251874 0.610000 -0.178126
v 0.247499 0.000000 -0.217499
v 0.251874 0.610000 -0.221874
v 0.251874 0.610000 0.178126
v 0.247499 0.000000 0.182501
v 0.251874 0.610000 0.221874
v 0.247499 0.000000 0.217499
v 0.208126 0.610000 0.178126
v 0.212501 0.000000 0.182501
v 0.208126 0.610000 0.221874
v 0.212501 0.000000 0.217499
v 0.212501 0.000000 -0.182501
v 0.208126 0.610000 -0.178126
v 0.212501 0.000000 -0.217499
v 0.208126 0.610000 -0.221874
v -0.212501 0.000000 -0.182501
v -0.208126 0.610000 -0.178126
v -0.212501 0.000000 -0.217499
v -0.208126 0.610000 -0.221874
v -0.247499 0.000000 -0.182501
v -0.251874 0.610000 -0.178126
v -0.247499 0.000000 -0.217499
v -0.251874 0.610000 -0.221874
v -0.230002 0.130000 0.200000
v -0.230002 0.160000 0.200000
v -0.230003 0.130000 -0.200000
v -0.230002 0.160000 -0.200000
v 0.229999 0.130000 0.200000
v 0.229999 0.160000 0.200000
v 0.229999 0.130000 -0.200000
v 0.229998 0.160000 -0.200000
v -0.280002 0.610000 0.250000
v -0.280002 0.640000 0.250000
v -0.280003 0.610000 -0.250000
v -0.280002 0.640000 -0.250000
v 0.279999 0.610000 0.250000
v 0.279999 0.640000 0.250000
v 0.279999 0.610000 -0.250000
v 0.279998 0.640000 -0.250000
v -0.240002 0.450000 0.210000
v -0.220002 0.480000 0.190000
v -0.220002 0.480000 -0.190000
v 0.239999 0.450000 0.210000
v 0.219999 0.480000 0.190000
v 0.239999 0.480000 0.210000
v -0.240002 0.480000 0.210000
v 0.239999 0.610000 0.210000
v -0.240002 0.610000 0.210000
v 0.219999 0.610000 0.190000
v 0.240000 0.450000 -0.210000
v -0.240003 0.450000 -0.210000
v -0.240003 0.480000 -0.210000
v 0.240000 0.480000 -0.210000
v 0.180002 0.450000 0.210000
v -0.179998 0.450000 0.210000
v 0.180002 0.480000 0.210000
v -0.179998 0.480000 0.210000
v 0.219997 0.480000 -0.190000
v 0.180000 0.480000 0.190000
v -0.180000 0.480000 0.190000
v -0.240003 0.610000 -0.210000
v 0.180002 0.610000 0.210000
v 0.219997 0.610000 -0.190000
v 0.180000 0.610000 0.190000
v -0.220002 0.610000 0.190000
v 0.180002 0.580000 0.210000
v 0.180000 0.580000 0.190000
v -0.220001 0.610000 -0.190000
v 0.239999 0.610000 -0.210000
v -0.180002 0.580000 0.210000
v -0.180002 0.610000 0.210000
v -0.180004 0.610000 0.190000
v -0.180004 0.580000 0.190000
vn -0.0000 -1.0000 -0.0000
vn -0.0000 -0.0072 1.0000
vn 1.0000 -0.0072 -0.0000
vn -1.0000 -0.0072 -0.0000
vn -0.0000 -0.0072 -1.0000
vn -0.0000 1.0000 -0.0000
vn -0.0000 -0.0000 1.0000
vn 1.0000 -0.0000 -0.0000
vn -1.0000 -0.0000 -0.0000
vn -0.0000 -0.0000 -1.0000
vn 1.0000 -0.0000 -0.0001
vn -1.0000 -0.0000 0.0001
vt 0.694957 0.648291
vt 0.191785 0.648320
vt 0.168846 0.678332
vt 0.598349 0.651240
vt 0.575409 0.681249
vt 0.671626 0.648291
vt 0.168846 0.655001
vt 0.194877 0.648346
vt 0.575409 0.652085
vt 0.601440 0.651258
vt 0.694956 0.624958
vt 0.191785 0.624989
vt 0.184488 0.678333
vt 0.598349 0.622075
vt 0.591051 0.681249
vt 0.671624 0.624958
vt 0.184488 0.655000
vt 0.194877 0.625015
vt 0.591051 0.652084
vt 0.601440 0.622093
vt 0.168847 0.278333
vt 0.193320 0.318340
vt 0.294998 0.318330
vt 0.575410 0.281249
vt 0.599884 0.315424
vt 0.193326 0.318335
vt 0.168847 0.255001
vt 0.271667 0.318330
vt 0.599886 0.315418
vt 0.575410 0.252085
vt 0.601454 0.315425
vt 0.575410 0.652085
vt 0.194893 0.318345
vt 0.168847 0.655001
vt 0.671687 0.318326
vt 0.598360 0.315404
vt 0.575410 0.681249
vt 0.191797 0.318319
vt 0.168847 0.678332
vt 0.695019 0.318326
vt 0.591049 0.652085
vt 0.601453 0.344588
vt 0.184486 0.655000
vt 0.194892 0.341677
vt 0.671686 0.341658
vt 0.591049 0.681250
vt 0.598359 0.344571
vt 0.184486 0.678333
vt 0.191796 0.341654
vt 0.695018 0.341658
vt 0.184486 0.278333
vt 0.193321 0.341670
vt 0.294998 0.341663
vt 0.591049 0.281249
vt 0.599885 0.344587
vt 0.193326 0.341666
vt 0.184486 0.255000
vt 0.271667 0.341663
vt 0.599886 0.344583
vt 0.591049 0.252084
vt 0.184488 0.278333
vt 0.193340 0.624990
vt 0.294994 0.625015
vt 0.591051 0.281249
vt 0.599901 0.622074
vt 0.193335 0.625023
vt 0.184488 0.255000
vt 0.271662 0.625015
vt 0.599898 0.622102
vt 0.591051 0.252084
vt 0.168846 0.278332
vt 0.193339 0.648321
vt 0.294994 0.648345
vt 0.575409 0.281249
vt 0.599900 0.651240
vt 0.193335 0.648354
vt 0.168846 0.255001
vt 0.271663 0.648345
vt 0.599898 0.651266
vt 0.575409 0.252085
vt 0.153334 0.343333
vt -0.309996 0.129900
vt 0.320668 0.905896
vt 0.627335 0.305896
vt 0.153334 0.323333
vt -0.289996 0.129900
vt -0.309996 0.396566
vt 0.153333 -0.343333
vt 0.320668 0.639229
vt 0.627335 0.039229
vt -0.289996 0.396566
vt 0.153333 -0.323333
vt -0.153333 0.343333
vt 0.376663 -0.396567
vt 0.627335 0.905896
vt 0.320668 0.305896
vt -0.153333 0.323333
vt 0.356663 -0.396567
vt 0.376663 -0.129901
vt -0.153333 -0.343333
vt 0.627335 0.639230
vt 0.320668 0.039229
vt 0.356663 -0.129900
vt -0.153333 -0.323333
vt 0.186667 -0.116667
vt 0.150003 0.096566
vt 0.287335 0.939229
vt 0.660669 0.339229
vt 0.186667 -0.136666
vt 0.170003 0.096566
vt 0.150003 0.429899
vt 0.287335 0.605896
vt 0.313333 0.473333
vt 0.660668 0.005896
vt 0.170003 0.429898
vt 0.313333 0.493333
vt -0.186667 -0.116667
vt -0.083336 -0.429898
vt 0.660669 0.939230
vt 0.287335 0.339229
vt -0.186667 -0.136667
vt -0.103336 -0.429898
vt -0.083336 -0.096565
vt 0.660669 0.605896
vt 0.686667 0.473333
vt 0.287335 0.005896
vt -0.103336 -0.096565
vt 0.686667 0.493333
vt 0.340000 0.453333
vt 0.373333 0.440000
vt 0.340000 0.640000
vt 0.353333 0.626667
vt 0.353333 0.473333
vt 0.386667 0.460000
vt 0.353333 0.373333
vt 0.353333 0.473333
vt 0.640000 0.460000
vt 0.373333 0.440000
vt 0.660001 0.640000
vt 0.660000 0.453333
vt 0.646667 0.626667
vt 0.646667 0.473333
vt 0.386667 0.460000
vt 0.660001 0.473333
vt 0.373333 0.460000
vt 0.340000 0.473333
vt 0.373333 0.460000
vt 0.660001 0.640000
vt 0.660000 0.560000
vt 0.373333 0.546667
vt 0.340000 0.640000
vt 0.340000 0.560000
vt 0.373333 0.546667
vt 0.646667 0.626667
vt 0.646667 0.560000
vt 0.386667 0.546667
vt 0.653333 0.440000
vt 0.660001 0.453333
vt 0.660001 0.360000
vt 0.653333 0.440000
vt 0.339999 0.453333
vt 0.339999 0.360000
vt 0.339999 0.473333
vt 0.653333 0.460000
vt 0.660001 0.473333
vt 0.653333 0.460000
vt 0.620003 0.640000
vt 0.620003 0.453333
vt 0.380002 0.640000
vt 0.380002 0.453333
vt 0.620003 0.640000
vt 0.499999 0.600000
vt 0.620003 0.473333
vt 0.380002 0.640000
vt 0.500001 0.600000
vt 0.380002 0.473333
vt 0.646666 0.373333
vt 0.646666 0.473333
vt 0.640000 0.460000
vt 0.620001 0.626667
vt 0.620001 0.473333
vt 0.513332 0.600000
vt 0.380001 0.626667
vt 0.513334 0.600000
vt 0.380001 0.473333
vt 0.339999 0.360000
vt 0.339999 0.560000
vt 0.653333 0.546666
vt 0.620003 0.640000
vt 0.620003 0.560000
vt 0.646666 0.373333
vt 0.646666 0.560000
vt 0.640000 0.546666
vt 0.620001 0.626667
vt 0.620001 0.560000
vt 0.353333 0.626667
vt 0.353333 0.560000
vt 0.386667 0.546667
vt 0.499999 0.666667
vt 0.620003 0.640000
vt 0.620003 0.540000
vt 0.513332 0.666667
vt 0.620001 0.626667
vt 0.620001 0.540000
vt 0.353334 0.373333
vt 0.353334 0.560000
vt 0.640000 0.546667
vt 0.660001 0.360000
vt 0.660001 0.560000
vt 0.653333 0.546667
vt 0.500001 0.666667
vt 0.380000 0.640000
vt 0.380000 0.540000
vt 0.380000 0.640000
vt 0.380000 0.560000
vt 0.379999 0.626667
vt 0.379999 0.560000
vt 0.513334 0.666667
vt 0.379999 0.626667
vt 0.379999 0.540000
s 1
usemtl wood_3
f 3/6/1 7/16/1 5/11/1 1/1/1
f 5/12/2 6/14/2 2/4/2 1/2/2
f 7/17/3 8/19/3 6/15/3 5/13/3
f 1/3/4 2/5/4 4/9/4 3/7/4
f 3/8/5 4/10/5 8/20/5 7/18/5
f 20/48/4 19/46/4 17/41/4 18/43/4
f 18/44/5 17/42/5 13/31/5 14/33/5
f 16/38/2 15/36/2 19/47/2 20/49/2
f 14/34/3 13/32/3 15/37/3 16/39/3
f 18/45/1 14/35/1 16/40/1 20/50/1
f 23/56/5 24/59/5 12/29/5 11/26/5
f 21/51/4 22/54/4 24/60/4 23/57/4
f 11/27/3 12/30/3 10/24/3 9/21/3
f 9/22/2 10/25/2 22/55/2 21/52/2
f 23/58/1 11/28/1 9/23/1 21/53/1
f 31/76/5 32/79/5 28/69/5 27/66/5
f 29/71/4 30/74/4 32/80/4 31/77/4
f 27/67/3 28/70/3 26/64/3 25/61/3
f 25/62/2 26/65/2 30/75/2 29/72/2
f 31/78/1 27/68/1 25/63/1 29/73/1
f 38/96/6 40/102/6 36/90/6 34/84/6
f 37/93/7 38/97/7 34/85/7 33/81/7
f 39/99/8 40/103/8 38/98/8 37/94/8
f 33/82/9 34/86/9 36/91/9 35/87/9
f 35/88/10 36/92/10 40/104/10 39/100/10
f 35/89/1 39/101/1 37/95/1 33/83/1
f 46/120/6 48/126/6 44/114/6 42/108/6
f 45/117/7 46/121/7 42/109/7 41/105/7
f 47/123/8 48/127/8 46/122/8 45/118/8
f 41/106/9 42/110/9 44/115/9 43/111/9
f 43/112/1 47/124/1 45/119/1 41/107/1
f 47/125/10 43/113/10 44/116/10 48/128/10
f 69/183/6 51/135/6 50/132/6
f 64/170/7 66/176/7 55/146/7 49/129/7
f 59/157/8 62/166/8 54/145/8 52/138/8
f 49/130/9 55/147/9 61/164/9 60/160/9
f 59/159/1 52/139/1 63/167/1
f 82/220/10 74/197/10 81/217/10
f 72/191/6 58/154/6 56/148/6 78/208/6
f 74/196/6 77/205/6 70/186/6 57/151/6
f 81/216/6 74/196/6 57/151/6 80/214/6
f 75/201/7 56/149/7 71/190/7
f 57/152/7 79/213/7 80/215/7
f 71/189/6 73/194/6 81/216/6 80/214/6
f 58/154/6 73/194/6 71/189/6 56/148/6
f 66/174/6 65/171/6 68/180/6 69/183/6
f 77/205/6 72/191/6 78/208/6 70/186/6
f 58/155/10 76/204/10 73/195/10
f 59/158/10 60/161/10 61/163/10 62/165/10
f 60/162/1 64/169/1 49/131/1
f 60/162/1 59/159/1 63/167/1 64/169/1
f 52/140/7 54/144/7 65/173/7 63/168/7
f 63/168/7 65/173/7 66/176/7 64/170/7
f 53/141/6 67/177/6 68/180/6
f 68/180/6 67/177/6 51/135/6 69/183/6
f 66/175/11 69/184/11 82/218/11 79/211/11
f 53/142/10 68/181/10 76/204/10 58/155/10
f 65/172/12 75/199/12 76/202/12 68/182/12
f 55/146/7 66/176/7 79/213/7 57/152/7
f 62/165/10 61/163/10 70/187/10 78/209/10
f 51/136/7 67/178/7 72/192/7 77/206/7
f 61/164/9 55/147/9 57/153/9 70/188/9
f 65/173/7 54/144/7 56/149/7 75/201/7
f 67/179/9 53/143/9 58/156/9 72/193/9
f 69/185/10 50/133/10 74/197/10 82/220/10
f 50/134/8 51/137/8 77/207/8 74/198/8
f 54/145/8 62/166/8 78/210/8 56/150/8
f 76/203/1 75/200/1 79/212/1 82/219/1
f 73/195/10 76/204/10 82/220/10 81/217/10
f 75/201/7 71/190/7 80/215/7 79/213/7
o bedside_table_1_1_drawer
v -0.170002 0.490000 0.210000
v -0.170002 0.500000 0.210000
v -0.170003 0.490001 -0.160000
v -0.170002 0.500000 -0.160000
v 0.169999 0.490000 0.210000
v 0.169999 0.500000 0.210000
v 0.169999 0.490001 -0.160000
v 0.169998 0.500000 -0.160000
v 0.170001 0.480000 0.210000
v 0.170001 0.580000 0.210000
v 0.170001 0.480000 -0.190000
v 0.170001 0.580000 -0.190000
v 0.180002 0.480000 0.210000
v 0.180002 0.580000 0.210000
v 0.180002 0.480000 -0.190000
v 0.180001 0.580000 -0.190000
v -0.179999 0.480000 0.210000
v -0.179999 0.580000 0.210000
v -0.179999 0.480000 -0.190000
v -0.179999 0.580000 -0.190000
v -0.169998 0.480000 0.210000
v -0.169998 0.580000 0.210000
v -0.169998 0.480000 -0.190000
v -0.169999 0.580000 -0.190000
v -0.199999 0.460000 0.210000
v -0.199999 0.600000 0.210000
v 0.200002 0.460000 0.210000
v 0.200001 0.600000 0.210000
v -0.169999 0.480000 -0.160000
v -0.169999 0.580000 -0.160000
v -0.169999 0.480000 -0.170000
v -0.169999 0.580000 -0.170000
v 0.170002 0.480000 -0.160000
v 0.170002 0.580000 -0.160000
v 0.170002 0.480000 -0.170000
v 0.170001 0.580000 -0.170000
v -0.199999 0.600000 0.220000
v -0.199999 0.460000 0.220000
v 0.200002 0.600000 0.220000
v 0.200002 0.460000 0.220000
v -0.179999 0.580000 0.230000
v -0.179999 0.480000 0.230000
v 0.180002 0.580000 0.230000
v 0.180002 0.480000 0.230000
v -0.179999 0.580000 0.230000
v -0.189999 0.590000 0.220000
v -0.183291 0.583292 0.223292
v -0.189999 0.470000 0.220000
v -0.179999 0.480000 0.230000
v -0.183291 0.476709 0.223292
v 0.190002 0.590000 0.220000
v 0.180002 0.580000 0.230000
v 0.183294 0.583292 0.223292
v 0.180002 0.480000 0.230000
v 0.190002 0.470000 0.220000
v 0.183294 0.476709 0.223292
v 0.000001 0.510000 0.246000
v -0.014141 0.515858 0.246000
v -0.019999 0.530000 0.246000
v 0.000001 0.550000 0.246000
v -0.014141 0.544143 0.246000
v 0.020002 0.530000 0.246000
v 0.014144 0.515858 0.246000
v 0.014144 0.544143 0.246000
v 0.000001 0.550000 0.253500
v 0.000001 0.541882 0.249500
v -0.011881 0.530000 0.249500
v -0.019999 0.530000 0.253500
v -0.008401 0.538402 0.249500
v -0.014141 0.544143 0.253500
v 0.000001 0.518118 0.249500
v 0.000001 0.510000 0.253500
v -0.008401 0.521598 0.249500
v -0.014141 0.515858 0.253500
v 0.014144 0.544143 0.253500
v 0.008404 0.538402 0.249500
v 0.011884 0.530000 0.249500
v 0.020002 0.530000 0.253500
v 0.014144 0.515858 0.253500
v 0.008404 0.521599 0.249500
v 0.008403 0.538402 0.242000
v 0.000001 0.541882 0.242000
v 0.000001 0.518118 0.242000
v 0.008404 0.521599 0.242000
v -0.011881 0.530000 0.242000
v -0.008401 0.521598 0.242000
v 0.011884 0.530000 0.242000
v -0.008401 0.538402 0.242000
v 0.000001 0.523530 0.246000
v -0.006469 0.530000 0.246000
v 0.000001 0.536470 0.246000
v 0.006472 0.530000 0.246000
v 0.000001 0.536470 0.230000
v 0.000001 0.523530 0.230000
v -0.006469 0.530000 0.230000
v 0.006472 0.530000 0.230000
vn -0.0000 1.0000 -0.0000
vn -0.0000 -1.0000 -0.0000
vn -0.0000 -0.0000 1.0000
vn 1.0000 -0.0000 -0.0000
vn -1.0000 -0.0000 -0.0000
vn -0.0000 -0.0000 -1.0000
vn -0.4405 -0.0000 0.8977
vn -0.6230 -0.0000 0.7822
vn -0.8977 -0.0000 0.4405
vn 0.8977 -0.0000 0.4405
vn 0.6230 -0.0000 0.7822
vn 0.4405 -0.0000 0.8977
vn -0.0000 -0.8977 0.4405
vn -0.0000 -0.6230 0.7822
vn -0.0000 -0.4405 0.8977
vn -0.0000 0.4405 0.8977
vn -0.0000 0.6230 0.7822
vn -0.0000 0.8977 0.4405
vn -0.7071 -0.7071 -0.0000
vn -0.7071 0.7071 -0.0000
vn 0.7071 -0.7071 -0.0000
vn 0.7071 0.7071 -0.0000
vn -0.3125 -0.3126 0.8970
vn -0.4420 -0.0000 0.8970
vn 0.3125 0.3125 -0.8970
vn -0.0000 0.4420 -0.8970
vn -0.0000 -0.4420 -0.8970
vn 0.3125 -0.3125 -0.8970
vn -0.4420 -0.0000 -0.8970
vn -0.3125 -0.3125 -0.8970
vn 0.3125 0.3125 0.8970
vn 0.4420 -0.0000 0.8970
vn -0.3125 0.3126 0.8970
vn -0.0000 0.4420 0.8970
vn -0.0000 -0.4420 0.8970
vn 0.4420 -0.0000 -0.8970
vn 0.3125 -0.3125 0.8970
vn -0.3125 0.3125 -0.8970
vt 0.360668 0.945896
vt 0.587335 0.345896
vt 0.360668 0.699229
vt 0.587335 0.099229
vt 0.587335 0.945896
vt 0.360668 0.345896
vt 0.587335 0.699229
vt 0.360669 0.099229
vt 0.146667 0.110000
vt 0.123234 0.109998
vt 0.327335 0.945896
vt 0.620669 0.345896
vt 0.146667 0.043333
vt 0.123233 0.043331
vt 0.389900 0.109998
vt 0.146667 -0.110000
vt 0.327335 0.679229
vt 0.620668 0.079229
vt 0.389900 0.043331
vt 0.146667 -0.043333
vt 0.140000 0.110000
vt -0.403233 -0.109995
vt 0.334002 0.945896
vt 0.614002 0.345896
vt 0.140000 0.043333
vt -0.403232 -0.043328
vt -0.136567 -0.109995
vt 0.139999 -0.110000
vt 0.334002 0.679229
vt 0.614002 0.079229
vt -0.136566 -0.043328
vt 0.140000 -0.043333
vt 0.380000 0.109999
vt 0.123234 0.109998
vt 0.094003 0.945898
vt 0.854002 0.345897
vt 0.380000 0.043333
vt 0.123233 0.043332
vt 0.389900 0.109998
vt 0.380000 -0.110000
vt 0.094002 0.679229
vt 0.854002 0.079230
vt 0.389900 0.043331
vt 0.379999 -0.043333
vt 0.373333 0.109999
vt -0.403233 -0.109995
vt 0.100671 0.945899
vt 0.847335 0.345897
vt 0.373333 0.043333
vt -0.403232 -0.043328
vt -0.136567 -0.109995
vt 0.373332 -0.110000
vt 0.100669 0.679229
vt 0.847335 0.079230
vt -0.136566 -0.043328
vt 0.373333 -0.043333
vt 0.373235 0.623332
vt 0.643333 0.376667
vt 0.330672 1.445908
vt 1.117337 0.845897
vt 0.373234 0.529999
vt 0.643334 0.470000
vt -0.153237 0.376671
vt 0.376668 0.376666
vt 0.597325 1.445878
vt 0.850648 0.845891
vt -0.153235 0.470005
vt 0.376669 0.469999
vt 0.373335 0.110000
vt 0.369898 0.110002
vt 0.100673 0.699231
vt 0.847321 0.099219
vt 0.373335 0.043333
vt 0.369897 0.043335
vt 0.376564 0.110002
vt 0.373334 -0.109999
vt 0.100673 0.692564
vt 0.847321 0.092552
vt 0.376564 0.043335
vt 0.373334 -0.043333
vt 0.146664 0.109999
vt -0.156570 -0.109993
vt 0.327326 0.699210
vt 0.620636 0.099214
vt 0.146664 0.043332
vt -0.156569 -0.043326
vt -0.149904 -0.109993
vt 0.146668 -0.110001
vt 0.327326 0.692542
vt 0.620636 0.092547
vt -0.149902 -0.043326
vt 0.146669 -0.043334
vt 1.117337 0.852564
vt 0.366568 0.529999
vt 0.741006 0.640648
vt 0.366568 0.623331
vt 0.330672 1.452574
vt 0.741006 0.546852
vt 0.850648 0.852559
vt -0.159902 0.470005
vt 1.008994 0.640648
vt -0.159904 0.376671
vt 0.597325 1.452545
vt 1.008994 0.546852
vt 0.754404 0.627249
vt 0.754404 0.560251
vt 0.995593 0.627249
vt 0.995593 0.560251
vt 0.754404 0.627249
vt 0.747705 0.633948
vt 0.752197 0.629454
vt 0.747705 0.553552
vt 0.754404 0.560251
vt 0.752197 0.558046
vt 1.002295 0.633948
vt 0.995593 0.627249
vt 0.997800 0.629454
vt 0.995593 0.560251
vt 1.002295 0.553552
vt 0.997800 0.558046
vt 0.457430 0.417573
vt 0.415847 0.352750
vt 0.457431 0.342737
vt 0.457431 0.408219
vt 0.412027 0.343796
vt 0.457431 0.398864
vt 0.415755 0.334698
vt 0.457430 0.380155
vt 0.433856 0.334740
vt 0.457430 0.389510
vt 0.424849 0.330932
vt 0.457430 0.361446
vt 0.433704 0.352755
vt 0.424775 0.356407
vt 0.457430 0.352092
vt 0.457430 0.370801
vt 0.437529 0.343804
vt 0.452847 0.380156
vt 0.433598 0.378199
vt 0.433747 0.372572
vt 0.426644 0.365447
vt 0.452847 0.398864
vt 0.421097 0.365407
vt 0.428716 0.370482
vt 0.452847 0.389510
vt 0.424673 0.374333
vt 0.433858 0.358363
vt 0.452847 0.417573
vt 0.433746 0.352738
vt 0.452847 0.342737
vt 0.428800 0.360436
vt 0.452847 0.408219
vt 0.424798 0.356529
vt 0.452847 0.370801
vt 0.442703 0.374596
vt 0.438798 0.370490
vt 0.440908 0.365486
vt 0.452847 0.361446
vt 0.446595 0.365526
vt 0.442815 0.356399
vt 0.452847 0.352092
vt 0.438884 0.360463
vt 0.431908 0.343679
vt 0.429789 0.338648
vt 0.419737 0.348720
vt 0.424777 0.350845
vt 0.419779 0.338711
vt 0.417657 0.343689
vt 0.429816 0.348723
vt 0.424752 0.336577
vt 0.254747 0.110844
vt 0.254747 0.139960
vt 0.254747 0.132681
vt 0.254747 0.125402
vt 0.254747 0.118123
vt 0.266506 0.125402
vt 0.266506 0.110844
vt 0.266506 0.139960
vt 0.266506 0.132681
vt 0.266506 0.118123
s 1
usemtl wood_3
f 88/226/13 90/228/13 86/224/13 84/222/13
f 85/223/14 89/227/14 87/225/14 83/221/14
f 96/244/13 98/250/13 94/238/13 92/232/13
f 95/241/15 96/245/15 92/233/15 91/229/15
f 97/247/16 98/251/16 96/246/16 95/242/16
f 91/230/17 92/234/17 94/239/17 93/235/17
f 93/236/18 94/240/18 98/252/18 97/248/18
f 93/237/14 97/249/14 95/243/14 91/231/14
f 104/268/13 106/274/13 102/262/13 100/256/13
f 103/265/15 104/269/15 100/257/15 99/253/15
f 105/271/16 106/275/16 104/270/16 103/266/16
f 99/254/17 100/258/17 102/263/17 101/259/17
f 101/260/18 102/264/18 106/276/18 105/272/18
f 101/261/14 105/273/14 103/267/14 99/255/14
f 121/319/13 110/286/13 108/280/13 119/313/13
f 109/283/16 110/287/16 121/320/16 122/322/16
f 120/316/17 119/314/17 108/281/17 107/277/17
f 107/278/18 108/282/18 110/288/18 109/284/18
f 107/279/14 109/285/14 122/323/14 120/317/14
f 116/304/13 118/310/13 114/298/13 112/292/13
f 115/301/15 116/305/15 112/293/15 111/289/15
f 117/307/16 118/311/16 116/306/16 115/302/16
f 111/290/17 112/294/17 114/299/17 113/295/17
f 113/296/18 114/300/18 118/312/18 117/308/18
f 113/297/14 117/309/14 115/303/14 111/291/14
f 131/333/15 136/338/15 126/328/15 124/326/15
f 134/336/15 127/329/15 123/325/15 125/327/15
f 136/338/15 134/336/15 125/327/15 126/328/15
f 130/332/15 128/330/15 119/315/15 120/318/15
f 126/328/15 125/327/15 123/325/15 124/326/15
f 133/335/15 137/339/15 122/324/15 121/321/15
f 137/339/15 130/332/15 120/318/15 122/324/15
f 128/330/15 133/335/15 121/321/15 119/315/15
f 128/330/19 130/332/19 132/334/20 129/331/20
f 129/331/20 132/334/20 131/333/21 127/329/21
f 134/336/22 136/338/22 138/340/23 135/337/23
f 135/337/23 138/340/23 137/339/24 133/335/24
f 136/338/25 131/333/25 132/334/26 138/340/26
f 138/340/26 132/334/26 130/332/27 137/339/27
f 133/335/28 128/330/28 129/331/29 135/337/29
f 135/337/29 129/331/29 127/329/30 134/336/30
f 127/329/15 131/333/15 124/326/15 123/325/15
f 156/372/31 140/344/31 139/341/14 154/368/14
f 147/358/13 142/348/13 143/350/32 152/365/32
f 144/352/16 160/378/16 161/381/33 145/355/33
f 146/356/34 157/374/34 160/378/16 144/352/16
f 142/348/13 147/358/13 157/374/34 146/356/34
f 153/367/15 162/382/15 159/377/15 158/376/15 148/360/15 151/364/15 149/361/15 155/371/15
f 152/365/32 143/350/32 141/346/17 150/362/17
f 150/362/17 141/346/17 140/344/31 156/372/31
f 158/376/35 159/377/36 160/379/36 157/375/35
f 163/383/37 164/384/38 142/349/38 146/357/37
f 165/385/39 166/386/40 145/354/40 139/342/39
f 167/387/41 168/388/42 140/345/42 141/347/41
f 155/371/43 149/361/44 150/363/44 156/373/43
f 162/382/45 153/367/46 154/369/46 161/380/45
f 148/360/47 158/376/35 157/375/35 147/359/47
f 169/389/48 163/383/37 146/357/37 144/353/48
f 151/364/49 148/360/47 147/359/47 152/366/49
f 164/384/38 170/390/50 143/351/50 142/349/38
f 149/361/44 151/364/49 152/366/49 150/363/44
f 170/390/50 167/387/41 141/347/41 143/351/50
f 166/386/40 169/389/48 144/353/48 145/354/40
f 159/377/36 162/382/45 161/380/45 160/379/36
f 153/367/46 155/371/43 156/373/43 154/369/46
f 168/388/42 165/385/39 139/342/39 140/345/42
f 145/355/33 161/381/33 154/370/14 139/343/14
f 166/386/18 165/385/18 168/388/18 167/387/18 170/390/18 164/384/18 163/383/18 169/389/18
f 173/394/13 174/395/16 178/400/16 175/396/13
f 173/394/13 175/396/13 177/399/17 172/393/17
f 174/395/16 171/391/14 176/397/14 178/400/16
f 171/392/14 172/393/17 177/399/17 176/398/14
