# Blender 3.4.0
# www.blender.org
mtllib chair_mp_1.mtl
o chair_mp_1
v -0.195750 0.000000 0.195749
v -0.199687 0.562000 0.199686
v -0.195750 0.000000 0.155251
v -0.199687 0.562000 0.151313
v -0.155252 0.000000 0.195749
v -0.151314 0.562000 0.199686
v -0.155252 0.000000 0.155251
v -0.151314 0.562000 0.151313
v 0.195748 0.000000 -0.155251
v 0.199686 0.562000 -0.151314
v 0.195748 0.000000 -0.195749
v 0.199686 0.562000 -0.199687
v 0.199686 0.562000 0.151313
v 0.195748 0.000000 0.155251
v 0.199686 0.562000 0.199686
v 0.195748 0.000000 0.195749
v 0.151313 0.562000 0.151313
v 0.155251 0.000000 0.155251
v 0.151313 0.562000 0.199686
v 0.155251 0.000000 0.195749
v 0.155251 0.000000 -0.155251
v 0.151313 0.562000 -0.151314
v 0.155251 0.000000 -0.195749
v 0.151313 0.562000 -0.199687
v -0.155252 0.000000 -0.155251
v -0.151314 0.562000 -0.151314
v -0.155252 0.000000 -0.195749
v -0.151314 0.562000 -0.199687
v -0.195750 0.000000 -0.155251
v -0.199687 0.562000 -0.151314
v -0.195750 0.000000 -0.195749
v -0.199687 0.562000 -0.199687
v -0.162002 0.153000 0.184500
v -0.162002 0.190000 0.184500
v -0.162003 0.153000 0.166500
v -0.162002 0.190000 0.166500
v 0.161998 0.153000 0.184500
v 0.161998 0.190000 0.184500
v 0.161998 0.153000 0.166500
v 0.161998 0.190000 0.166500
v -0.162002 0.506000 0.184500
v -0.162002 0.562000 0.184500
v -0.162003 0.506000 0.166500
v -0.162002 0.562000 0.166500
v 0.161998 0.506000 0.184500
v 0.161998 0.562000 0.184500
v 0.161998 0.506000 0.166500
v 0.161998 0.562000 0.166500
v -0.162002 0.506000 -0.166500
v -0.162002 0.562000 -0.166500
v -0.162003 0.506000 -0.184500
v -0.162002 0.562000 -0.184500
v 0.161998 0.506000 -0.166500
v 0.161998 0.562000 -0.166500
v 0.161998 0.506000 -0.184500
v 0.161998 0.562000 -0.184500
v -0.184504 0.506000 -0.161999
v -0.184504 0.562000 -0.161999
v -0.166504 0.506000 -0.162000
v -0.166504 0.562000 -0.161999
v -0.184504 0.506000 0.162001
v -0.184504 0.562000 0.162001
v -0.166504 0.506000 0.162001
v -0.166504 0.562000 0.162001
v 0.166496 0.506000 -0.161999
v 0.166496 0.562000 -0.161999
v 0.184496 0.506000 -0.162000
v 0.184496 0.562000 -0.161999
v 0.166496 0.506000 0.162001
v 0.166496 0.562000 0.162001
v 0.184496 0.506000 0.162001
v 0.184496 0.562000 0.162001
v -0.162002 0.153000 -0.166500
v -0.162002 0.190000 -0.166500
v -0.162003 0.153000 -0.184500
v -0.162002 0.190000 -0.184500
v 0.161998 0.153000 -0.166500
v 0.161998 0.190000 -0.166500
v 0.161998 0.153000 -0.184500
v 0.161998 0.190000 -0.184500
v -0.184504 0.153000 -0.166500
v -0.184504 0.190000 -0.166500
v -0.166504 0.153000 -0.166500
v -0.166504 0.190000 -0.166500
v -0.184504 0.153000 0.166501
v -0.184504 0.190000 0.166501
v -0.166504 0.153000 0.166501
v -0.166504 0.190000 0.166501
v 0.166496 0.153000 -0.166500
v 0.166496 0.190000 -0.166500
v 0.184496 0.153000 -0.166500
v 0.184496 0.190000 -0.166500
v 0.166496 0.153000 0.166501
v 0.166496 0.190000 0.166501
v 0.184496 0.153000 0.166501
v 0.184496 0.190000 0.166501
v -0.232008 0.562000 0.235000
v -0.232008 0.594000 0.235000
v -0.234938 0.562000 0.125000
v -0.234938 0.594000 0.125000
v 0.228815 0.562000 0.235000
v 0.228815 0.594000 0.235000
v 0.229953 0.562000 0.125000
v 0.229953 0.594000 0.125000
v -0.230229 0.562000 0.115000
v -0.230229 0.594000 0.115000
v -0.232399 0.562000 0.005000
v -0.232399 0.594000 0.005000
v 0.231375 0.562000 0.115000
v 0.231375 0.594000 0.115000
v 0.229206 0.562000 0.005000
v 0.229205 0.594000 0.005000
v -0.238257 0.562000 -0.125000
v -0.238257 0.594000 -0.125000
v 0.228941 0.594000 -0.235000
v 0.228942 0.562000 -0.235000
v 0.228942 0.562000 -0.125000
v 0.228942 0.594000 -0.125000
v -0.238257 0.562000 -0.235000
v -0.238257 0.594000 -0.235000
v -0.235002 0.562000 -0.005000
v -0.235002 0.594000 -0.005000
v -0.232399 0.562000 -0.115000
v -0.232399 0.594000 -0.115000
v 0.232395 0.562000 -0.005000
v 0.232395 0.594000 -0.005000
v 0.231093 0.562000 -0.115000
v 0.231092 0.594000 -0.115000
vn -0.0000 -1.0000 -0.0000
vn -0.0000 -0.0070 1.0000
vn 1.0000 -0.0070 -0.0000
vn -1.0000 -0.0070 -0.0000
vn -0.0000 -0.0070 -1.0000
vn -0.0000 1.0000 -0.0000
vn -0.0000 -0.0000 1.0000
vn -0.0000 -0.0000 -1.0000
vn -1.0000 -0.0000 -0.0000
vn 1.0000 -0.0000 -0.0000
vn 0.9999 -0.0000 0.0103
vn -0.9996 -0.0000 0.0266
vn 0.9998 -0.0000 -0.0197
vn -0.9998 -0.0000 0.0197
vn 0.9999 -0.0000 -0.0118
vn -0.9997 -0.0000 -0.0237
vt 0.694958 0.661625
vt 0.191785 0.661654
vt 0.168941 0.678333
vt 0.607976 0.664573
vt 0.585131 0.681249
vt 0.664960 0.661625
vt 0.168941 0.648333
vt 0.194924 0.661679
vt 0.585131 0.645419
vt 0.611114 0.664592
vt 0.694956 0.631625
vt 0.191785 0.631655
vt 0.184440 0.678333
vt 0.607976 0.628741
vt 0.600629 0.681249
vt 0.664958 0.631625
vt 0.184440 0.648332
vt 0.194924 0.631681
vt 0.600629 0.645418
vt 0.611115 0.628759
vt 0.168465 0.284999
vt 0.193370 0.371670
vt 0.301665 0.371666
vt 0.584655 0.287915
vt 0.609560 0.368754
vt 0.193326 0.371668
vt 0.168465 0.255001
vt 0.271667 0.371666
vt 0.609513 0.368751
vt 0.584654 0.252085
vt 0.611127 0.368755
vt 0.584654 0.645419
vt 0.194939 0.371679
vt 0.168465 0.648334
vt 0.665018 0.371661
vt 0.607985 0.368740
vt 0.584654 0.681249
vt 0.191795 0.371659
vt 0.168465 0.678332
vt 0.695017 0.371662
vt 0.601106 0.645418
vt 0.611126 0.404585
vt 0.184916 0.648332
vt 0.194938 0.401677
vt 0.665017 0.401661
vt 0.601106 0.681250
vt 0.607984 0.404575
vt 0.184916 0.678334
vt 0.191794 0.401660
vt 0.695016 0.401661
vt 0.184916 0.285001
vt 0.193371 0.401667
vt 0.301664 0.401666
vt 0.601106 0.287916
vt 0.609562 0.404584
vt 0.193326 0.401666
vt 0.184916 0.255000
vt 0.271666 0.401666
vt 0.609514 0.404583
vt 0.601106 0.252084
vt 0.184440 0.285001
vt 0.193387 0.631656
vt 0.301661 0.631681
vt 0.600630 0.287915
vt 0.609575 0.628740
vt 0.193335 0.631690
vt 0.184440 0.255000
vt 0.271663 0.631681
vt 0.609525 0.628768
vt 0.600630 0.252085
vt 0.168941 0.285000
vt 0.193386 0.661654
vt 0.301661 0.661678
vt 0.585131 0.287915
vt 0.609574 0.664574
vt 0.193335 0.661688
vt 0.168941 0.255000
vt 0.271663 0.661678
vt 0.609525 0.664598
vt 0.585131 0.252085
vt 0.153334 0.343333
vt 0.320668 0.909230
vt 0.627335 0.309229
vt 0.153334 0.315926
vt 0.153333 -0.343333
vt 0.320669 0.895896
vt 0.627335 0.295896
vt 0.153333 -0.315925
vt -0.086667 0.343333
vt 0.560669 0.909230
vt 0.387335 0.309229
vt -0.086667 0.315926
vt -0.086667 -0.343333
vt 0.560669 0.895896
vt 0.387335 0.295896
vt -0.086666 -0.315926
vt 0.153333 0.055185
vt 0.320668 0.909230
vt 0.153333 0.013704
vt 0.153334 -0.055186
vt 0.320668 0.895896
vt 0.153334 -0.013705
vt -0.086668 0.055185
vt 0.560668 0.909230
vt -0.086668 0.013704
vt -0.086665 -0.055186
vt 0.560669 0.895896
vt -0.086665 -0.013705
vt 0.153333 0.055185
vt 0.320678 0.649231
vt 0.153333 0.013704
vt 0.153334 -0.055186
vt 0.320678 0.635897
vt 0.153334 -0.013705
vt -0.086668 0.055185
vt 0.560676 0.649231
vt -0.086668 0.013704
vt -0.086665 -0.055186
vt 0.560677 0.635897
vt -0.086665 -0.013705
vt 0.153333 0.055185
vt 0.320668 0.909230
vt 0.153333 0.013704
vt 0.153333 0.006852
vt 0.153334 -0.055186
vt 0.320668 0.895896
vt 0.153334 -0.013705
vt 0.153334 -0.006853
vt -0.086668 0.055185
vt 0.560668 0.909230
vt -0.086668 0.013704
vt -0.086668 0.006852
vt -0.086665 -0.055186
vt 0.560669 0.895896
vt -0.086665 -0.013705
vt -0.086665 -0.006853
vt 0.153333 0.055185
vt 0.320678 0.649231
vt 0.153333 0.013704
vt 0.153333 0.006852
vt 0.153334 -0.055186
vt 0.320678 0.635897
vt 0.153334 -0.013705
vt 0.153334 -0.006853
vt -0.086668 0.055185
vt 0.560676 0.649231
vt -0.086668 0.013704
vt -0.086668 0.006852
vt -0.086665 -0.055186
vt 0.560677 0.635897
vt -0.086665 -0.013705
vt -0.086665 -0.006853
vt 0.153334 0.343333
vt 0.320679 0.649228
vt 0.627327 0.049229
vt 0.153334 0.315926
vt 0.153333 -0.343333
vt 0.320679 0.635895
vt 0.627326 0.035896
vt 0.153333 -0.315925
vt -0.086667 0.343333
vt 0.560676 0.649227
vt 0.387323 0.049229
vt -0.086667 0.315926
vt -0.086667 -0.343333
vt 0.560676 0.635893
vt 0.387323 0.035896
vt -0.086666 -0.315926
vt 0.153334 0.343333
vt 0.320675 0.775895
vt 0.627331 0.175896
vt 0.153334 0.315926
vt 0.153333 -0.343333
vt 0.320675 0.762562
vt 0.627331 0.162563
vt 0.153333 -0.315925
vt -0.086667 0.343333
vt 0.560671 0.775894
vt 0.387328 0.175896
vt -0.086667 0.315926
vt -0.086667 -0.343333
vt 0.560672 0.762562
vt 0.387328 0.162562
vt -0.086666 -0.315926
vt 0.153334 0.343333
vt 0.320675 0.775895
vt 0.627331 0.175896
vt 0.153334 0.315926
vt 0.153333 -0.343333
vt 0.320675 0.762562
vt 0.627331 0.162563
vt 0.153333 -0.315925
vt -0.086667 0.343333
vt 0.560671 0.775894
vt 0.387328 0.175896
vt -0.086667 0.315926
vt -0.086667 -0.343333
vt 0.560672 0.762562
vt 0.387328 0.162562
vt -0.086666 -0.315926
vt 0.191739 0.612200
vt 0.362200 0.816993
vt 0.191739 0.817000
vt 0.191739 0.817000
vt 0.191739 0.637800
vt 0.387800 0.816993
vt 0.362200 0.729000
vt 0.189394 0.729000
vt 0.189394 0.612200
vt 0.189395 0.729000
vt 0.387800 0.729000
vt 0.189395 0.637800
vt 0.560397 0.612200
vt 0.362200 0.816999
vt 0.560397 0.817000
vt 0.560397 0.817000
vt 0.560397 0.637800
vt 0.387800 0.816999
vt 0.362200 0.729000
vt 0.561308 0.729000
vt 0.561308 0.612200
vt 0.561307 0.729000
vt 0.387800 0.729000
vt 0.561307 0.637800
vt 0.318162 0.487200
vt 0.487200 0.596000
vt 0.318162 0.596000
vt 0.318162 0.596000
vt 0.318162 0.512800
vt 0.512800 0.596000
vt 0.487200 0.508000
vt 0.316425 0.508000
vt 0.316425 0.487200
vt 0.316426 0.508000
vt 0.512800 0.508000
vt 0.316426 0.512800
vt 0.687445 0.487200
vt 0.487200 0.596000
vt 0.687445 0.596000
vt 0.687445 0.596000
vt 0.687445 0.512800
vt 0.512800 0.596000
vt 0.487200 0.508000
vt 0.685710 0.508000
vt 0.685710 0.487200
vt 0.685709 0.508000
vt 0.512800 0.508000
vt 0.685709 0.512800
vt 0.487200 0.154000
vt 0.311739 0.237200
vt 0.311739 0.154000
vt 0.512800 0.154000
vt 0.311739 0.262800
vt 0.311739 0.154000
vt 0.685498 0.262800
vt 0.685498 0.066000
vt 0.512800 0.096712
vt 0.685498 0.066000
vt 0.685498 0.237200
vt 0.487199 0.096712
vt 0.685499 0.237200
vt 0.685499 0.154000
vt 0.487200 0.153918
vt 0.685499 0.262800
vt 0.685499 0.154000
vt 0.512800 0.153918
vt 0.487199 0.100919
vt 0.311739 0.066000
vt 0.311739 0.237200
vt 0.512799 0.100919
vt 0.311740 0.262800
vt 0.311740 0.066000
vt 0.564343 0.487200
vt 0.737200 0.500000
vt 0.564343 0.500000
vt 0.564343 0.500000
vt 0.564343 0.512800
vt 0.762800 0.500000
vt 0.737200 0.412000
vt 0.566425 0.412000
vt 0.566425 0.487200
vt 0.566426 0.412000
vt 0.762800 0.412000
vt 0.566426 0.512800
vt 0.938261 0.487200
vt 0.737200 0.500000
vt 0.938261 0.500000
vt 0.938261 0.500000
vt 0.938261 0.512800
vt 0.762800 0.500000
vt 0.737200 0.412000
vt 0.937219 0.412000
vt 0.937219 0.487200
vt 0.937219 0.412000
vt 0.762800 0.412000
vt 0.937219 0.512800
s 1
usemtl wood_1
f 3/6/1 7/16/1 5/11/1 1/1/1
f 5/12/2 6/14/2 2/4/2 1/2/2
f 7/17/3 8/19/3 6/15/3 5/13/3
f 1/3/4 2/5/4 4/9/4 3/7/4
f 3/8/5 4/10/5 8/20/5 7/18/5
f 20/48/4 19/46/4 17/41/4 18/43/4
f 18/44/5 17/42/5 13/31/5 14/33/5
f 16/38/2 15/36/2 19/47/2 20/49/2
f 14/34/3 13/32/3 15/37/3 16/39/3
f 18/45/1 14/35/1 16/40/1 20/50/1
f 23/56/5 24/59/5 12/29/5 11/26/5
f 21/51/4 22/54/4 24/60/4 23/57/4
f 11/27/3 12/30/3 10/24/3 9/21/3
f 9/22/2 10/25/2 22/55/2 21/52/2
f 23/58/1 11/28/1 9/23/1 21/53/1
f 31/76/5 32/79/5 28/69/5 27/66/5
f 29/71/4 30/74/4 32/80/4 31/77/4
f 27/67/3 28/70/3 26/64/3 25/61/3
f 25/62/2 26/65/2 30/75/2 29/72/2
f 31/78/1 27/68/1 25/63/1 29/73/1
f 38/91/6 40/95/6 36/87/6 34/83/6
f 37/89/7 38/92/7 34/84/7 33/81/7
f 35/85/8 36/88/8 40/96/8 39/93/8
f 35/86/1 39/94/1 37/90/1 33/82/1
f 45/103/7 46/105/7 42/99/7 41/97/7
f 43/100/8 44/102/8 48/108/8 47/106/8
f 43/101/1 47/107/1 45/104/1 41/98/1
f 53/115/7 54/117/7 50/111/7 49/109/7
f 51/112/8 52/114/8 56/120/8 55/118/8
f 51/113/1 55/119/1 53/116/1 49/110/1
f 61/129/9 62/131/9 58/123/9 57/121/9
f 59/125/10 60/127/10 64/135/10 63/133/10
f 59/126/1 63/134/1 61/130/1 57/122/1
f 69/145/9 70/147/9 66/139/9 65/137/9
f 67/141/10 68/143/10 72/151/10 71/149/10
f 67/142/1 71/150/1 69/146/1 65/138/1
f 78/163/6 80/167/6 76/159/6 74/155/6
f 77/161/7 78/164/7 74/156/7 73/153/7
f 75/157/8 76/160/8 80/168/8 79/165/8
f 75/158/1 79/166/1 77/162/1 73/154/1
f 86/179/6 88/183/6 84/175/6 82/171/6
f 85/177/9 86/180/9 82/172/9 81/169/9
f 83/173/10 84/176/10 88/184/10 87/181/10
f 83/174/1 87/182/1 85/178/1 81/170/1
f 94/195/6 96/199/6 92/191/6 90/187/6
f 93/193/9 94/196/9 90/188/9 89/185/9
f 91/189/10 92/192/10 96/200/10 95/197/10
f 91/190/1 95/198/1 93/194/1 89/186/1
f 72/152/6 68/144/6 66/140/6 70/148/6
f 64/136/6 60/128/6 58/124/6 62/132/6
f 102/216/6 104/222/6 100/210/6 98/204/6
f 101/213/7 102/217/7 98/205/7 97/201/7
f 103/219/11 104/223/11 102/218/11 101/214/11
f 97/202/12 98/206/12 100/211/12 99/207/12
f 99/208/1 103/220/1 101/215/1 97/203/1
f 103/221/8 99/209/8 100/212/8 104/224/8
f 110/240/6 112/246/6 108/234/6 106/228/6
f 109/237/7 110/241/7 106/229/7 105/225/7
f 111/243/13 112/247/13 110/242/13 109/238/13
f 105/226/14 106/230/14 108/235/14 107/231/14
f 107/232/1 111/244/1 109/239/1 105/227/1
f 111/245/8 107/233/8 108/236/8 112/248/8
f 113/249/9 114/252/9 120/270/9 119/267/9
f 117/261/7 118/264/7 114/253/7 113/250/7
f 117/262/1 113/251/1 119/268/1 116/258/1
f 116/259/8 119/269/8 120/271/8 115/255/8
f 118/265/6 115/256/6 120/272/6 114/254/6
f 117/263/10 116/260/10 115/257/10 118/266/10
f 126/288/6 128/294/6 124/282/6 122/276/6
f 125/285/7 126/289/7 122/277/7 121/273/7
f 127/291/15 128/295/15 126/290/15 125/286/15
f 121/274/16 122/278/16 124/283/16 123/279/16
f 123/280/1 127/292/1 125/287/1 121/275/1
f 127/293/8 123/281/8 124/284/8 128/296/8
