# Blender 3.4.0
# www.blender.org
mtllib shelf_mp_3_3.mtl
o shelf_mp_3_3
v -0.490003 1.280000 -0.190000
v -0.510002 0.100000 0.210000
v -0.490002 0.120000 -0.190000
v 0.509998 0.100000 0.210000
v 0.509999 0.100000 -0.210000
v -0.510004 0.100000 -0.210000
v 0.490002 0.120000 0.210000
v 0.489996 0.120000 -0.190000
v -0.490001 0.120000 0.210000
v 0.509998 1.300000 -0.210000
v 0.489996 1.280000 -0.190000
v -0.510004 1.300000 -0.210000
v -0.510002 1.300000 0.210000
v 0.509998 1.300000 0.210000
v 0.489998 1.280000 0.210000
v -0.490004 1.280000 0.210000
v -0.482499 0.000000 0.182499
v -0.482499 0.000000 0.157502
v -0.457502 0.000000 0.182499
v -0.457502 0.000000 0.157502
v 0.482498 0.000000 -0.157501
v 0.482498 0.000000 -0.182498
v 0.482498 0.000000 0.157502
v 0.482498 0.000000 0.182499
v 0.457501 0.000000 0.157502
v 0.457501 0.000000 0.182499
v 0.457501 0.000000 -0.157501
v 0.457501 0.000000 -0.182498
v -0.457502 0.000000 -0.157501
v -0.457502 0.000000 -0.182498
v -0.482499 0.000000 -0.157501
v -0.482499 0.000000 -0.182498
v -0.455183 0.100000 0.184817
v -0.484818 0.100000 0.184817
v -0.455183 0.100000 0.155183
v -0.484818 0.100000 0.155183
v 0.455182 0.100000 0.184817
v 0.455182 0.100000 0.155183
v 0.484817 0.100000 0.155183
v 0.484817 0.100000 0.184817
v 0.455182 0.100000 -0.184817
v 0.484817 0.100000 -0.184817
v 0.455182 0.100000 -0.155183
v 0.484817 0.100000 -0.155183
v -0.484818 0.100000 -0.184817
v -0.455183 0.100000 -0.184817
v -0.484818 0.100000 -0.155183
v -0.455183 0.100000 -0.155183
v -0.490002 0.470000 0.200000
v -0.490003 0.470000 -0.190000
v -0.490002 0.490000 -0.190000
v 0.489998 0.470000 -0.190000
v 0.489996 0.490000 -0.190000
v 0.490000 0.490000 0.200000
v -0.490002 0.490000 0.200000
v 0.490002 0.470000 0.200000
v -0.490002 0.880000 0.200000
v -0.490003 0.880000 -0.190000
v -0.490002 0.900000 -0.190000
v 0.489998 0.880000 -0.190000
v 0.489996 0.900000 -0.190000
v 0.490000 0.900000 0.200000
v -0.490002 0.900000 0.200000
v 0.490002 0.880000 0.200000
vn -0.0000 1.0000 -0.0000
vn -0.0000 -0.0000 1.0000
vn -0.0000 -1.0000 -0.0000
vn -1.0000 -0.0000 -0.0000
vn 1.0000 -0.0000 -0.0000
vn -0.0000 -0.0000 -1.0000
vn -0.0000 -0.0232 0.9997
vn 0.9997 -0.0232 -0.0000
vn -0.9997 -0.0232 -0.0000
vn -0.0000 -0.0232 -0.9997
vt 0.080668 0.579776
vt 0.637145 0.483805
vt 0.429528 1.061710
vt 1.437146 0.817136
vt 0.093334 0.370000
vt 0.093333 0.573333
vt 1.266658 0.463322
vt 1.410479 0.483806
vt 0.106668 0.306667
vt 1.423813 1.083805
vt 0.773333 0.370000
vt 1.437143 0.817139
vt 0.773334 0.573333
vt 1.266669 1.143356
vt 1.437144 1.097138
vt 0.773334 0.293334
vt 1.423815 1.150469
vt 1.437147 1.097131
vt 0.093332 0.293333
vt 1.423813 0.470470
vt 0.760003 0.383333
vt 1.423815 0.817138
vt 1.253338 1.130023
vt 0.760001 0.573333
vt 1.423814 1.083805
vt 1.410479 1.137137
vt 0.759998 0.306667
vt 0.106669 0.383333
vt 1.253324 0.476657
vt 0.106670 0.573333
vt 1.423812 0.817138
vt 0.200668 -0.033448
vt 0.637151 1.097137
vt 0.623810 1.150477
vt 0.734002 0.579776
vt 0.429528 1.061708
vt 0.637145 1.137137
vt 0.880668 -0.033448
vt 0.637146 1.097143
vt 0.623809 0.470479
vt 0.880668 0.244257
vt 0.093279 1.170047
vt 0.637145 0.817146
vt 0.466663 0.463315
vt 0.200668 0.244257
vt 0.773284 1.170066
vt 0.637151 0.817137
vt 0.466692 1.143379
vt 0.759948 1.156735
vt 0.734002 0.844257
vt 0.429528 0.795043
vt 0.480027 1.130042
vt 0.106612 1.156719
vt 0.080668 0.844257
vt 0.479995 0.476650
vt 0.429527 0.795043
vt 0.604940 0.871625
vt 0.189703 0.871648
vt 0.173808 0.588332
vt 0.588275 0.871625
vt 0.173808 0.571667
vt 0.196801 0.871667
vt 0.604938 0.854959
vt 0.189703 0.854984
vt 0.179371 0.588331
vt 0.588273 0.854959
vt 0.179370 0.571666
vt 0.196801 0.855002
vt 0.420688 0.228333
vt 0.442161 0.228352
vt 0.494991 0.228329
vt 0.444325 0.228338
vt 0.420688 0.211668
vt 0.478327 0.228328
vt 0.446832 0.228341
vt 0.420688 0.571667
vt 0.838357 0.228325
vt 0.439717 0.228304
vt 0.420688 0.588332
vt 0.855022 0.228325
vt 0.432460 0.571666
vt 0.446832 0.245005
vt 0.838357 0.244991
vt 0.432460 0.588332
vt 0.439718 0.244971
vt 0.855022 0.244991
vt 0.432461 0.228333
vt 0.442162 0.245016
vt 0.494991 0.244994
vt 0.444326 0.245003
vt 0.432460 0.211668
vt 0.478327 0.244994
vt 0.179371 0.228333
vt 0.192186 0.855001
vt 0.244994 0.855000
vt 0.194357 0.855009
vt 0.179371 0.211668
vt 0.228329 0.855000
vt 0.173808 0.228333
vt 0.192185 0.871666
vt 0.244994 0.871664
vt 0.194357 0.871674
vt 0.173808 0.211668
vt 0.228329 0.871664
vt 0.256378 0.853440
vt 0.246045 0.589877
vt 0.256378 0.873196
vt 0.240483 0.589878
vt 0.246045 0.570120
vt 0.263476 0.853454
vt 0.240483 0.570122
vt 0.263475 0.873210
vt 0.499135 0.589877
vt 0.506392 0.246518
vt 0.499135 0.570121
vt 0.513506 0.246551
vt 0.513506 0.226796
vt 0.486706 0.570121
vt 0.506392 0.226760
vt 0.486706 0.589877
vt 0.510999 0.246548
vt 0.499135 0.210122
vt 0.511000 0.226793
vt 0.486706 0.210123
vt 0.499135 0.229878
vt 0.508835 0.246561
vt 0.486706 0.229879
vt 0.508834 0.226805
vt 0.261032 0.873218
vt 0.240483 0.210122
vt 0.261031 0.853463
vt 0.246045 0.210122
vt 0.240482 0.229879
vt 0.258859 0.873211
vt 0.246045 0.229879
vt 0.258860 0.853455
vt 0.080670 0.839229
vt 0.106665 0.483333
vt 0.080670 0.579229
vt 0.867334 -0.020771
vt 0.734001 0.579230
vt 0.214002 -0.020771
vt 0.214001 0.239229
vt 0.760003 0.496667
vt 0.867335 0.239229
vt 0.106665 0.496666
vt 0.734002 0.839230
vt 0.760005 0.483334
vt 0.080670 0.839229
vt 0.106659 0.683329
vt 0.080670 0.579229
vt 0.867334 -0.020771
vt 0.734001 0.579230
vt 0.214002 -0.020771
vt 0.214001 0.239229
vt 0.760009 0.696662
vt 0.867335 0.239229
vt 0.106660 0.696662
vt 0.734002 0.839230
vt 0.760009 0.683329
s 1
usemtl wood_5
f 14/45/1 10/32/1 12/38/1 13/41/1
f 15/49/2 14/46/2 13/42/2 16/53/2
f 1/1/3 11/35/3 15/50/3 16/54/3
f 2/4/4 13/43/4 12/39/4 6/18/4
f 9/28/2 2/5/2 4/11/2 7/21/2
f 5/15/5 10/33/5 14/47/5 4/12/5
f 6/19/3 5/16/3 4/13/3 2/6/3
f 15/51/4 11/36/4 8/25/4 7/22/4
f 4/14/2 14/48/2 15/52/2 7/23/2
f 8/26/2 11/37/2 1/2/2 3/8/2
f 9/29/2 16/55/2 13/44/2 2/7/2
f 6/20/6 12/40/6 10/34/6 5/17/6
f 18/60/3 20/66/3 19/63/3 17/57/3
f 17/58/7 19/64/7 33/105/7 34/107/7
f 33/106/8 19/65/8 20/67/8 35/109/8
f 36/111/9 18/61/9 17/59/9 34/108/9
f 20/68/10 18/62/10 36/112/10 35/110/10
f 38/115/9 25/81/9 26/84/9 37/113/9
f 23/75/10 25/82/10 38/116/10 39/117/10
f 26/85/7 24/78/7 40/119/7 37/114/7
f 40/120/8 24/79/8 23/76/8 39/118/8
f 25/83/3 23/77/3 24/80/3 26/86/3
f 22/72/10 28/90/10 41/121/10 42/123/10
f 41/122/9 28/91/9 27/87/9 43/125/9
f 44/127/8 21/69/8 22/73/8 42/124/8
f 27/88/7 21/70/7 44/128/7 43/126/7
f 28/92/3 22/74/3 21/71/3 27/89/3
f 30/96/10 32/102/10 45/129/10 46/131/10
f 45/130/9 32/103/9 31/99/9 47/133/9
f 48/135/8 29/93/8 30/97/8 46/132/8
f 31/100/7 29/94/7 48/136/7 47/134/7
f 32/104/3 30/98/3 29/95/3 31/101/3
f 7/24/1 8/27/1 3/9/1 9/30/1
f 3/10/5 1/3/5 16/56/5 9/31/5
f 54/143/1 53/142/1 51/140/1 55/145/1
f 50/139/3 52/141/3 56/147/3 49/137/3
f 56/148/2 54/144/2 55/146/2 49/138/2
f 62/155/1 61/154/1 59/152/1 63/157/1
f 58/151/3 60/153/3 64/159/3 57/149/3
f 64/160/2 62/156/2 63/158/2 57/150/2
