# Blender 3.4.0
# www.blender.org
mtllib ammo_box_mp_3_1.mtl
o ammo_box_mp_3_1
v -0.077935 0.075000 -0.037500
v 0.077938 0.075000 -0.037500
v 0.077938 -0.000000 -0.037500
v -0.077936 0.000000 0.037500
v -0.077936 0.075000 0.037500
v -0.077935 -0.000000 -0.037500
v 0.077938 0.075000 -0.037500
v 0.077938 -0.000000 -0.037500
v 0.077938 0.075000 0.037500
v 0.077938 0.000000 0.037500
vn -1.0000 -0.0000 -0.0000
vn -0.0000 -0.0000 -1.0000
vn -0.0000 -0.0000 1.0000
vn 1.0000 -0.0000 -0.0000
vn -0.0000 1.0000 -0.0000
vn -0.0000 -1.0000 -0.0000
vt 0.667969 0.919922
vt 0.667969 1.000000
vt 0.500000 0.919922
vt 0.500000 0.837891
vt 0.750000 0.837891
vt 0.500000 0.837891
vt 0.667969 0.757812
vt 0.750000 0.919922
vt 0.500000 0.919922
vt 0.667969 0.919922
vt 0.667969 0.837891
vt 0.500000 0.919922
vt 0.667969 0.919922
vt 0.500000 1.000000
vt 0.667969 0.837891
vt 0.500000 0.837891
vt 0.750000 0.919922
vt 0.667969 0.919922
vt 0.500000 0.919922
vt 0.750000 0.837891
vt 0.667969 0.837891
vt 0.500000 0.757812
s 0
usemtl ammo_mp_1
f 6/11/1 4/5/1 5/8/1 1/1/1
f 3/4/2 6/11/2 1/1/2 2/3/2
f 3/4/3 2/3/3 7/12/3 8/16/3
f 8/15/4 7/13/4 9/17/4 10/20/4
f 4/6/3 10/21/3 9/18/3 5/9/3
f 5/10/5 9/19/5 7/14/5 1/2/5
f 6/11/6 8/16/6 10/22/6 4/7/6
