# Blender 3.4.0
# www.blender.org
mtllib ammo_pistol_loose_mp_2_casing.mtl
o ammo_pistol_loose_mp_2_casing
v -0.000000 0.000000 0.006300
v -0.006300 0.000000 0.000000
v -0.004455 0.000000 0.004455
v -0.000000 0.021606 0.005218
v -0.000000 0.000000 -0.006300
v -0.004455 0.000000 -0.004455
v 0.006300 0.000000 0.000000
v 0.004455 0.000000 0.004455
v 0.003689 0.021606 0.003689
v 0.004455 0.000000 -0.004455
v -0.005218 0.021606 0.000000
v -0.003689 0.021606 0.003689
v -0.000000 0.021606 -0.005218
v -0.003689 0.021606 -0.003689
v 0.005218 0.021606 0.000000
v 0.003689 0.021606 -0.003689
v 0.004455 0.021606 0.004455
v -0.000000 0.021606 0.006300
v 0.004455 0.021606 -0.004455
v -0.000000 0.021606 -0.006300
v 0.006300 0.021606 0.000000
v -0.004455 0.021606 -0.004455
v -0.006300 0.021606 0.000000
v -0.004455 0.021606 0.004455
v 0.003689 0.001139 0.003689
v -0.000000 0.001139 0.005218
v 0.003689 0.001139 -0.003689
v -0.000000 0.001139 -0.005218
v 0.005218 0.001139 0.000000
v -0.003689 0.001139 -0.003689
v -0.005218 0.001139 0.000000
v -0.003689 0.001139 0.003689
vn -0.0000 -0.0000 1.0000
vn -0.7071 -0.0000 0.7071
vn -1.0000 -0.0000 -0.0000
vn -0.0000 -0.0000 -1.0000
vn -0.7071 -0.0000 -0.7071
vn 1.0000 -0.0000 -0.0000
vn 0.7071 -0.0000 -0.7071
vn 0.7071 -0.0000 0.7071
vn -0.0000 -1.0000 -0.0000
vt 0.035233 0.556641
vt 0.046952 0.556641
vt 0.044348 0.632957
vt 0.046952 0.556641
vt 0.035233 0.556641
vt 0.048760 0.643988
vt 0.041093 0.556641
vt 0.048760 0.637370
vt 0.043755 0.563961
vt 0.035156 0.582031
vt 0.046875 0.582031
vt 0.046952 0.556641
vt 0.035233 0.556641
vt 0.037730 0.648400
vt 0.041093 0.556641
vt 0.044348 0.648400
vt 0.046952 0.556641
vt 0.035233 0.556641
vt 0.033317 0.637370
vt 0.041093 0.556641
vt 0.037730 0.632957
vt 0.038322 0.563962
vt 0.041016 0.582031
vt 0.041093 0.556641
vt 0.033317 0.643988
vt 0.035156 0.582031
vt 0.047444 0.573083
vt 0.046875 0.582031
vt 0.047444 0.567650
vt 0.041016 0.582031
vt 0.038322 0.576771
vt 0.035156 0.582031
vt 0.046875 0.582031
vt 0.043755 0.576771
vt 0.041016 0.582031
vt 0.034634 0.567650
vt 0.046875 0.582031
vt 0.035156 0.582031
vt 0.034634 0.573083
vt 0.041016 0.582031
vt 0.041093 0.582039
vt 0.037730 0.562645
vt 0.035233 0.582039
vt 0.046952 0.582039
vt 0.044348 0.562645
vt 0.041093 0.582039
vt 0.033317 0.573675
vt 0.046952 0.582039
vt 0.035233 0.582039
vt 0.037730 0.578088
vt 0.046952 0.582039
vt 0.035233 0.582039
vt 0.033317 0.567057
vt 0.041093 0.582039
vt 0.044348 0.578088
vt 0.046952 0.582039
vt 0.035233 0.582039
vt 0.048760 0.573675
vt 0.041093 0.582039
vt 0.048760 0.567057
vt 0.038322 0.563962
vt 0.041016 0.560547
vt 0.043755 0.563961
vt 0.035156 0.560547
vt 0.046875 0.560547
vt 0.034634 0.573083
vt 0.041016 0.560547
vt 0.038322 0.576771
vt 0.035156 0.560547
vt 0.046875 0.560547
vt 0.034634 0.567650
vt 0.046875 0.560547
vt 0.035156 0.560547
vt 0.043755 0.576771
vt 0.041016 0.560547
vt 0.035156 0.560547
vt 0.047444 0.573083
vt 0.046875 0.560547
vt 0.047444 0.567650
vt 0.041016 0.560547
s 1
usemtl ammo_mp_1
f 1/1/1 18/43/1 24/59/2 3/7/2
f 3/7/2 24/59/2 23/56/3 2/4/3
f 20/48/4 5/12/4 6/15/5 22/54/5
f 22/54/5 6/15/5 2/5/3 23/57/3
f 21/51/6 7/17/6 10/24/7 19/46/7
f 19/46/7 10/24/7 5/13/4 20/49/4
f 18/44/1 1/2/1 8/20/8 17/41/8
f 17/41/8 8/20/8 7/18/6 21/52/6
f 2/6/9 6/16/9 5/14/9 10/25/9 7/19/9 8/21/9 1/3/9 3/8/9
f 11/26/3 14/35/5 30/75/5 31/76/3
f 4/9/9 9/22/9 17/42/9 18/45/9
f 16/39/9 13/31/9 20/50/9 19/47/9
f 15/36/9 16/39/9 19/47/9 21/53/9
f 14/34/9 11/27/9 23/58/9 22/55/9
f 11/27/9 12/29/9 24/60/9 23/58/9
f 13/31/9 14/34/9 22/55/9 20/50/9
f 12/29/9 4/9/9 18/45/9 24/60/9
f 9/22/9 15/36/9 21/53/9 17/42/9
f 31/77/9 30/74/9 28/68/9 27/66/9 29/71/9 25/61/9 26/63/9 32/79/9
f 13/32/4 16/40/7 27/67/7 28/69/4
f 4/10/1 12/30/2 32/80/2 26/64/1
f 12/30/2 11/28/3 31/78/3 32/80/2
f 16/40/7 15/37/6 29/72/6 27/67/7
f 9/23/8 4/11/1 26/65/1 25/62/8
f 15/38/6 9/23/8 25/62/8 29/73/6
f 14/35/5 13/33/4 28/70/4 30/75/5
