# Blender 3.4.0
# www.blender.org
mtllib ammo_box_mp_5_1.mtl
o ammo_box_mp_5_1
v -0.101315 0.097500 -0.048750
v 0.101320 0.097500 -0.048750
v 0.101320 -0.000000 -0.048750
v -0.101317 0.000000 0.048750
v -0.101317 0.097500 0.048750
v -0.101315 -0.000000 -0.048750
v 0.101320 0.097500 -0.048750
v 0.101320 -0.000000 -0.048750
v 0.101320 0.097500 0.048750
v 0.101320 0.000000 0.048750
vn -1.0000 -0.0000 -0.0000
vn -0.0000 -0.0000 -1.0000
vn -0.0000 -0.0000 1.0000
vn 1.0000 -0.0000 -0.0000
vn -0.0000 1.0000 -0.0000
vn -0.0000 -1.0000 -0.0000
vt 0.917969 0.917969
vt 0.917969 1.000000
vt 0.750000 0.917969
vt 0.750000 0.837891
vt 1.000000 0.837891
vt 0.750000 0.675781
vt 0.917969 0.755859
vt 1.000000 0.917969
vt 0.750000 0.755859
vt 0.917969 0.917969
vt 0.917969 0.837891
vt 0.750000 0.917969
vt 0.917969 0.917969
vt 0.750000 1.000000
vt 0.917969 0.837891
vt 0.750000 0.837891
vt 1.000000 0.917969
vt 0.917969 0.755859
vt 0.750000 0.917969
vt 1.000000 0.837891
vt 0.917969 0.675781
vt 0.750000 0.755859
s 0
usemtl ammo_mp_1
f 6/11/1 4/5/1 5/8/1 1/1/1
f 3/4/2 6/11/2 1/1/2 2/3/2
f 3/4/3 2/3/3 7/12/3 8/16/3
f 8/15/4 7/13/4 9/17/4 10/20/4
f 4/6/3 10/21/3 9/18/3 5/9/3
f 5/10/5 9/19/5 7/14/5 1/2/5
f 6/11/6 8/16/6 10/22/6 4/7/6
