# Blender 3.4.0
# www.blender.org
mtllib ammo_box_mp_4.mtl
o ammo_box_mp_4
v -0.062348 0.060000 -0.030000
v -0.062349 0.000000 0.030000
v -0.062349 0.060000 0.030000
v -0.062348 -0.000000 -0.030000
v 0.062351 0.060000 -0.030000
v 0.062351 -0.000000 -0.030000
v 0.062351 0.060000 0.030000
v 0.062351 0.000000 0.030000
v 0.078351 0.068000 -0.030000
v 0.078351 0.068000 0.030000
v -0.078348 0.068000 -0.030000
v -0.078349 0.068000 0.030000
v -0.062348 0.107675 -0.058084
v 0.062351 0.107675 -0.058084
v 0.086351 0.072000 -0.022000
v 0.086351 0.072000 0.022000
v -0.086348 0.072000 0.022000
v -0.086348 0.072000 -0.022000
v -0.054382 0.113898 -0.054125
v 0.054384 0.113898 -0.054125
v 0.062353 0.060716 0.030000
v 0.085993 0.072716 0.022000
v 0.077993 0.068716 0.030000
v 0.077993 0.068716 -0.030000
v 0.085993 0.072716 -0.022000
v -0.062348 0.060716 -0.030000
v 0.062351 0.060716 -0.030000
v -0.062351 0.060716 0.030000
v -0.085990 0.072716 -0.022000
v -0.077990 0.068716 -0.030000
v -0.077991 0.068716 0.030000
v -0.085991 0.072716 0.022000
v 0.054384 0.113468 -0.053450
v 0.062351 0.107668 -0.056987
v -0.062348 0.107668 -0.056987
v -0.054382 0.113468 -0.053450
v -0.062348 0.080703 -0.044301
v 0.062351 0.080703 -0.044301
v -0.062348 0.081011 -0.043494
v 0.062351 0.081011 -0.043494
v -0.062348 0.067485 -0.037108
v -0.062348 0.067893 -0.036425
v 0.062351 0.067485 -0.037108
v 0.062351 0.067893 -0.036425
v 0.062351 0.094553 -0.050701
v 0.062351 0.094907 -0.049800
v -0.062348 0.094553 -0.050701
v -0.062348 0.094907 -0.049800
vn -1.0000 -0.0000 -0.0000
vn -0.0000 -0.0000 -1.0000
vn 1.0000 -0.0000 -0.0000
vn -0.0000 -0.0000 1.0000
vn -0.0000 1.0000 -0.0000
vn -0.0000 -1.0000 -0.0000
vn 0.3192 0.1596 0.9342
vn 0.8165 0.4083 0.4082
vn 0.3201 0.1600 0.9338
vn 1.0000 0.0016 -0.0000
vn 0.6456 0.7415 0.1827
vn 0.3477 0.8538 0.3875
vn 0.3490 0.8536 0.3868
vn -0.8165 0.4082 0.4082
vn -0.3192 0.1596 0.9342
vn -0.3201 0.1600 0.9338
vn -0.4525 0.8917 -0.0000
vn -0.4472 0.8944 -0.0000
vn -0.4554 0.8903 -0.0000
vn 0.8165 0.4083 -0.4082
vn 0.3192 0.1596 -0.9342
vn 0.3201 0.1600 -0.9338
vn -1.0000 0.0016 -0.0000
vn -0.0000 0.4524 0.8918
vn -0.0000 0.4907 0.8713
vn 0.4525 0.8918 -0.0000
vn 0.4472 0.8944 -0.0000
vn 0.4554 0.8903 -0.0000
vn -0.3191 0.1596 -0.9342
vn -0.3201 0.1600 -0.9338
vn -0.8165 0.4082 -0.4083
vn -0.0000 -0.5207 0.8537
vn -0.3477 0.8538 0.3875
vn -0.6455 0.7415 0.1827
vn -0.3490 0.8536 0.3868
vn -0.0000 0.5369 -0.8437
vn -0.0000 -0.4553 -0.8903
vn -0.0000 -0.4903 -0.8715
vn -0.4472 -0.8944 -0.0000
vn 0.4472 -0.8944 -0.0000
vn -0.0000 -0.5883 -0.8086
vn -0.0000 -0.4490 -0.8935
vn -0.0000 0.5747 0.8184
vn -0.0000 0.4441 0.8960
vn -0.0000 0.6670 0.7451
vn -0.0000 -0.6886 -0.7252
vt 0.667969 0.919922
vt 0.667969 0.757812
vt 0.750000 0.675781
vt 0.624953 0.936127
vt 0.506466 0.936127
vt 0.500000 0.675781
vt 0.750000 0.880859
vt 0.500000 0.919922
vt 0.750000 0.837891
vt 0.500000 0.675781
vt 0.667969 0.757812
vt 0.750000 0.919922
vt 0.500000 0.757812
vt 0.667969 0.675781
vt 0.547970 0.936127
vt 0.500000 0.675781
vt 0.667969 0.880859
vt 0.667969 0.675781
vt 0.667969 0.837891
vt 0.500000 0.757812
vt 0.750000 0.837891
vt 0.624953 0.936127
vt 0.666459 0.936127
vt 0.750000 0.880859
vt 0.500000 0.675781
vt 0.667969 0.919922
vt 0.500000 0.675781
vt 0.667969 0.837891
vt 0.500000 0.837891
vt 0.750000 0.919922
vt 0.667969 0.757812
vt 0.667969 0.837891
vt 0.500000 0.675781
vt 0.547970 0.936127
vt 0.667969 0.880859
vt 0.750000 0.837891
vt 0.667969 0.675781
vt 0.500000 0.757812
vt 0.500000 0.675781
vt 0.750000 0.908203
vt 0.500000 0.675781
vt 0.667969 0.908203
vt 0.500000 0.675781
vt 0.750000 0.908203
vt 0.500000 0.675781
vt 0.667969 0.908203
vt 0.500000 0.990234
vt 0.500000 1.000000
vt 0.500000 0.675781
vt 0.500000 0.675781
vt 0.667969 0.990234
vt 0.667969 1.000000
vt 0.500000 0.675781
vt 0.738281 0.919922
vt 0.500000 0.675781
vt 0.679688 0.919922
vt 0.500000 0.675781
vt 0.679688 0.919922
vt 0.500000 0.675781
vt 0.738281 0.919922
vt 0.500000 0.675781
vt 0.509766 1.000000
vt 0.500000 0.675781
vt 0.658203 1.000000
vt 0.500000 0.675781
vt 0.667969 0.880859
vt 0.547970 0.937045
vt 0.679688 0.919922
vt 0.500000 0.675781
vt 0.500000 0.675781
vt 0.667969 0.908203
vt 0.750000 0.908203
vt 0.500000 0.675781
vt 0.738281 0.919922
vt 0.500000 0.675781
vt 0.624953 0.937045
vt 0.506466 0.937045
vt 0.750000 0.880859
vt 0.500000 0.675781
vt 0.500000 0.919922
vt 0.750000 0.880859
vt 0.624953 0.937045
vt 0.666459 0.937045
vt 0.500000 0.675781
vt 0.667969 0.919922
vt 0.547970 0.937045
vt 0.667969 0.880859
vt 0.500000 0.675781
vt 0.738281 0.919922
vt 0.500000 0.675781
vt 0.750000 0.908203
vt 0.500000 0.675781
vt 0.667969 0.908203
vt 0.500000 0.675781
vt 0.679688 0.919922
vt 0.500000 0.675781
vt 0.509766 1.000000
vt 0.500000 0.675781
vt 0.500000 0.675781
vt 0.667969 1.000000
vt 0.500000 0.990234
vt 0.500000 1.000000
vt 0.667969 0.990234
vt 0.500000 0.675781
vt 0.658203 1.000000
vt 0.500000 0.675781
vt 0.500000 0.675781
vt 0.500000 0.958984
vt 0.667969 0.958984
vt 0.500000 0.675781
vt 0.500000 0.675781
vt 0.500000 0.958984
vt 0.667969 0.958984
vt 0.500000 0.675781
vt 0.500000 0.939453
vt 0.500000 0.675781
vt 0.500000 0.939453
vt 0.500000 0.675781
vt 0.500000 0.675781
vt 0.667969 0.939453
vt 0.500000 0.675781
vt 0.667969 0.939453
vt 0.667969 0.980469
vt 0.500000 0.675781
vt 0.667969 0.980469
vt 0.500000 0.675781
vt 0.500000 0.675781
vt 0.500000 0.980469
vt 0.500000 0.675781
vt 0.500000 0.980469
s 1
usemtl ammo_mp_1
f 4/19/1 2/9/1 3/12/1 1/1/1
f 6/27/2 4/18/2 1/2/2 5/20/2
f 6/28/3 5/26/3 7/30/3 8/36/3
f 2/10/4 8/37/4 7/31/4 3/13/4
f 3/14/5 7/32/5 5/21/5 1/3/5
f 4/19/6 6/29/6 8/38/6 2/11/6
f 10/41/7 16/55/8 22/69/8 23/70/9
f 3/15/10 1/4/10 26/76/10 28/86/10
f 14/50/11 20/63/12 33/98/13 34/99/11
f 45/124/3 14/50/3 34/99/3 46/126/3
f 17/57/14 12/45/15 31/94/16 32/96/14
f 7/33/4 10/41/7 23/70/9 21/65/4
f 24/72/17 23/71/17 22/68/18 25/74/18
f 27/81/19 21/66/19 23/71/17 24/72/17
f 15/53/20 9/39/21 24/73/22 25/75/20
f 9/39/21 5/25/2 27/84/2 24/73/22
f 16/55/8 15/53/20 25/75/20 22/69/8
f 5/22/23 7/34/23 21/67/23 27/82/23
f 48/130/24 46/125/24 34/100/25 35/102/25
f 1/5/4 5/23/4 27/83/4 26/77/4
f 41/116/1 1/6/1 26/79/1 42/118/1
f 31/93/26 30/91/26 29/89/27 32/95/27
f 28/87/28 26/78/28 30/91/26 31/93/26
f 1/6/2 11/43/29 30/92/30 26/79/2
f 11/43/29 18/59/31 29/90/31 30/92/30
f 18/59/31 17/57/14 32/96/14 29/90/31
f 12/45/15 3/16/4 28/88/4 31/94/16
f 35/103/32 34/101/32 33/97/32 36/105/32
f 19/61/33 13/49/34 35/104/34 36/106/35
f 20/63/12 19/61/33 36/106/35 33/98/13
f 20/64/36 14/51/36 13/47/36 19/62/36
f 47/128/37 13/48/38 14/52/38 45/123/37
f 3/17/39 12/46/39 17/58/39 18/60/39 11/44/39 1/7/39
f 5/24/40 9/40/40 15/54/40 16/56/40 10/42/40 7/35/40
f 41/115/41 37/108/42 38/109/42 43/120/41
f 47/127/1 37/107/1 39/111/1 48/129/1
f 42/117/43 44/122/43 40/113/44 39/112/44
f 43/119/3 38/110/3 40/114/3 44/121/3
f 5/25/3 43/119/3 44/121/3 27/84/3
f 26/80/45 27/85/45 44/122/43 42/117/43
f 1/8/46 41/115/41 43/120/41 5/26/46
f 37/107/1 41/116/1 42/118/1 39/111/1
f 13/49/1 47/127/1 48/129/1 35/104/1
f 37/108/42 47/128/37 45/123/37 38/109/42
f 39/112/44 40/113/44 46/125/24 48/130/24
f 38/110/3 45/124/3 46/126/3 40/114/3
