# Blender 3.4.0
# www.blender.org
mtllib battery_mp_1_1.mtl
o battery_mp_1_1
v 0.045503 0.006715 -0.006515
v 0.045503 0.006715 0.006515
v -0.045503 0.018000 -0.013031
v -0.045503 0.011485 -0.011285
v -0.045503 0.006715 -0.006515
v -0.045503 0.006715 0.006515
v -0.045503 0.011485 0.011285
v -0.045503 0.024515 0.011285
v -0.045503 0.029285 0.006515
v -0.045503 0.031031 0.000000
v -0.045503 0.029285 -0.006515
v -0.045503 0.024515 -0.011285
v -0.045504 0.009000 -0.015588
v -0.045504 0.002412 -0.009000
v -0.045504 0.000000 -0.000000
v -0.045504 0.002412 0.009000
v -0.045504 0.009000 0.015588
v -0.045504 0.027000 0.015588
v -0.045504 0.033588 0.009000
v -0.045504 0.036000 0.000000
v -0.045504 0.033588 -0.009000
v -0.045504 0.027000 -0.015588
v -0.047997 0.018000 -0.010046
v -0.047997 0.012977 -0.008700
v -0.047997 0.009300 -0.005023
v -0.047997 0.007954 0.000000
v -0.047997 0.009300 0.005023
v -0.047997 0.012977 0.008700
v -0.047997 0.018000 0.010046
v -0.047997 0.023023 0.008700
v -0.047997 0.026700 0.005023
v -0.047997 0.028046 0.000000
v -0.047997 0.026700 -0.005023
v -0.047997 0.023023 -0.008700
v 0.048999 0.018000 -0.005266
v 0.048999 0.013439 -0.002633
v 0.048999 0.013439 0.002633
v 0.048999 0.018000 0.005266
v 0.048999 0.022561 0.002633
v 0.048999 0.022561 -0.002633
v 0.045500 0.018000 -0.006819
v 0.045500 0.012095 -0.003410
v 0.045500 0.012095 0.003410
v 0.045500 0.018000 0.006819
v 0.045500 0.023905 0.003410
v 0.045500 0.023905 -0.003410
v 0.045500 0.018000 -0.013031
v 0.045500 0.011485 -0.011285
v -0.045500 0.004969 0.000000
v 0.045500 0.004969 0.000000
v 0.045500 0.011485 0.011285
v -0.045500 0.018000 0.013031
v 0.045500 0.018000 0.013031
v 0.045500 0.024515 0.011285
v 0.045500 0.029285 0.006515
v 0.045500 0.031031 0.000000
v 0.045500 0.029285 -0.006515
v 0.045500 0.024515 -0.011285
v 0.045500 0.009000 -0.015588
v 0.045500 0.018000 -0.018000
v 0.045500 0.002412 -0.009000
v 0.045500 0.000000 0.000000
v 0.045500 0.002412 0.009000
v 0.045500 0.009000 0.015588
v 0.045500 0.018000 0.018000
v 0.045500 0.027000 0.015588
v 0.045500 0.033588 0.009000
v 0.045500 0.036000 0.000000
v 0.045500 0.033588 -0.009000
v 0.045500 0.027000 -0.015588
v -0.045500 0.018000 -0.018000
v -0.045500 0.018000 0.018000
v -0.047000 0.010242 -0.013437
v -0.047000 0.018000 -0.015515
v -0.047000 0.025758 -0.013437
v -0.047000 0.004563 -0.007758
v -0.047000 0.002485 0.000000
v -0.047000 0.004563 0.007758
v -0.047000 0.010242 0.013437
v -0.047000 0.018000 0.015515
v -0.047000 0.025758 0.013437
v -0.047000 0.031437 0.007758
v -0.047000 0.033515 0.000000
v -0.047000 0.031437 -0.007758
v 0.047000 0.018000 -0.015515
v 0.047000 0.010242 -0.013437
v 0.047000 0.025758 -0.013437
v 0.047000 0.004563 -0.007758
v 0.047000 0.002485 0.000000
v 0.047000 0.004563 0.007758
v 0.047000 0.010242 0.013437
v 0.047000 0.018000 0.015515
v 0.047000 0.025758 0.013437
v 0.047000 0.031437 0.007758
v 0.047000 0.033515 0.000000
v 0.047000 0.031437 -0.007758
vn -0.0000 -0.5000 -0.8660
vn -0.0000 -0.8660 -0.5000
vn -0.0000 0.5000 -0.8660
vn -0.0000 -0.0000 -1.0000
vn -0.0000 -1.0000 -0.0000
vn -0.0000 -0.8660 0.5000
vn -0.0000 -0.5000 0.8660
vn -0.0000 -0.0000 1.0000
vn -0.0000 0.5000 0.8660
vn -0.0000 0.8660 0.5000
vn -0.0000 1.0000 -0.0000
vn -0.0000 0.8660 -0.5000
vn -0.8564 -0.2582 -0.4471
vn -0.8563 -0.0000 -0.5164
vn 0.8561 -0.4476 0.2584
vn 0.8561 -0.5168 -0.0000
vn 0.8561 -0.0000 0.5168
vn 0.8562 0.2583 0.4474
vn -0.8565 -0.4469 -0.2580
vn -0.8568 -0.4466 -0.2579
vn -0.8568 -0.5157 -0.0000
vn -0.8564 0.4471 -0.2582
vn -0.8563 0.5164 -0.0000
vn -0.8565 -0.2580 0.4469
vn -0.8565 -0.4469 0.2580
vn 0.8561 0.2584 0.4476
vn -0.8565 -0.0000 0.5161
vn -0.8565 -0.5161 -0.0000
vn -0.8564 0.2582 -0.4471
vn 0.8561 -0.4476 -0.2584
vn 0.8561 -0.2584 -0.4476
vn 0.4056 0.7916 0.4570
vn 0.4056 0.7916 -0.4570
vn 0.4056 -0.7916 -0.4570
vn 0.4056 -0.7916 0.4570
vn 0.4056 -0.0000 0.9140
vn 1.0000 0.0002 -0.0001
vn 1.0000 0.0002 -0.0000
vn 1.0000 0.0002 0.0001
vn 0.4056 -0.0000 -0.9140
vn 1.0000 -0.0000 -0.0000
vn 1.0000 0.0004 -0.0002
vn 0.8561 -0.2584 0.4476
vn -0.7673 0.6413 -0.0000
vn -0.7673 0.5554 -0.3207
vn 0.8563 0.4473 -0.2582
vn 0.8562 0.2583 -0.4474
vn 0.8561 0.4476 0.2584
vn 0.8561 -0.0000 -0.5168
vn 0.8561 0.2584 -0.4476
vn -0.8564 0.4471 0.2582
vn -0.8565 0.2580 0.4469
vn 0.8561 0.5168 -0.0000
vn 0.8561 0.4476 -0.2584
vn -0.7672 -0.5555 0.3206
vn -0.7672 -0.3206 0.5555
vn -0.7671 -0.0000 0.6416
vn -0.7672 0.3206 0.5555
vn -0.7673 0.5554 0.3207
vn -0.7673 0.3207 -0.5554
vn -0.7673 -0.0000 -0.6413
vn -0.7671 -0.6416 -0.0000
vn -0.7672 -0.5555 -0.3206
vn -1.0000 -0.0000 -0.0000
vn -0.7673 -0.3207 -0.5554
vn -0.8564 -0.0000 -0.5163
vn -0.8566 -0.2578 -0.4469
vn -0.8568 -0.4466 0.2579
vn -0.8566 0.2578 -0.4469
vn -0.8568 0.4466 0.2579
vn -0.8568 0.5157 -0.0000
vn -0.8566 -0.2578 0.4469
vn -0.8566 0.2578 0.4469
vn -0.8568 0.4466 -0.2579
vn -0.8564 -0.0000 0.5163
vn 1.0000 0.0004 0.0002
vn 0.8563 0.4473 0.2582
vn 0.8563 0.5164 -0.0000
vt 0.422191 0.627522
vt 0.444137 0.661462
vt 0.407722 0.627522
vt 0.444137 0.682051
vt 0.516121 0.640064
vt 0.516121 0.640665
vt 0.414192 0.716206
vt 0.518888 0.630342
vt 0.518587 0.630863
vt 0.404192 0.718885
vt 0.525623 0.623606
vt 0.526144 0.623305
vt 0.396872 0.726205
vt 0.396872 0.746204
vt 0.545148 0.623305
vt 0.545668 0.623606
vt 0.404192 0.753524
vt 0.552705 0.630863
vt 0.552404 0.630342
vt 0.424191 0.753524
vt 0.552705 0.649867
vt 0.552404 0.650387
vt 0.431511 0.746204
vt 0.545148 0.657424
vt 0.545668 0.657123
vt 0.434190 0.736204
vt 0.535946 0.659889
vt 0.535345 0.659889
vt 0.431511 0.726205
vt 0.525623 0.657123
vt 0.526144 0.657424
vt 0.424191 0.718885
vt 0.518587 0.649867
vt 0.518888 0.650388
vt 0.421875 0.703125
vt 0.414062 0.703125
vt 0.400379 0.712280
vt 0.414062 0.703125
vt 0.390267 0.722392
vt 0.406250 0.703125
vt 0.386566 0.736204
vt 0.398438 0.703125
vt 0.421875 0.703125
vt 0.390267 0.750017
vt 0.414062 0.703125
vt 0.437500 0.703125
vt 0.400379 0.760128
vt 0.421875 0.703125
vt 0.390625 0.703125
vt 0.428004 0.760128
vt 0.398438 0.703125
vt 0.476562 0.703125
vt 0.438116 0.750017
vt 0.488281 0.703125
vt 0.441817 0.736204
vt 0.500000 0.703125
vt 0.390625 0.703125
vt 0.438116 0.722392
vt 0.398438 0.703125
vt 0.428004 0.712280
vt 0.520499 0.640158
vt 0.520499 0.640571
vt 0.519728 0.640364
vt 0.522632 0.632612
vt 0.522425 0.632970
vt 0.521861 0.632406
vt 0.527893 0.627351
vt 0.528252 0.627144
vt 0.527687 0.626579
vt 0.535853 0.625219
vt 0.535439 0.625219
vt 0.535646 0.624446
vt 0.543040 0.627143
vt 0.543398 0.627351
vt 0.543604 0.626579
vt 0.548866 0.632970
vt 0.548659 0.632612
vt 0.549431 0.632406
vt 0.550793 0.640571
vt 0.550793 0.640158
vt 0.551565 0.640365
vt 0.548868 0.647759
vt 0.548661 0.648117
vt 0.549433 0.648324
vt 0.543040 0.653586
vt 0.543398 0.653379
vt 0.543605 0.654150
vt 0.535853 0.655512
vt 0.535439 0.655512
vt 0.535646 0.656283
vt 0.527894 0.653379
vt 0.528252 0.653586
vt 0.527687 0.654150
vt 0.522425 0.647759
vt 0.522632 0.648117
vt 0.521861 0.648324
vt 0.421063 0.639787
vt 0.421064 0.640318
vt 0.420804 0.640052
vt 0.417780 0.634631
vt 0.418240 0.634896
vt 0.417880 0.634988
vt 0.412133 0.634631
vt 0.411673 0.634896
vt 0.412033 0.634988
vt 0.408850 0.639787
vt 0.408850 0.640318
vt 0.409109 0.640052
vt 0.412133 0.645474
vt 0.411673 0.645208
vt 0.412033 0.645116
vt 0.417780 0.645474
vt 0.418240 0.645208
vt 0.417880 0.645116
vt 0.423082 0.639743
vt 0.422452 0.640230
vt 0.422529 0.640052
vt 0.423082 0.640362
vt 0.422452 0.639874
vt 0.418752 0.632860
vt 0.418550 0.633471
vt 0.419287 0.633170
vt 0.418742 0.633495
vt 0.418859 0.633650
vt 0.411162 0.632860
vt 0.410626 0.633170
vt 0.411363 0.633471
vt 0.411054 0.633650
vt 0.411172 0.633495
vt 0.406831 0.639743
vt 0.406831 0.640362
vt 0.407461 0.640230
vt 0.407461 0.639874
vt 0.407385 0.640052
vt 0.411162 0.647244
vt 0.410626 0.646935
vt 0.411055 0.646455
vt 0.411363 0.646633
vt 0.411172 0.646609
vt 0.418752 0.647244
vt 0.418859 0.646455
vt 0.418550 0.646633
vt 0.418742 0.646609
vt 0.419287 0.646935
vt 0.429426 0.640052
vt 0.461968 0.651168
vt 0.427487 0.632818
vt 0.451673 0.653926
vt 0.535947 0.620840
vt 0.535345 0.620840
vt 0.394193 0.736204
vt 0.414957 0.625583
vt 0.441379 0.671757
vt 0.402427 0.632818
vt 0.451673 0.689587
vt 0.414192 0.756203
vt 0.555172 0.640665
vt 0.555172 0.640064
vt 0.400488 0.640052
vt 0.461968 0.692345
vt 0.402427 0.647287
vt 0.472262 0.689587
vt 0.407722 0.652582
vt 0.479798 0.682051
vt 0.414957 0.654521
vt 0.482556 0.671757
vt 0.422191 0.652582
vt 0.479798 0.661462
vt 0.427487 0.647287
vt 0.472262 0.653926
vt 0.421875 0.796875
vt 0.414062 0.796875
vt 0.447747 0.647127
vt 0.406250 0.796875
vt 0.461968 0.643316
vt 0.414062 0.796875
vt 0.437338 0.657537
vt 0.406250 0.796875
vt 0.433527 0.671757
vt 0.398438 0.796875
vt 0.421875 0.796875
vt 0.437338 0.685977
vt 0.414062 0.796875
vt 0.437500 0.796875
vt 0.447747 0.696387
vt 0.429688 0.796875
vt 0.461968 0.700197
vt 0.421875 0.796875
vt 0.390625 0.796875
vt 0.476188 0.696387
vt 0.398438 0.796875
vt 0.476562 0.796875
vt 0.486598 0.685977
vt 0.488281 0.796875
vt 0.490408 0.671757
vt 0.500000 0.796875
vt 0.390625 0.796875
vt 0.486598 0.657537
vt 0.398438 0.796875
vt 0.476188 0.647127
vt 0.406250 0.703125
vt 0.414192 0.708579
vt 0.429688 0.703125
vt 0.414192 0.763829
vt 0.402286 0.715583
vt 0.414192 0.712392
vt 0.426097 0.715583
vt 0.393570 0.724298
vt 0.390380 0.736204
vt 0.393570 0.748110
vt 0.402286 0.756826
vt 0.414192 0.760016
vt 0.426098 0.756826
vt 0.434813 0.748110
vt 0.438003 0.736204
vt 0.434813 0.724298
vt 0.461967 0.647242
vt 0.449710 0.650527
vt 0.474225 0.650526
vt 0.440737 0.659499
vt 0.437453 0.671757
vt 0.440737 0.684014
vt 0.449710 0.692987
vt 0.461967 0.696271
vt 0.474225 0.692987
vt 0.483198 0.684014
vt 0.486482 0.671757
vt 0.483198 0.659499
s 1
usemtl batteries_mp_1
f 13/35/1 59/171/1 61/176/2 14/38/2
f 22/59/3 70/199/3 60/174/4 71/201/4
f 15/40/5 62/178/5 63/180/6 16/42/6
f 16/43/6 63/181/6 64/183/7 17/45/7
f 17/46/7 64/184/7 65/186/8 72/203/8
f 72/203/8 65/186/8 66/188/9 18/48/9
f 18/49/9 66/189/9 67/191/10 19/51/10
f 19/52/10 67/192/10 68/194/11 20/54/11
f 20/54/11 68/194/11 69/196/12 21/56/12
f 21/57/12 69/197/12 70/199/3 22/59/3
f 8/20/13 52/156/14 80/212/14 81/213/13
f 14/38/2 61/176/2 62/178/5 15/40/5
f 63/182/15 62/179/16 89/221/16 90/222/15
f 47/146/17 48/148/18 86/218/18 85/217/17
f 9/23/19 8/20/13 81/213/13 82/214/19
f 14/39/20 15/41/21 77/209/21 76/208/20
f 6/14/22 49/151/23 77/209/23 78/210/22
f 12/32/24 11/29/25 84/216/25 75/207/24
f 66/190/26 65/187/17 92/224/17 93/225/26
f 3/7/27 12/32/24 75/207/24 74/206/27
f 10/26/28 9/23/19 82/214/19 83/215/28
f 52/156/14 7/17/29 79/211/29 80/212/14
f 71/201/4 60/174/4 59/172/1 13/36/1
f 61/177/30 59/173/31 86/218/31 88/220/30
f 11/29/25 10/26/28 83/215/28 84/216/25
f 39/109/32 40/112/33 46/140/33 45/135/32
f 36/100/34 37/103/35 43/125/35 42/120/34
f 37/104/35 38/106/36 44/130/36 43/126/35
f 38/107/36 39/110/32 45/136/32 44/131/36
f 43/127/37 50/152/38 42/121/39
f 41/115/40 35/97/40 36/101/34 42/122/34
f 45/137/41 54/161/41 44/132/41
f 46/143/41 58/169/41 57/167/41
f 41/116/41 58/169/41 46/141/41
f 43/129/37 51/154/38 2/3/42
f 37/105/41 39/111/41 38/108/41
f 64/185/43 63/182/15 90/222/15 91/223/43
f 10/27/44 11/30/45 33/91/45 32/88/44
f 2/4/46 51/155/47 91/223/47 90/222/46
f 67/193/48 66/190/26 93/225/26 94/226/48
f 7/17/29 6/14/22 78/210/22 79/211/29
f 60/175/49 70/200/50 87/219/50 85/217/49
f 5/13/51 4/10/52 73/205/52 76/208/51
f 68/195/53 67/193/48 94/226/48 95/227/53
f 65/187/17 64/185/43 91/223/43 92/224/17
f 62/179/16 61/177/30 88/220/30 89/221/16
f 69/198/54 68/195/53 95/227/53 96/228/54
f 6/15/55 7/18/56 28/76/56 27/73/55
f 7/19/56 52/157/57 29/79/57 28/77/56
f 30/82/58 8/21/58 9/24/59 31/85/59
f 32/89/44 31/86/59 9/25/59 10/28/44
f 11/31/45 12/33/60 34/94/60 33/92/45
f 23/61/61 34/95/60 12/34/60 3/5/61
f 26/70/62 25/67/63 5/11/63 49/149/62
f 23/63/64 29/81/64 30/84/64 34/96/64
f 49/150/62 6/16/55 27/74/55 26/71/62
f 23/62/61 3/6/61 4/8/65 24/64/65
f 5/12/63 25/68/63 24/65/65 4/9/65
f 41/117/41 48/147/38 47/145/41
f 43/128/37 44/133/41 51/154/38
f 45/138/41 46/142/41 56/165/41
f 30/83/58 29/80/57 52/158/57 8/22/58
f 71/202/66 13/37/67 73/205/67 74/206/66
f 15/41/21 16/44/68 78/210/68 77/209/21
f 22/60/69 71/202/66 74/206/66 75/207/69
f 19/53/70 20/55/71 83/215/71 82/214/70
f 16/44/68 17/47/72 79/211/72 78/210/68
f 18/50/73 19/53/70 82/214/70 81/213/73
f 21/58/74 22/60/69 75/207/69 84/216/74
f 20/55/71 21/58/74 84/216/74 83/215/71
f 4/10/52 3/7/27 74/206/27 73/205/52
f 13/37/67 14/39/20 76/208/20 73/205/67
f 72/204/75 18/50/73 81/213/73 80/212/75
f 17/47/72 72/204/75 80/212/75 79/211/72
f 49/151/23 5/13/51 76/208/51 77/209/23
f 58/169/41 41/117/41 47/145/41
f 56/165/41 46/143/41 57/167/41
f 50/152/38 43/129/37 2/3/42
f 48/147/38 42/123/39 1/1/76
f 50/152/38 1/1/76 42/123/39
f 51/154/38 44/134/41 53/159/41
f 54/161/41 45/139/41 55/163/41
f 54/161/41 53/159/41 44/134/41
f 56/165/41 55/163/41 45/139/41
f 40/113/33 35/98/40 41/118/40 46/144/33
f 41/119/41 42/124/39 48/147/38
f 56/166/16 57/168/15 96/228/15 95/227/16
f 1/2/77 50/153/78 89/221/78 88/220/77
f 70/200/50 69/198/54 96/228/54 87/219/50
f 55/164/30 56/166/16 95/227/16 94/226/30
f 58/170/43 47/146/17 85/217/17 87/219/43
f 54/162/31 55/164/30 94/226/30 93/225/31
f 57/168/15 58/170/43 87/219/43 96/228/15
f 51/155/47 53/160/49 92/224/49 91/223/47
f 48/148/18 1/2/77 88/220/77 86/218/18
f 53/160/49 54/162/31 93/225/31 92/224/49
f 50/153/78 2/4/46 90/222/46 89/221/78
f 59/173/31 60/175/49 85/217/49 86/218/31
f 40/114/41 39/111/41 37/105/41 36/102/41
f 35/99/41 40/114/41 36/102/41
f 34/96/64 30/84/64 31/87/64 33/93/64
f 33/93/64 31/87/64 32/90/64
f 29/81/64 23/63/64 24/66/64 28/78/64
f 28/78/64 24/66/64 25/69/64 27/75/64
f 27/75/64 25/69/64 26/72/64
