# Blender 3.4.0
# www.blender.org
mtllib cash_2.mtl
o cash_2
v -0.051322 0.000000 0.114048
v -0.051322 0.031363 0.114048
v -0.051322 0.000000 -0.114048
v -0.051322 0.031363 -0.114048
v 0.051744 0.000000 0.114048
v 0.051744 0.031363 0.114048
v 0.051744 0.000000 -0.114048
v 0.051744 0.031363 -0.114048
v 0.000422 0.000000 -0.114048
v 0.000422 0.031363 -0.114048
v 0.000422 0.000000 0.114048
v 0.000422 0.031363 0.114048
vn -1.0000 -0.0000 -0.0000
vn -0.0000 -0.0000 -1.0000
vn 1.0000 -0.0000 -0.0000
vn -0.0000 -0.0000 1.0000
vn -0.0000 -1.0000 -0.0000
vn -0.0000 1.0000 -0.0000
vt 0.500000 0.500000
vt 0.500000 0.789062
vt 0.500000 0.570312
vt 0.500000 1.000000
vt 1.000000 0.500000
vt 1.000000 0.789062
vt 0.500000 0.500000
vt 1.000000 0.570312
vt 1.000000 1.000000
vt 0.500000 0.570312
vt 0.500000 0.500000
vt 0.500000 0.585938
vt 1.000000 0.500000
vt 0.500000 0.570312
vt 0.500000 0.781250
vt 1.000000 0.570312
vt 1.000000 0.500000
vt 1.000000 0.585938
vt 1.000000 0.570312
vt 1.000000 0.781250
vt 0.875000 0.500000
vt 1.000000 0.679688
vt 0.625000 0.500000
vt 0.875000 0.570312
vt 1.000000 0.890625
vt 0.625000 0.570312
vt 0.625000 0.500000
vt 0.500000 0.679688
vt 0.875000 0.500000
vt 0.625000 0.570312
vt 0.500000 0.890625
vt 0.875000 0.570312
s 0
usemtl money_1
f 1/1/1 2/3/1 4/8/1 3/5/1
f 9/21/2 10/24/2 8/19/2 7/17/2
f 7/17/3 8/19/3 6/14/3 5/11/3
f 11/27/4 12/30/4 2/3/4 1/1/4
f 9/22/5 7/18/5 5/12/5 11/28/5
f 10/25/6 4/9/6 2/4/6 12/31/6
f 8/20/6 10/25/6 12/31/6 6/15/6
f 3/6/5 9/22/5 11/28/5 1/2/5
f 5/13/4 6/16/4 12/32/4 11/29/4
f 3/7/2 4/10/2 10/26/2 9/23/2
