# Blender 3.4.0
# www.blender.org
mtllib keycard_1.mtl
o keycard_1
v -0.068397 0.001800 0.042000
v 0.063597 0.001800 0.042000
v -0.068397 0.001800 -0.043200
v 0.063597 0.001800 -0.043200
v -0.068397 0.000000 -0.043200
v -0.068397 0.000000 0.042000
v 0.063597 0.000000 0.042000
v 0.063597 0.000000 -0.043200
vn -0.0000 -1.0000 -0.0000
vn 1.0000 -0.0000 -0.0000
vn 0.9239 -0.0000 -0.3827
vn 0.9239 -0.0001 -0.3827
vn -0.0000 1.0000 -0.0000
vn -0.3827 -0.0000 0.9239
vn -0.0000 -0.0000 1.0000
vn 0.3827 -0.0000 -0.9239
vn 0.3827 0.0001 -0.9239
vn -0.3827 -0.0000 -0.9239
vn -0.3827 -0.0001 -0.9239
vn -0.9239 -0.0000 -0.3827
vn -0.9239 -0.0000 0.3827
vt 0.445312 0.894531
vt 0.445312 0.785156
vt 0.468750 0.785156
vt 0.468750 0.785156
vt 0.605469 0.894531
vt 0.605469 0.785156
vt 0.445312 1.000000
vt 0.445312 0.785156
vt 0.585938 0.785156
vt 0.585938 0.785156
vt 0.605469 1.000000
vt 0.605469 0.785156
vt 0.445312 0.894531
vt 0.445312 0.781250
vt 0.585938 0.781250
vt 0.445312 0.789062
vt 0.445312 0.781250
vt 0.468750 0.781250
vt 0.605469 0.789062
vt 0.468750 0.781250
vt 0.605469 0.781250
vt 0.605469 0.894531
vt 0.585938 0.781250
vt 0.605469 0.781250
s 0
usemtl keys_mp_1
f 6/16/1 5/13/1 8/22/1 7/19/1
f 2/4/2 7/20/2 8/23/3 4/10/4
f 1/1/5 2/5/5 4/11/5 3/7/5
f 6/17/6 7/21/7 2/6/7 1/2/6
f 4/12/8 8/24/9 5/14/10 3/8/11
f 5/15/12 6/18/13 1/3/13 3/9/12
