# Blender 3.4.0
# www.blender.org
mtllib walkie_talkie_1.mtl
o walkie_talkie_1
v -0.030088 0.027500 -0.110403
v -0.035637 0.027500 -0.104535
v -0.040430 0.027500 -0.013623
v 0.039795 0.027500 -0.014358
v 0.033205 0.027500 -0.104535
v 0.027732 0.027500 -0.110403
v -0.030088 0.030000 -0.110403
v -0.035637 0.030000 -0.104535
v -0.040430 0.030000 -0.013623
v 0.039795 0.030000 -0.014358
v 0.033205 0.030000 -0.104535
v 0.027732 0.030000 -0.110403
v -0.038149 0.030000 -0.116842
v -0.043750 0.030000 -0.111122
v -0.048623 0.030000 -0.013623
v -0.048936 0.030000 0.122210
v -0.043717 0.030000 0.126046
v 0.040875 0.030000 0.126782
v 0.044258 0.030000 0.123545
v 0.047066 0.030000 -0.014358
v 0.041072 0.030000 -0.111053
v 0.036035 0.030000 -0.116842
v -0.038149 -0.000000 -0.116842
v -0.048936 -0.000000 0.122210
v -0.043717 -0.000000 0.126046
v 0.040875 -0.000000 0.126782
v 0.044258 -0.000000 0.123545
v 0.036035 -0.000000 -0.116842
v 0.047066 -0.000000 -0.014358
v -0.043750 -0.000000 -0.111122
v 0.041072 -0.000000 -0.111053
v -0.028179 0.011577 -0.123212
v -0.035205 0.011577 -0.122626
v -0.028179 0.018423 -0.123212
v -0.035205 0.018423 -0.122626
v -0.026608 0.010000 -0.116842
v -0.036776 0.010000 -0.116842
v -0.026608 0.020000 -0.116842
v -0.036776 0.020000 -0.116842
v -0.036063 0.011577 -0.217813
v -0.043088 0.011577 -0.217228
v -0.036063 0.018423 -0.217813
v -0.043088 0.018423 -0.217228
v -0.035488 0.010208 -0.223896
v -0.045324 0.010208 -0.223076
v -0.035488 0.019792 -0.223896
v -0.045324 0.019792 -0.223076
v -0.037628 0.011645 -0.230086
v -0.044513 0.011645 -0.229512
v -0.037628 0.018355 -0.230086
v -0.044513 0.018355 -0.229512
v 0.011965 0.030000 -0.002691
v 0.006176 0.029993 -0.002691
v 0.006423 0.037967 -0.001646
v -0.000465 0.029993 0.000374
v 0.000202 0.037967 0.001224
v -0.004637 0.029993 0.006163
v -0.003631 0.037967 0.006548
v -0.005403 0.029993 0.012548
v -0.004338 0.037967 0.012401
v -0.003189 0.029993 0.018763
v -0.002247 0.037967 0.018260
v 0.001068 0.029993 0.023275
v 0.001593 0.037967 0.022339
v 0.007538 0.029993 0.025659
v 0.007734 0.037967 0.024603
v 0.014093 0.029993 0.025318
v 0.013797 0.037967 0.024286
v 0.019798 0.029993 0.021658
v 0.019023 0.037967 0.020924
v 0.023714 0.029993 0.015358
v 0.022683 0.037967 0.015046
v 0.024140 0.029993 0.009313
v 0.023075 0.037967 0.009462
v 0.021756 0.029993 0.003183
v 0.020857 0.037967 0.003769
v 0.017158 0.029993 -0.000904
v 0.016644 0.037967 0.000035
v 0.011757 0.037967 -0.001646
v -0.031899 0.030000 -0.008244
v -0.034113 0.030000 -0.006541
v -0.034027 0.030000 0.018830
v -0.032571 0.030000 0.020559
v -0.015869 0.030000 0.020559
v -0.014588 0.030000 0.019229
v -0.014586 0.030000 -0.006606
v -0.015777 0.030000 -0.008248
v -0.031899 0.033000 -0.008244
v -0.034113 0.033000 -0.006541
v -0.034027 0.033000 0.018830
v -0.032571 0.033000 0.020559
v -0.015869 0.033000 0.020559
v -0.014588 0.033000 0.019229
v -0.014586 0.033000 -0.006606
v -0.015777 0.033000 -0.008248
v -0.045500 0.010000 -0.066211
v -0.047081 0.010000 -0.001598
v -0.053816 0.010000 -0.061011
v -0.053816 0.010000 -0.006446
v -0.045500 0.020000 -0.066211
v -0.047081 0.020000 -0.001598
v -0.053816 0.020000 -0.061011
v -0.053816 0.020000 -0.006446
v 0.025087 0.030000 0.033829
v 0.018467 0.030000 0.035423
v 0.015402 0.030000 0.038488
v 0.013563 0.030000 0.044986
v 0.013563 0.030000 0.054426
v 0.014176 0.030000 0.057368
v 0.018099 0.030000 0.062762
v 0.024965 0.030000 0.064601
v 0.031708 0.030000 0.062517
v 0.035263 0.030000 0.056142
v 0.035385 0.030000 0.044127
v 0.034405 0.030000 0.040572
v 0.030236 0.030000 0.035546
v 0.025087 0.032500 0.033829
v 0.018467 0.032500 0.035423
v 0.015402 0.032500 0.038488
v 0.013563 0.032500 0.044986
v 0.013563 0.032500 0.054426
v 0.014176 0.032500 0.057368
v 0.018099 0.032500 0.062762
v 0.024965 0.032500 0.064601
v 0.031708 0.032500 0.062517
v 0.035263 0.032500 0.056142
v 0.035385 0.032500 0.044127
v 0.034405 0.032500 0.040572
v 0.030236 0.032500 0.035546
v 0.016260 0.032500 0.044618
v 0.019373 0.032500 0.059980
v 0.025162 0.032500 0.062279
v 0.028397 0.032500 0.037930
v 0.024965 0.032500 0.036894
v 0.024914 0.036388 0.037719
v 0.021409 0.032500 0.037507
v 0.021702 0.036388 0.038273
v 0.018467 0.032500 0.039346
v 0.019052 0.036388 0.039929
v 0.017065 0.036388 0.044703
v 0.016393 0.032500 0.054531
v 0.017195 0.036388 0.054363
v 0.019942 0.036388 0.059387
v 0.025160 0.036388 0.061453
v 0.030611 0.032500 0.059895
v 0.029999 0.036388 0.059346
v 0.032739 0.032500 0.054872
v 0.031937 0.036388 0.054774
v 0.032910 0.032500 0.044315
v 0.032103 0.036388 0.044468
v 0.031888 0.032500 0.041846
v 0.031178 0.036388 0.042234
v 0.027989 0.036388 0.038646
v -0.046149 -0.000000 -0.013623
vn -0.7949 0.6054 -0.0398
vn -0.7949 0.6054 -0.0397
vn -0.0000 1.0000 -0.0000
vn 0.9981 -0.0000 -0.0619
vn 0.7940 0.6059 -0.0492
vn -0.0000 -1.0000 -0.0000
vn -0.0000 -0.0000 -1.0000
vn -0.7313 -0.0000 0.6821
vn 0.7544 -0.0000 -0.6564
vn -0.0087 -0.0000 1.0000
vn 0.9986 -0.0000 0.0526
vn -0.0092 -0.0000 -1.0000
vn 0.7266 -0.0000 0.6871
vn -0.7958 0.6056 -0.0019
vn 0.7962 0.6048 0.0162
vn 0.7962 0.6048 0.0161
vn -0.9990 -0.0435 -0.0114
vn -0.0000 -0.0000 1.0000
vn -0.9973 -0.0000 0.0729
vn 0.0006 0.5826 -0.8127
vn -0.5923 -0.0000 0.8057
vn 0.6912 -0.0000 0.7226
vn 0.6405 0.5308 -0.5550
vn 0.6405 0.5308 -0.5549
vn -0.9965 -0.0000 0.0830
vn -0.0086 -0.9679 -0.2512
vn -0.0086 0.9679 -0.2512
vn 0.9709 -0.0000 -0.2395
vn -0.9650 -0.0000 -0.2622
vn 0.0184 0.9750 0.2212
vn 0.9965 -0.0000 -0.0830
vn 0.9451 -0.0000 -0.3267
vn 0.9956 -0.0000 0.0941
vn 0.0184 -0.9750 0.2212
vn -0.9341 -0.0000 0.3571
vn -0.0830 -0.0000 -0.9965
vn -0.0183 -0.9753 -0.2202
vn -0.9922 -0.0000 -0.1250
vn -0.0183 0.9753 -0.2202
vn -0.2129 0.1335 -0.9679
vn -0.6299 0.1344 -0.7649
vn -0.6308 0.1344 -0.7642
vn -0.2123 0.1335 -0.9680
vn -0.9233 0.1336 -0.3601
vn -0.9232 0.1336 -0.3603
vn -0.9848 0.1338 0.1106
vn -0.9849 0.1338 0.1096
vn -0.8460 0.1322 0.5165
vn -0.8450 0.1322 0.5182
vn -0.5454 0.1332 0.8275
vn -0.5477 0.1332 0.8260
vn -0.1492 0.1335 0.9798
vn -0.1480 0.1335 0.9799
vn 0.3032 0.1336 0.9435
vn 0.3045 0.1336 0.9431
vn 0.7062 0.1322 0.6955
vn 0.9428 0.1341 0.3051
vn 0.9426 0.1341 0.3059
vn 0.7057 0.1322 0.6960
vn 0.9798 0.1337 -0.1484
vn 0.9798 0.1337 -0.1488
vn 0.8138 0.1335 -0.5656
vn 0.8131 0.1335 -0.5666
vn 0.4997 0.1328 -0.8560
vn 0.5004 0.1328 -0.8556
vn 0.1639 0.1325 -0.9775
vn 0.1631 0.1325 -0.9777
vn 0.7203 -0.0000 0.6936
vn -1.0000 -0.0000 0.0034
vn 1.0000 -0.0000 0.0001
vn 0.8096 -0.0000 -0.5870
vn -0.7651 -0.0000 0.6439
vn -0.0003 -0.0000 -1.0000
vn -0.6097 -0.0000 -0.7926
vn -1.0000 -0.0000 -0.0000
vn -0.5842 -0.0000 0.8116
vn -0.5301 -0.0000 -0.8479
vn 0.9997 -0.0000 0.0245
vn 0.9916 -0.0000 -0.1291
vn 0.8866 -0.0000 -0.4624
vn 0.6295 -0.0000 0.7770
vn 0.9665 -0.0000 0.2566
vn 0.0190 -0.0000 0.9998
vn -0.9947 -0.0000 0.1025
vn -0.9143 -0.0000 0.4051
vn -0.9905 -0.0000 -0.1375
vn -0.5662 -0.0000 0.8243
vn -0.4889 -0.0000 -0.8723
vn -0.8625 -0.0000 -0.5061
vn 0.6970 0.2072 0.6865
vn 0.9584 0.2029 0.2007
vn 0.9576 0.2028 0.2048
vn 0.6937 0.2072 0.6898
vn -0.9468 0.2059 0.2472
vn -0.6493 0.2071 0.7318
vn -0.6465 0.2070 0.7342
vn -0.9460 0.2059 0.2502
vn 0.5647 -0.0000 -0.8253
vn 0.0427 -0.0000 -0.9991
vn 0.0597 0.2078 -0.9763
vn -0.3490 0.2062 -0.9142
vn -0.7438 0.2078 -0.6353
vn -0.7479 0.2077 -0.6305
vn -0.9619 0.2025 -0.1838
vn -0.9611 0.2024 -0.1882
vn 0.0160 0.2067 0.9783
vn 0.0174 0.2067 0.9783
vn 0.9612 0.2066 -0.1830
vn 0.8303 0.2029 -0.5190
vn 0.8290 0.2029 -0.5211
vn 0.5249 0.2077 -0.8254
vn 0.5279 0.2076 -0.8235
vn -0.9984 -0.0434 -0.0372
vn 0.9998 -0.0000 0.0204
vn -0.7145 -0.0000 -0.6997
vn -0.5788 0.5722 -0.5811
vn -0.5787 0.5722 -0.5812
vt 0.137635 0.867848
vt 0.112371 0.848382
vt 0.090560 0.546798
vt 0.090548 0.546589
vt 0.455817 0.549238
vt 0.429651 0.851813
vt 0.425818 0.848382
vt 0.426384 0.848412
vt 0.401787 0.868981
vt 0.400893 0.867849
vt 0.400712 0.869531
vt 0.137635 0.867848
vt 0.112371 0.848382
vt 0.090548 0.546589
vt 0.090545 0.546799
vt 0.455817 0.549238
vt 0.429657 0.851810
vt 0.426384 0.848412
vt 0.426114 0.848397
vt 0.402031 0.868830
vt 0.400637 0.869530
vt 0.401624 0.868618
vt 0.921511 0.638092
vt 0.100928 0.889376
vt 0.688129 0.910110
vt 0.095224 0.891814
vt 0.688129 0.890516
vt 0.075430 0.870233
vt 0.055321 0.546731
vt 0.053364 0.546799
vt 0.688129 0.556527
vt 0.688129 0.091225
vt 0.972898 0.638092
vt 0.051816 0.096200
vt 0.075586 0.083473
vt 0.948034 0.638092
vt 0.460753 0.081038
vt 0.545068 0.638092
vt 0.476138 0.091772
vt 0.476336 0.091691
vt 0.528950 0.638092
vt 0.688129 0.086649
vt 0.486380 0.548344
vt 0.489987 0.548343
vt 0.688129 0.559046
vt 0.462208 0.870025
vt 0.688129 0.890278
vt 0.465493 0.871205
vt 0.568120 0.638092
vt 0.688129 0.910110
vt 0.438476 0.895606
vt 0.444404 0.896278
vt 0.921511 0.735503
vt 0.921511 0.910110
vt 0.823590 0.910110
vt 0.823590 0.091225
vt 0.972898 0.735503
vt 0.972899 0.091225
vt 0.948034 0.078082
vt 0.948034 0.735503
vt 0.545068 0.075562
vt 0.545068 0.735503
vt 0.528950 0.735503
vt 0.528950 0.086649
vt 0.823590 0.086649
vt 0.568120 0.735503
vt 0.568120 0.910110
vt 0.823590 0.910110
vt 0.515574 0.559046
vt 0.823590 0.559046
vt 0.948194 0.890516
vt 0.823590 0.890516
vt 0.823590 0.890278
vt 0.544127 0.890278
vt 0.434802 0.936252
vt 0.429024 0.983747
vt 0.460274 0.983747
vt 0.466052 0.936252
vt 0.463052 0.983922
vt 0.434663 0.960403
vt 0.431802 0.983922
vt 0.465913 0.960403
vt 0.434802 0.936252
vt 0.431866 0.960384
vt 0.466052 0.936252
vt 0.463116 0.960384
vt 0.465894 0.960559
vt 0.434663 0.960403
vt 0.434644 0.960559
vt 0.465913 0.960403
vt 0.465682 0.932791
vt 0.458596 0.991030
vt 0.461460 0.967492
vt 0.458596 0.991030
vt 0.465682 0.932791
vt 0.462748 0.956904
vt 0.461460 0.967492
vt 0.462748 0.956904
vt 0.011337 0.955503
vt 0.013842 0.934911
vt 0.089462 0.971128
vt 0.091967 0.950536
vt 0.014115 0.955678
vt 0.013703 0.959062
vt 0.091828 0.974687
vt 0.092240 0.971303
vt 0.091967 0.950536
vt 0.013842 0.934911
vt 0.014179 0.932140
vt 0.092304 0.947765
vt 0.016957 0.932315
vt 0.091828 0.974687
vt 0.013703 0.959062
vt 0.095082 0.947940
vt 0.060030 0.973984
vt 0.063342 0.946760
vt 0.063148 0.980570
vt 0.063920 0.974229
vt 0.064009 0.941276
vt 0.063342 0.946760
vt 0.067899 0.941521
vt 0.063148 0.980570
vt 0.031250 0.967230
vt 0.096841 0.945515
vt 0.033077 0.952213
vt 0.093983 0.969011
vt 0.032941 0.975880
vt 0.033973 0.967401
vt 0.034036 0.944334
vt 0.128681 0.947518
vt 0.033077 0.952213
vt 0.125822 0.971014
vt 0.036758 0.944506
vt 0.032941 0.975880
vt 0.146943 0.647547
vt 0.209443 0.809221
vt 0.146943 0.625000
vt 0.246130 0.809221
vt 0.183630 0.625000
vt 0.303872 0.507068
vt 0.209443 0.780510
vt 0.246130 0.780510
vt 0.275548 0.497548
vt 0.209443 0.752749
vt 0.246130 0.752749
vt 0.258096 0.479887
vt 0.209443 0.727765
vt 0.246130 0.727765
vt 0.254880 0.460471
vt 0.209443 0.701782
vt 0.246130 0.701782
vt 0.264399 0.441033
vt 0.209443 0.677854
vt 0.246130 0.677854
vt 0.281884 0.427502
vt 0.209443 0.650611
vt 0.246130 0.650611
vt 0.309841 0.419993
vt 0.209443 0.625000
vt 0.146943 0.797781
vt 0.246130 0.625000
vt 0.183630 0.797781
vt 0.337444 0.421041
vt 0.146943 0.771445
vt 0.183630 0.771445
vt 0.361240 0.432198
vt 0.146943 0.742375
vt 0.183630 0.742375
vt 0.377906 0.451698
vt 0.146943 0.718747
vt 0.183630 0.718747
vt 0.379690 0.470220
vt 0.146943 0.693031
vt 0.183630 0.693031
vt 0.369590 0.489105
vt 0.146943 0.669153
vt 0.183630 0.669153
vt 0.350406 0.501492
vt 0.183630 0.647547
vt 0.328162 0.507068
vt 0.129388 0.528953
vt 0.119312 0.523306
vt 0.119700 0.439145
vt 0.126328 0.433407
vt 0.202375 0.433407
vt 0.208207 0.437819
vt 0.208217 0.523522
vt 0.202796 0.528969
vt 0.129388 0.528953
vt 0.119312 0.523306
vt 0.119700 0.439145
vt 0.126328 0.433407
vt 0.202375 0.433407
vt 0.208207 0.437819
vt 0.208217 0.523522
vt 0.202796 0.528969
vt 0.130208 0.943283
vt 0.179467 0.943283
vt 0.130208 0.970736
vt 0.438004 0.948700
vt 0.179467 0.948700
vt 0.438004 0.970736
vt 0.154977 0.971771
vt 0.154977 0.970736
vt 0.179467 0.971771
vt 0.414909 0.971773
vt 0.414909 0.970736
vt 0.179467 0.971773
vt 0.130208 0.943283
vt 0.227104 0.943283
vt 0.130208 0.936480
vt 0.438004 0.948700
vt 0.227104 0.948700
vt 0.438004 0.936480
vt 0.154977 0.971771
vt 0.154977 0.936480
vt 0.227104 0.971771
vt 0.414909 0.971773
vt 0.414909 0.936480
vt 0.227104 0.971773
vt 0.251050 0.498214
vt 0.249792 0.483581
vt 0.247109 0.498214
vt 0.249792 0.487230
vt 0.249792 0.494965
vt 0.249792 0.506203
vt 0.249792 0.509706
vt 0.246890 0.498214
vt 0.249792 0.516127
vt 0.250977 0.498214
vt 0.254990 0.498214
vt 0.249792 0.508246
vt 0.249792 0.493943
vt 0.249792 0.489711
vt 0.254115 0.498214
vt 0.251050 0.481684
vt 0.251050 0.501786
vt 0.251578 0.483581
vt 0.247109 0.483581
vt 0.247109 0.501786
vt 0.245285 0.487230
vt 0.251578 0.487230
vt 0.244190 0.494965
vt 0.251578 0.494965
vt 0.251578 0.506203
vt 0.244190 0.506203
vt 0.244555 0.509706
vt 0.251578 0.509706
vt 0.246890 0.501786
vt 0.246890 0.516127
vt 0.251578 0.516127
vt 0.250977 0.501786
vt 0.250977 0.518316
vt 0.254990 0.501786
vt 0.254990 0.515835
vt 0.251578 0.508246
vt 0.257107 0.508246
vt 0.251578 0.493943
vt 0.257180 0.493943
vt 0.251578 0.489711
vt 0.256596 0.489711
vt 0.254115 0.483727
vt 0.254115 0.501786
vt 0.245796 0.494527
vt 0.381188 0.325564
vt 0.247648 0.512815
vt 0.381188 0.369953
vt 0.368055 0.334304
vt 0.391318 0.334304
vt 0.251094 0.515552
vt 0.253020 0.486565
vt 0.381188 0.306238
vt 0.404318 0.334304
vt 0.250977 0.485332
vt 0.390524 0.334304
vt 0.390322 0.345537
vt 0.389984 0.308347
vt 0.248861 0.486062
vt 0.376238 0.334304
vt 0.377412 0.345537
vt 0.378210 0.309807
vt 0.376505 0.365779
vt 0.247109 0.488251
vt 0.364416 0.334304
vt 0.381188 0.310331
vt 0.366766 0.345537
vt 0.396809 0.312014
vt 0.367333 0.361604
vt 0.396809 0.325809
vt 0.360462 0.349565
vt 0.245875 0.506328
vt 0.381188 0.354208
vt 0.396809 0.353721
vt 0.360907 0.325212
vt 0.396809 0.368240
vt 0.370344 0.345537
vt 0.370417 0.312540
vt 0.391309 0.345537
vt 0.388473 0.307331
vt 0.381188 0.369707
vt 0.413212 0.334304
vt 0.254338 0.512714
vt 0.396809 0.368122
vt 0.410754 0.345537
vt 0.405219 0.312645
vt 0.255605 0.506734
vt 0.381188 0.355193
vt 0.396809 0.354910
vt 0.411927 0.324171
vt 0.255706 0.494166
vt 0.381188 0.324688
vt 0.396809 0.325132
vt 0.412502 0.350157
vt 0.255098 0.491227
vt 0.381188 0.317554
vt 0.396809 0.318674
vt 0.409303 0.355792
vt 0.396809 0.308308
vt 0.402676 0.345537
vt 0.401253 0.310791
vt 0.398263 0.364838
vt 0.959622 0.556527
vt 0.823590 0.556527
s 0
usemtl walkie_talkie_1
f 14/28/1 15/29/2 9/15/3 8/13/3
f 20/45/4 29/70/4 31/73/4 21/47/4
f 21/46/5 11/19/3 10/16/3 20/43/5
f 27/64/6 26/61/6 25/59/6 24/58/6
f 13/23/7 22/49/7 28/66/7 23/53/7
f 23/54/6 28/67/6 31/74/6 30/71/6
f 11/17/8 12/20/8 6/9/8 5/6/8
f 31/73/9 28/68/9 22/50/9 21/47/9
f 18/38/10 17/36/10 25/60/10 26/62/10
f 4/5/3 5/7/3 2/2/3 3/3/3
f 5/7/3 6/10/3 1/1/3 2/2/3
f 8/13/11 9/15/11 3/3/11 2/2/11
f 9/14/12 10/16/12 4/5/12 3/4/12
f 7/12/13 8/13/13 2/2/13 1/1/13
f 16/34/3 9/15/3 15/30/14
f 19/39/15 20/44/16 10/16/3
f 154/323/17 24/56/17 16/32/17 15/31/17
f 12/21/18 7/12/18 1/1/18 6/11/18
f 10/16/19 11/18/19 5/8/19 4/5/19
f 17/35/3 18/37/3 19/40/3 16/34/3
f 13/24/20 7/12/3 12/22/3 22/51/20
f 25/60/21 17/36/21 16/33/21 24/57/21
f 10/16/3 9/15/3 16/34/3 19/40/3
f 18/38/22 26/62/22 27/63/22 19/41/22
f 22/52/23 12/22/3 11/19/3 21/48/24
f 29/69/6 27/64/6 24/58/6 154/322/6
f 33/79/25 35/87/25 43/111/25 41/103/25
f 33/80/26 32/75/26 36/91/26 37/93/26
f 34/83/27 35/88/27 39/97/27 38/95/27
f 32/76/28 34/84/28 38/96/28 36/92/28
f 35/89/29 33/81/29 37/94/29 39/98/29
f 43/112/30 42/107/30 46/120/30 47/122/30
f 35/90/3 34/85/3 42/108/3 43/113/3
f 34/86/31 32/77/31 40/99/31 42/109/31
f 32/78/6 33/82/6 41/104/6 40/100/6
f 46/119/32 44/115/32 48/123/32 50/129/32
f 42/110/33 40/101/33 44/115/33 46/119/33
f 40/102/34 41/105/34 45/117/34 44/116/34
f 41/106/35 43/114/35 47/121/35 45/118/35
f 48/124/36 49/126/36 51/132/36 50/130/36
f 44/116/37 45/117/37 49/127/37 48/125/37
f 45/118/38 47/121/38 51/133/38 49/128/38
f 47/122/39 46/120/39 50/131/39 51/134/39
s 1
f 53/136/40 55/141/41 56/142/42 54/138/43
f 55/141/41 57/144/44 58/145/45 56/142/42
f 57/144/44 59/147/46 60/148/47 58/145/45
f 59/147/46 61/150/48 62/151/49 60/148/47
f 61/150/48 63/153/50 64/154/51 62/151/49
f 63/153/50 65/156/52 66/157/53 64/154/51
f 65/156/52 67/159/54 68/161/55 66/157/53
f 69/164/56 71/167/57 72/168/58 70/165/59
f 71/167/57 73/170/60 74/171/61 72/168/58
f 73/170/60 75/173/62 76/174/63 74/171/61
f 75/173/62 77/176/64 78/177/65 76/174/63
f 77/176/64 52/135/66 79/179/67 78/177/65
f 67/160/54 69/164/56 70/165/59 68/162/55
f 52/135/66 53/137/40 54/139/43 79/179/67
s 0
f 84/185/68 85/186/68 93/194/68 92/193/68
f 81/182/69 82/183/69 90/191/69 89/190/69
f 83/184/18 84/185/18 92/193/18 91/192/18
f 85/186/70 86/187/70 94/195/70 93/194/70
f 94/195/3 95/196/3 88/189/3 89/190/3
f 86/187/71 87/188/71 95/196/71 94/195/71
f 90/191/3 91/192/3 92/193/3 93/194/3
f 93/194/3 94/195/3 89/190/3 90/191/3
f 82/183/72 83/184/72 91/192/72 90/191/72
f 87/188/73 80/181/73 88/189/73 95/196/73
f 80/181/74 81/182/74 89/190/74 88/189/74
f 96/197/6 97/200/6 99/206/6 98/203/6
f 100/209/3 102/215/3 103/218/3 101/212/3
f 98/204/75 99/207/75 103/219/75 102/216/75
f 99/208/76 97/201/76 101/213/76 103/220/76
f 96/198/77 98/205/77 102/217/77 100/210/77
f 100/211/78 101/214/78 97/202/78 96/199/78
s 1
f 125/255/3 126/257/3 147/306/3 145/302/3
f 114/233/79 115/234/80 128/260/80 127/258/79
f 134/274/3 117/236/3 118/239/3 136/278/3
f 112/231/81 113/232/82 126/256/82 125/254/81
f 113/232/82 114/233/79 127/258/79 126/256/82
f 111/230/83 112/231/81 125/254/81 124/252/83
f 108/226/84 109/227/85 122/248/85 121/245/84
f 134/274/3 133/271/3 129/262/3 117/236/3
f 107/225/86 108/226/84 121/245/84 120/244/86
f 110/228/87 111/230/83 124/252/83 123/249/87
f 130/264/3 138/283/3 119/241/3 120/243/3
f 133/271/3 151/314/3 128/261/3 129/262/3
f 105/222/88 106/224/89 119/242/89 118/238/88
f 145/300/90 147/307/91 148/308/92 146/303/93
f 141/291/3 130/264/3 120/243/3 121/246/3
f 121/246/3 122/247/3 141/291/3
f 122/247/3 123/250/3 131/266/3 141/291/3
f 123/250/3 124/253/3 132/270/3 131/266/3
f 141/292/94 131/267/95 143/295/96 142/293/97
f 147/306/3 126/257/3 127/259/3 149/310/3
f 119/241/3 138/283/3 136/278/3 118/239/3
f 116/235/98 104/221/99 117/237/99 129/263/98
f 115/234/80 116/235/98 129/263/98 128/260/80
f 128/261/3 151/314/3 149/310/3 127/259/3
f 134/275/100 136/279/101 137/280/101 135/276/100
f 136/279/101 138/284/102 139/286/103 137/280/101
f 104/221/99 105/223/88 118/240/88 117/237/99
f 130/265/104 140/289/105 139/287/103 138/285/102
f 130/265/104 141/292/94 142/293/97 140/289/105
f 131/268/95 132/269/106 144/298/107 143/296/96
f 145/301/90 146/304/93 144/298/107 132/269/106
f 124/253/3 125/255/3 145/302/3 132/270/3
f 147/307/91 149/311/108 150/312/108 148/308/92
f 149/311/108 151/315/109 152/316/110 150/312/108
f 133/272/111 153/318/112 152/316/110 151/315/109
f 133/273/111 134/275/100 135/276/100 153/319/112
f 109/227/85 110/229/87 123/251/87 122/248/85
f 106/224/89 107/225/86 120/244/86 119/242/89
s 0
f 31/74/6 29/69/6 154/322/6 30/71/6
f 30/72/113 154/323/113 15/31/113 14/27/113
f 27/65/114 29/70/114 20/45/114 19/42/114
f 30/72/115 14/27/115 13/25/115 23/55/115
s 1
f 62/152/3 56/143/3 58/146/3 60/149/3
f 66/158/3 79/180/3 54/140/3 64/155/3
f 78/178/3 79/180/3 66/158/3 68/163/3
f 140/290/3 142/294/3 148/309/3 150/313/3
f 74/172/3 76/175/3 70/166/3 72/169/3
f 137/281/3 153/320/3 135/277/3
f 148/309/3 142/294/3 143/297/3 146/305/3
f 143/297/3 144/299/3 146/305/3
f 64/155/3 54/140/3 56/143/3 62/152/3
f 140/290/3 150/313/3 152/317/3 139/288/3
f 139/288/3 152/317/3 153/321/3 137/282/3
f 76/175/3 78/178/3 68/163/3 70/166/3
s 0
f 14/28/116 8/13/3 7/12/3 13/26/117
