# Blender 3.4.0
# www.blender.org
mtllib arc_1_wall_1_plain.mtl
o arc_1_wall_1_plain
v 0.199999 2.600000 -0.400000
v 0.199999 0.000000 -0.400000
v -0.200001 2.600000 -0.400000
v -0.200001 0.000000 -0.400000
v -0.200001 0.000000 0.000000
v 0.199999 0.000000 0.000000
v 0.199999 0.000000 -2.600000
v -0.200001 0.000000 -2.600000
v 0.199999 2.600000 -2.600000
v -0.200001 0.000000 -3.000000
v 0.199999 0.000000 -3.000000
v -0.200001 3.000000 -0.000000
v 0.199999 3.000000 -0.000000
v -0.200001 2.600000 -2.600000
v -0.200001 3.000000 -3.000000
v 0.199999 3.000000 -3.000000
vn -0.0000 -0.0000 -1.0000
vn -0.0000 -0.0000 1.0000
vn 1.0000 -0.0000 -0.0000
vn -0.0000 -1.0000 -0.0000
vn -1.0000 -0.0000 -0.0000
vt 0.875000 0.866667
vt 0.343011 0.866667
vt 0.343011 1.000000
vt 0.875000 0.000000
vt 0.343011 0.000000
vt 0.773925 0.866667
vt 0.343011 0.866667
vt 0.773925 0.000000
vt 0.343011 0.000000
vt 0.241935 0.000000
vt 0.241935 0.000000
vt 0.875000 0.000000
vt 0.898925 0.000000
vt 0.773925 0.000000
vt 0.898925 0.000000
vt 0.875000 0.866667
vt 0.898925 0.866667
vt 0.898925 1.000000
vt 1.000000 0.000000
vt 1.000000 0.000000
vt 0.241935 1.000000
vt 0.241935 1.000000
vt 0.773925 0.866667
vt 0.898925 0.866667
vt 1.000000 1.000000
vt 1.000000 1.000000
s 0
usemtl wall_mp_1
f 2/4/1 4/8/1 3/6/1 1/1/1
f 8/14/2 7/12/2 9/16/2 14/23/2
f 11/20/3 16/26/3 13/22/3 6/11/3 2/5/3 1/2/3 9/17/3 7/13/3
f 1/3/4 3/7/4 14/24/4 9/18/4
f 5/10/5 12/21/5 15/25/5 10/19/5 8/15/5 14/24/5 3/7/5 4/9/5
