# Blender 3.4.0
# www.blender.org
mtllib arc_2_wall_2_1.mtl
o arc_2_wall_2_1
v 0.199999 0.000000 -0.400000
v -0.200001 0.000000 -0.400000
v -0.200001 0.000000 0.000000
v 0.199999 0.000000 0.000000
v 0.199999 0.000000 -2.600000
v -0.200001 0.000000 -2.600000
v -0.200001 0.000000 -3.000000
v 0.199999 0.000000 -3.000000
v -0.200001 3.000000 -0.000000
v 0.199999 3.000000 -0.000000
v -0.200001 3.000000 -3.000000
v 0.199999 3.000000 -3.000000
v -0.200001 0.160000 -2.600000
v -0.200001 0.160000 -2.590000
v -0.200001 0.110000 -2.570000
v -0.200001 0.000000 -2.570000
v -0.200000 0.160000 -2.600000
v -0.230000 0.000000 -2.600001
v -0.230000 0.110000 -2.600001
v -0.210000 0.160000 -2.600001
v 0.199999 0.160000 -2.600000
v 0.199999 0.160000 -2.590000
v 0.199999 0.110000 -2.570000
v 0.199999 0.000000 -2.570000
v 0.230000 0.000000 -2.600001
v 0.230000 0.110000 -2.600001
v 0.199999 0.160000 -2.600000
v 0.210000 0.160000 -2.600001
v 0.199999 0.160000 -3.000000
v 0.230000 0.000000 -3.000001
v 0.230000 0.110000 -3.000001
v 0.210000 0.160000 -3.000001
v -0.230000 0.000000 -3.000001
v -0.230000 0.110000 -3.000001
v -0.200001 0.160000 -3.000000
v -0.210000 0.160000 -3.000001
v 0.200001 0.160000 -0.400000
v 0.200001 0.160000 -0.410000
v 0.200001 0.110000 -0.430000
v 0.200001 0.000000 -0.430000
v 0.200001 0.160000 -0.400000
v 0.230000 0.000000 -0.399999
v 0.230000 0.110000 -0.399999
v 0.210000 0.160000 -0.399999
v -0.199999 0.160000 -0.400000
v -0.199999 0.160000 -0.410000
v -0.199999 0.110000 -0.430000
v -0.199999 0.000000 -0.430000
v -0.230000 0.000000 -0.399999
v -0.230000 0.110000 -0.399999
v -0.199999 0.160000 -0.400000
v -0.210000 0.160000 -0.399999
v -0.199999 0.160000 0.000000
v -0.230000 0.000000 0.000001
v -0.230000 0.110000 0.000001
v -0.210000 0.160000 0.000001
v 0.230000 0.000000 0.000001
v 0.230000 0.110000 0.000001
v 0.200001 0.160000 -0.000000
v 0.210000 0.160000 0.000001
v 0.199999 1.500000 -0.400000
v 0.199999 2.600000 -1.500000
v 0.199999 1.784701 -0.437482
v 0.199999 2.050000 -0.547372
v 0.199999 2.277817 -0.722183
v 0.199999 2.452628 -0.950000
v 0.199999 2.562518 -1.215299
v -0.200001 1.500000 -0.400000
v -0.200001 2.562518 -1.215299
v -0.200001 2.452628 -0.950000
v -0.200001 2.277817 -0.722183
v -0.200001 2.050000 -0.547372
v -0.200001 1.784701 -0.437482
v 0.199999 1.500000 -2.600000
v 0.199999 2.562518 -1.784701
v 0.199999 2.452628 -2.050000
v 0.199999 2.277817 -2.277818
v 0.199999 2.050000 -2.452628
v 0.199999 1.784701 -2.562519
v -0.200001 1.500000 -2.600000
v -0.200001 2.600000 -1.500000
v -0.200001 1.784701 -2.562519
v -0.200001 2.050000 -2.452628
v -0.200001 2.277817 -2.277818
v -0.200001 2.452628 -2.050000
v -0.200001 2.562518 -1.784701
vn 1.0000 -0.0000 -0.0000
vn -1.0000 -0.0000 -0.0000
vn -0.0000 -0.0000 -1.0000
vn -0.0000 -0.0654 -0.9979
vn -0.0000 -0.0000 1.0000
vn -0.0000 -0.0654 0.9979
vn -0.0000 0.1891 0.9820
vn -0.0000 0.3714 0.9285
vn -0.7016 0.1247 0.7016
vn -0.7071 -0.0000 0.7071
vn -0.6804 0.2722 0.6804
vn 0.6804 0.2722 0.6804
vn 0.7016 0.1247 0.7016
vn -0.0000 1.0000 -0.0000
vn 0.7071 -0.0000 0.7071
vn -0.9820 0.1891 -0.0000
vn -0.9285 0.3714 -0.0000
vn 0.9820 0.1891 -0.0000
vn 0.9285 0.3714 -0.0000
vn -0.0000 0.1891 -0.9820
vn -0.0000 0.3714 -0.9285
vn 0.7016 0.1247 -0.7016
vn 0.7071 -0.0000 -0.7071
vn 0.6804 0.2722 -0.6804
vn -0.6804 0.2722 -0.6804
vn -0.7016 0.1247 -0.7016
vn -0.7071 -0.0000 -0.7071
vn -0.0000 -1.0000 -0.0000
vn -0.0000 -0.9659 -0.2588
vn -0.0000 -0.8660 -0.5000
vn -0.0000 -0.7071 -0.7071
vn -0.0000 -0.5000 -0.8660
vn -0.0000 -0.2588 -0.9659
vn -0.0000 -0.9659 0.2588
vn -0.0000 -0.8660 0.5000
vn -0.0000 -0.7071 0.7071
vn -0.0000 -0.5000 0.8660
vn -0.0000 -0.2588 0.9659
vt 0.343011 0.000000
vt 0.875000 0.000000
vt 0.343011 0.000000
vt 0.773925 0.000000
vt 0.241935 0.000000
vt 0.241935 0.000000
vt 0.898925 0.000000
vt 0.875000 0.000000
vt 0.898925 0.000000
vt 0.773925 0.000000
vt 1.000000 0.000000
vt 1.000000 0.000000
vt 0.241935 1.000000
vt 0.241935 1.000000
vt 1.000000 1.000000
vt 1.000000 1.000000
vt -0.495514 -0.329563
vt 0.724442 0.894067
vt -0.495514 -0.258224
vt 0.517323 0.768285
vt -0.495514 -0.335491
vt 0.728880 0.898505
vt -0.495514 -0.290929
vt 0.509877 0.800897
vt -0.495514 -0.359202
vt 0.509415 0.873559
vt 0.724442 0.894067
vt -0.260322 -0.329561
vt 0.533380 0.873559
vt -0.260320 -0.359202
vt 0.533380 0.800897
vt -0.260320 -0.290929
vt 0.524504 0.768285
vt 0.728879 0.889630
vt -0.260320 -0.258224
vt -0.260322 -0.335489
vt 0.724442 0.789660
vt -0.260320 -0.329563
vt -0.260320 -0.258224
vt 0.515627 0.706629
vt 0.728880 0.785222
vt -0.260320 -0.335491
vt -0.260320 -0.290929
vt 0.506752 0.674017
vt -0.260320 -0.359202
vt 0.506752 0.601355
vt 0.530718 0.601355
vt -0.260320 -0.359202
vt 0.530255 0.674016
vt -0.260320 -0.290929
vt 0.724442 0.789660
vt -0.260321 -0.293994
vt 0.522809 0.706629
vt 0.728880 0.794099
vt -0.260320 -0.258224
vt -0.260322 -0.288065
vt -0.495515 -0.293994
vt -0.495514 -0.359202
vt -0.495514 -0.290929
vt -0.495514 -0.258224
vt -0.495515 -0.288066
vt -0.495514 -0.359202
vt -0.495514 -0.290929
vt -0.495516 -0.329561
vt -0.495514 -0.258224
vt -0.495515 -0.335489
vt -0.495514 -0.329563
vt 0.724442 0.894067
vt -0.495514 -0.258224
vt 0.517323 0.768285
vt -0.495514 -0.335491
vt 0.728880 0.898505
vt -0.495514 -0.290929
vt 0.509877 0.800897
vt -0.495514 -0.359202
vt 0.509415 0.873559
vt 0.724442 0.894067
vt -0.260322 -0.329561
vt 0.533380 0.873559
vt -0.260320 -0.359202
vt 0.533380 0.800897
vt -0.260320 -0.290929
vt 0.524504 0.768285
vt 0.728879 0.889630
vt -0.260320 -0.258224
vt -0.260322 -0.335489
vt 0.724442 0.789660
vt -0.260320 -0.329563
vt -0.260320 -0.258224
vt 0.515627 0.706629
vt 0.728880 0.785222
vt -0.260320 -0.335491
vt -0.260320 -0.290929
vt 0.506752 0.674017
vt -0.260320 -0.359202
vt 0.506752 0.601355
vt 0.530718 0.601355
vt -0.260320 -0.359202
vt 0.530255 0.674016
vt -0.260320 -0.290929
vt 0.724442 0.789660
vt -0.260321 -0.293994
vt 0.522809 0.706629
vt 0.728880 0.794099
vt -0.260320 -0.258224
vt -0.260322 -0.288065
vt -0.495515 -0.293994
vt -0.495514 -0.359202
vt -0.495514 -0.290929
vt -0.495514 -0.258224
vt -0.495515 -0.288066
vt -0.495514 -0.359202
vt -0.495514 -0.290929
vt -0.495516 -0.329561
vt -0.495514 -0.258224
vt -0.495515 -0.335489
vt 0.343011 0.500000
vt 0.875000 0.500000
vt 0.620968 0.866667
vt 0.620968 1.000000
vt 0.352482 0.594901
vt 0.875000 0.594900
vt 0.380250 0.683333
vt 0.875000 0.683333
vt 0.424422 0.759273
vt 0.343011 1.000000
vt 0.875000 0.866667
vt 0.481989 0.817543
vt 0.481989 1.000000
vt 0.549027 0.854173
vt 0.549027 1.000000
vt 0.343011 0.500000
vt 0.773925 0.500000
vt 0.549027 0.854173
vt 0.549027 0.866667
vt 0.481989 0.817543
vt 0.481989 0.866667
vt 0.424422 0.759273
vt 0.343011 0.866667
vt 0.773925 0.866667
vt 0.380250 0.683334
vt 0.773925 0.683333
vt 0.352482 0.594900
vt 0.773925 0.594900
vt 0.898925 0.500000
vt 0.875000 0.500000
vt 0.692908 0.854173
vt 0.692908 1.000000
vt 0.759946 0.817543
vt 0.759946 1.000000
vt 0.817513 0.759273
vt 0.898925 1.000000
vt 0.875000 0.866667
vt 0.861686 0.683334
vt 0.875000 0.683333
vt 0.889454 0.594900
vt 0.875000 0.594900
vt 0.898925 0.500000
vt 0.773925 0.500000
vt 0.620968 0.866667
vt 0.889454 0.594900
vt 0.773925 0.594900
vt 0.861686 0.683333
vt 0.773925 0.683333
vt 0.817513 0.759273
vt 0.898925 0.866667
vt 0.773925 0.866667
vt 0.759946 0.817543
vt 0.759946 0.866667
vt 0.692908 0.854173
vt 0.692908 0.866667
s 1
usemtl wall_6
f 10/14/1 4/6/1 1/1/1 61/117/1 63/121/1 64/123/1 65/125/1 66/128/1 67/130/1 62/119/1 75/147/1 76/149/1 77/151/1 78/154/1 79/156/1 74/145/1 5/7/1 8/12/1 12/16/1
f 3/5/2 9/13/2 11/15/2 7/11/2 6/9/2 80/158/2 82/161/2 83/163/2 84/165/2 85/168/2 86/170/2 81/160/2 69/134/2 70/136/2 71/138/2 72/141/2 73/143/2 68/132/2 2/3/2
f 1/2/3 2/4/3 68/133/4 61/118/4
f 6/10/5 5/8/5 74/146/6 80/159/6
f 81/160/28 62/120/28 67/131/29 69/135/29
f 69/135/29 67/131/29 66/129/30 70/137/30
f 70/137/30 66/129/30 65/126/31 71/139/31
f 71/140/31 65/127/31 64/124/32 72/142/32
f 72/142/32 64/124/32 63/122/33 73/144/33
f 73/144/33 63/122/33 61/118/4 68/133/4
f 62/120/28 81/160/28 86/171/34 75/148/34
f 75/148/34 86/171/34 85/169/35 76/150/35
f 76/150/35 85/169/35 84/166/36 77/152/36
f 77/153/36 84/167/36 83/164/37 78/155/37
f 78/155/37 83/164/37 82/162/38 79/157/38
f 79/157/38 82/162/38 80/159/6 74/146/6
usemtl wood_4
f 24/45/5 23/43/7 15/23/7 16/25/5
f 22/39/8 14/19/8 15/23/7 23/43/7
f 15/24/9 19/31/9 18/29/10 16/26/10
f 14/20/11 20/33/11 19/31/9 15/24/9
f 22/40/12 23/44/13 26/49/13 28/53/12
f 21/37/14 22/41/14 28/54/14 27/51/14
f 21/38/14 13/17/14 14/21/14 22/42/14
f 23/44/13 24/46/15 25/47/15 26/49/13
f 13/18/14 17/27/14 20/34/14 14/22/14
f 18/30/2 19/32/16 34/63/16 33/62/2
f 20/35/17 36/65/17 34/63/16 19/32/16
f 17/28/14 35/64/14 36/66/14 20/36/14
f 30/58/1 31/59/18 26/50/18 25/48/1
f 32/60/19 28/55/19 26/50/18 31/59/18
f 29/57/14 27/52/14 28/56/14 32/61/14
f 48/95/3 47/93/20 39/73/20 40/75/3
f 46/89/21 38/69/21 39/73/20 47/93/20
f 39/74/22 43/81/22 42/79/23 40/76/23
f 38/70/24 44/83/24 43/81/22 39/74/22
f 46/90/25 47/94/26 50/99/26 52/103/25
f 45/87/14 46/91/14 52/104/14 51/101/14
f 45/88/14 37/67/14 38/71/14 46/92/14
f 47/94/26 48/96/27 49/97/27 50/99/26
f 37/68/14 41/77/14 44/84/14 38/72/14
f 42/80/1 43/82/18 58/113/18 57/112/1
f 44/85/19 60/115/19 58/113/18 43/82/18
f 41/78/14 59/114/14 60/116/14 44/86/14
f 54/108/2 55/109/16 50/100/16 49/98/2
f 56/110/17 52/105/17 50/100/16 55/109/16
f 53/107/14 51/102/14 52/106/14 56/111/14
