# Blender 3.4.0
# www.blender.org
mtllib catwalk_1.mtl
o catwalk_1
v -2.000001 -0.051000 -0.910000
v -2.000001 -0.041000 -0.900000
v -2.000001 0.039000 -0.900000
v -2.000001 0.049000 -0.910000
v -2.000001 -0.041000 -1.000000
v -2.000001 -0.051000 -0.990000
v -2.000001 0.049000 -0.990000
v -2.000001 0.039000 -1.000000
v 1.999999 -0.041000 -0.900000
v 1.999999 -0.051000 -0.910000
v 1.999999 0.049000 -0.910000
v 1.999999 0.039000 -0.900000
v 1.999999 -0.051000 -0.990000
v 1.999999 -0.041000 -1.000000
v 1.999999 0.039000 -1.000000
v 1.999999 0.049000 -0.990000
v -2.000001 -0.051000 0.990000
v -2.000001 -0.041000 1.000000
v -2.000001 0.039000 1.000000
v -2.000001 0.049000 0.990000
v -2.000001 -0.041000 0.900000
v -2.000001 -0.051000 0.910000
v -2.000001 0.049000 0.910000
v -2.000001 0.039000 0.900000
v 1.999999 -0.041000 1.000000
v 1.999999 -0.051000 0.990000
v 1.999999 0.049000 0.990000
v 1.999999 0.039000 1.000000
v 1.999999 -0.051000 0.910000
v 1.999999 -0.041000 0.900000
v 1.999999 0.039000 0.900000
v 1.999999 0.049000 0.910000
v -2.000000 0.011000 0.900000
v 2.000000 0.011000 0.900000
v -2.000000 0.011000 -0.900000
v 2.000000 0.011000 -0.900000
v -2.000000 0.009000 0.900000
v 2.000000 0.009000 0.900000
v -2.000000 0.009000 -0.900000
v 2.000000 0.009000 -0.900000
v -2.000000 0.029000 -0.015000
v -2.000000 -0.031000 -0.015000
v -2.000000 0.029000 0.015000
v -2.000000 -0.031000 0.015000
v 2.000000 0.029000 -0.015000
v 2.000000 -0.031000 -0.015000
v 2.000000 0.029000 0.015000
v 2.000000 -0.031000 0.015000
v 0.530000 0.009000 0.900000
v 0.470000 0.009000 0.900000
v 0.530000 -0.021000 0.900000
v 0.470000 -0.021000 0.900000
v 0.530000 0.009000 -0.900000
v 0.470000 0.009000 -0.900000
v 0.530000 -0.021000 -0.900000
v 0.470000 -0.021000 -0.900000
v -1.470000 0.009000 0.900000
v -1.530000 0.009000 0.900000
v -1.470000 -0.021000 0.900000
v -1.530000 -0.021000 0.900000
v -1.470000 0.009000 -0.900000
v -1.530000 0.009000 -0.900000
v -1.470000 -0.021000 -0.900000
v -1.530000 -0.021000 -0.900000
v -0.470000 0.009000 0.900000
v -0.530000 0.009000 0.900000
v -0.470000 -0.021000 0.900000
v -0.530000 -0.021000 0.900000
v -0.470000 0.009000 -0.900000
v -0.530000 0.009000 -0.900000
v -0.470000 -0.021000 -0.900000
v -0.530000 -0.021000 -0.900000
v 1.530000 0.009000 0.900000
v 1.470000 0.009000 0.900000
v 1.530000 -0.021000 0.900000
v 1.470000 -0.021000 0.900000
v 1.530000 0.009000 -0.900000
v 1.470000 0.009000 -0.900000
v 1.530000 -0.021000 -0.900000
v 1.470000 -0.021000 -0.900000
vn -0.0000 -0.0000 1.0000
vn -0.0000 -1.0000 -0.0000
vn -0.0000 1.0000 -0.0000
vn -0.0000 -0.0000 -1.0000
vn -0.0000 -0.7071 -0.7071
vn -0.0000 0.7071 -0.7071
vn -0.0000 -0.7071 0.7071
vn -0.0000 0.7071 0.7071
vn 1.0000 -0.0000 -0.0000
vn -1.0000 -0.0000 -0.0000
vt -0.500000 0.475000
vt -0.500000 0.045000
vt -0.500000 0.480000
vt -0.500000 0.520000
vt -0.500000 0.045000
vt -0.500000 0.525000
vt -0.500000 0.480000
vt -0.500000 0.475000
vt -0.500000 0.005000
vt -0.500000 0.005000
vt -0.500000 0.525000
vt -0.500000 0.520000
vt 1.500000 0.480000
vt 1.500000 0.475000
vt 1.500000 0.045000
vt 1.500000 0.045000
vt 1.500000 0.525000
vt 1.500000 0.520000
vt 1.500000 0.475000
vt 1.500000 0.005000
vt 1.500000 0.480000
vt 1.500000 0.520000
vt 1.500000 0.005000
vt 1.500000 0.525000
vt -0.500000 0.995000
vt -0.500000 0.475000
vt -0.500000 0.480000
vt -0.500000 0.520000
vt -0.500000 0.995000
vt -0.500000 0.525000
vt -0.500000 0.480000
vt -0.500000 0.955000
vt -0.500000 0.475000
vt -0.500000 0.955000
vt -0.500000 0.525000
vt -0.500000 0.520000
vt 1.500000 0.480000
vt 1.500000 0.995000
vt 1.500000 0.475000
vt 1.500000 0.995000
vt 1.500000 0.525000
vt 1.500000 0.520000
vt 1.500000 0.955000
vt 1.500000 0.475000
vt 1.500000 0.480000
vt 1.500000 0.520000
vt 1.500000 0.955000
vt 1.500000 0.525000
vt -0.500000 0.050000
vt 1.500000 0.050000
vt -0.500000 0.950000
vt 1.500000 0.950000
vt -0.500000 0.050000
vt 1.500000 0.050000
vt -0.500000 0.950000
vt 1.500000 0.950000
vt -0.500000 0.475000
vt -0.500000 0.497500
vt -0.500000 0.520000
vt -0.500000 0.497500
vt -0.500000 0.475000
vt -0.500000 0.512500
vt -0.500000 0.520000
vt -0.500000 0.512500
vt 1.500000 0.475000
vt 1.500000 0.497500
vt 1.500000 0.520000
vt 1.500000 0.497500
vt 1.500000 0.475000
vt 1.500000 0.512500
vt 1.500000 0.520000
vt 1.500000 0.512500
vt 0.050000 0.475000
vt 0.050000 0.497500
vt 0.050000 0.520000
vt 0.050000 0.497500
vt 0.050000 0.475000
vt 0.050000 0.512500
vt 0.050000 0.520000
vt 0.050000 0.512500
vt 0.950000 0.475000
vt 0.950000 0.497500
vt 0.950000 0.520000
vt 0.950000 0.497500
vt 0.950000 0.475000
vt 0.950000 0.512500
vt 0.950000 0.520000
vt 0.950000 0.512500
vt 0.050000 0.475000
vt 0.050000 0.497500
vt 0.050000 0.520000
vt 0.050000 0.497500
vt 0.050000 0.475000
vt 0.050000 0.512500
vt 0.050000 0.520000
vt 0.050000 0.512500
vt 0.950000 0.475000
vt 0.950000 0.497500
vt 0.950000 0.520000
vt 0.950000 0.497500
vt 0.950000 0.475000
vt 0.950000 0.512500
vt 0.950000 0.520000
vt 0.950000 0.512500
vt 0.050000 0.475000
vt 0.050000 0.497500
vt 0.050000 0.520000
vt 0.050000 0.497500
vt 0.050000 0.475000
vt 0.050000 0.512500
vt 0.050000 0.520000
vt 0.050000 0.512500
vt 0.950000 0.475000
vt 0.950000 0.497500
vt 0.950000 0.520000
vt 0.950000 0.497500
vt 0.950000 0.475000
vt 0.950000 0.512500
vt 0.950000 0.520000
vt 0.950000 0.512500
vt 0.050000 0.475000
vt 0.050000 0.497500
vt 0.050000 0.520000
vt 0.050000 0.497500
vt 0.050000 0.475000
vt 0.050000 0.512500
vt 0.050000 0.520000
vt 0.050000 0.512500
vt 0.950000 0.475000
vt 0.950000 0.497500
vt 0.950000 0.520000
vt 0.950000 0.497500
vt 0.950000 0.475000
vt 0.950000 0.512500
vt 0.950000 0.520000
vt 0.950000 0.512500
s 0
usemtl metal_mp_6
f 9/13/1 12/18/1 3/4/1 2/3/1
f 22/32/2 29/43/2 26/38/2 17/25/2
f 16/23/3 7/10/3 4/5/3 11/16/3
f 5/7/4 8/12/4 15/22/4 14/21/4
f 25/37/1 28/42/1 19/28/1 18/27/1
f 32/47/3 23/34/3 20/29/3 27/40/3
f 21/31/4 24/36/4 31/46/4 30/45/4
f 13/19/5 6/8/5 5/7/5 14/21/5
f 7/11/6 16/24/6 15/22/6 8/12/6
f 1/1/7 10/14/7 9/13/7 2/3/7
f 11/17/8 4/6/8 3/4/8 12/18/8
f 29/44/5 22/33/5 21/31/5 30/45/5
f 23/35/6 32/48/6 31/46/6 24/36/6
f 17/26/7 26/39/7 25/37/7 18/27/7
f 27/41/8 20/30/8 19/28/8 28/42/8
f 6/9/2 13/20/2 10/15/2 1/2/2
f 33/49/3 34/50/3 36/52/3 35/51/3
f 37/53/2 39/55/2 40/56/2 38/54/2
f 43/61/1 44/63/1 48/71/1 47/69/1
f 45/65/4 46/67/4 42/59/4 41/57/4
f 43/62/3 47/70/3 45/66/3 41/58/3
f 48/72/2 44/64/2 42/60/2 46/68/2
f 51/77/2 52/79/2 56/87/2 55/85/2
f 53/81/3 54/83/3 50/75/3 49/73/3
f 51/78/9 55/86/9 53/82/9 49/74/9
f 56/88/10 52/80/10 50/76/10 54/84/10
f 59/93/2 60/95/2 64/103/2 63/101/2
f 61/97/3 62/99/3 58/91/3 57/89/3
f 59/94/9 63/102/9 61/98/9 57/90/9
f 64/104/10 60/96/10 58/92/10 62/100/10
f 67/109/2 68/111/2 72/119/2 71/117/2
f 69/113/3 70/115/3 66/107/3 65/105/3
f 67/110/9 71/118/9 69/114/9 65/106/9
f 72/120/10 68/112/10 66/108/10 70/116/10
f 75/125/2 76/127/2 80/135/2 79/133/2
f 77/129/3 78/131/3 74/123/3 73/121/3
f 75/126/9 79/134/9 77/130/9 73/122/9
f 80/136/10 76/128/10 74/124/10 78/132/10
o handrail_4
v -2.000000 0.609000 1.055000
v -2.000000 0.639000 1.055000
v -2.000000 0.609000 1.045000
v -2.000000 0.639000 1.045000
v 2.000000 0.609000 1.055000
v 2.000000 0.639000 1.055000
v 2.000000 0.609000 1.045000
v 2.000000 0.639000 1.045000
v -0.020001 0.059000 0.960000
v -0.020001 1.169000 1.060000
v -0.020001 0.059000 0.940000
v -0.020001 1.169000 1.040000
v 0.019999 0.059000 0.960000
v 0.019999 1.169000 1.060000
v 0.019999 0.059000 0.940000
v 0.019999 1.169000 1.040000
v -0.100001 1.199000 1.060000
v -0.100001 1.199000 1.040000
v 0.099999 1.199000 1.060000
v 0.099999 1.199000 1.040000
v -0.100001 1.209000 1.060000
v -0.100001 1.209000 1.040000
v 0.099999 1.209000 1.060000
v 0.099999 1.209000 1.040000
v -0.040001 0.059000 0.980000
v -0.040001 0.059000 0.920000
v 0.039999 0.059000 0.980000
v 0.039999 0.059000 0.920000
v -0.040001 0.049000 0.980000
v -0.040001 0.049000 0.920000
v 0.039999 0.049000 0.980000
v 0.039999 0.049000 0.920000
v 0.979999 0.059000 0.960000
v 0.979999 1.169000 1.060000
v 0.979999 0.059000 0.940000
v 0.979999 1.169000 1.040000
v 1.019999 0.059000 0.960000
v 1.019999 1.169000 1.060000
v 1.019999 0.059000 0.940000
v 1.019999 1.169000 1.040000
v 0.899999 1.199000 1.060000
v 0.899999 1.199000 1.040000
v 1.099999 1.199000 1.060000
v 1.099999 1.199000 1.040000
v 0.899999 1.209000 1.060000
v 0.899999 1.209000 1.040000
v 1.099999 1.209000 1.060000
v 1.099999 1.209000 1.040000
v 0.959999 0.059000 0.980000
v 0.959999 0.059000 0.920000
v 1.039999 0.059000 0.980000
v 1.039999 0.059000 0.920000
v 0.959999 0.049000 0.980000
v 0.959999 0.049000 0.920000
v 1.039999 0.049000 0.980000
v 1.039999 0.049000 0.920000
v -1.020001 0.059000 0.960000
v -1.020001 1.169000 1.060000
v -1.020001 0.059000 0.940000
v -1.020001 1.169000 1.040000
v -0.980001 0.059000 0.960000
v -0.980001 1.169000 1.060000
v -0.980001 0.059000 0.940000
v -0.980001 1.169000 1.040000
v -1.100001 1.199000 1.060000
v -1.100001 1.199000 1.040000
v -0.900001 1.199000 1.060000
v -0.900001 1.199000 1.040000
v -1.100001 1.209000 1.060000
v -1.100001 1.209000 1.040000
v -0.900001 1.209000 1.060000
v -0.900001 1.209000 1.040000
v -1.040001 0.059000 0.980000
v -1.040001 0.059000 0.920000
v -0.960001 0.059000 0.980000
v -0.960001 0.059000 0.920000
v -1.040001 0.049000 0.980000
v -1.040001 0.049000 0.920000
v -0.960001 0.049000 0.980000
v -0.960001 0.049000 0.920000
v -2.000001 1.214000 1.075981
v -2.000001 1.244000 1.075981
v -2.000001 1.199000 1.050000
v -2.000001 1.214000 1.024019
v -2.000001 1.259000 1.050000
v -2.000001 1.244000 1.024019
v 1.999999 1.199000 1.050000
v 1.999999 1.214000 1.075981
v 1.999999 1.259000 1.050000
v 1.999999 1.244000 1.075981
v 1.999999 1.214000 1.024019
v 1.999999 1.244000 1.024019
v -1.020001 0.336500 1.040000
v -0.980001 0.336500 1.040000
v -0.980001 0.336500 1.060000
v -1.020001 0.336500 1.060000
v -0.020001 0.336500 1.040000
v 0.019999 0.336500 1.040000
v 0.019999 0.336500 1.060000
v -0.020001 0.336500 1.060000
v 0.979999 0.336500 1.040000
v 1.019999 0.336500 1.040000
v 1.019999 0.336500 1.060000
v 0.979999 0.336500 1.060000
vn -0.0000 -0.0000 -1.0000
vn -0.0000 -0.0000 1.0000
vn -0.0000 -1.0000 -0.0000
vn -0.0000 1.0000 -0.0000
vn -1.0000 -0.0000 -0.0000
vn 1.0000 -0.0000 -0.0000
vn 0.3511 -0.9363 -0.0000
vn -0.3511 -0.9363 -0.0000
vn -0.0000 0.8660 -0.5000
vn -0.0000 -0.8660 0.5000
vn -0.0000 0.8660 0.5000
vn -0.0000 0.3390 -0.9408
vn -0.0000 -0.3390 0.9408
vn -0.0000 -0.8660 -0.5000
vt -0.500000 0.490000
vt -0.500000 0.497500
vt -0.500000 0.505000
vt -0.500000 0.497500
vt -0.500000 0.490000
vt -0.500000 0.502500
vt -0.500000 0.505000
vt -0.500000 0.502500
vt 1.500000 0.490000
vt 1.500000 0.497500
vt 1.500000 0.505000
vt 1.500000 0.497500
vt 1.500000 0.490000
vt 1.500000 0.502500
vt 1.500000 0.505000
vt 1.500000 0.502500
vt 0.489999 0.495000
vt 0.495000 0.215000
vt 0.489999 0.215000
vt 0.495000 0.770000
vt 0.489999 0.495000
vt 0.489999 0.770000
vt 0.489999 0.505000
vt 0.505000 0.215000
vt 0.489999 0.215000
vt 0.505000 0.770000
vt 0.489999 0.770000
vt 0.489999 0.505000
vt 0.509999 0.495000
vt 0.495000 0.215000
vt 0.509999 0.215000
vt 0.495000 0.770000
vt 0.509999 0.495000
vt 0.509999 0.770000
vt 0.509999 0.505000
vt 0.509999 0.215000
vt 0.505000 0.215000
vt 0.505000 0.770000
vt 0.509999 0.505000
vt 0.509999 0.770000
vt 0.495000 0.785000
vt 0.449999 0.785000
vt 0.449999 0.495000
vt 0.505000 0.785000
vt 0.449999 0.785000
vt 0.449999 0.505000
vt 0.549999 0.495000
vt 0.495000 0.785000
vt 0.549999 0.785000
vt 0.549999 0.505000
vt 0.505000 0.785000
vt 0.549999 0.785000
vt 0.495000 0.790000
vt 0.449999 0.790000
vt 0.505000 0.790000
vt 0.449999 0.790000
vt 0.495000 0.790000
vt 0.549999 0.790000
vt 0.505000 0.790000
vt 0.549999 0.790000
vt 0.479999 0.485000
vt 0.485000 0.215000
vt 0.479999 0.215000
vt 0.479999 0.515000
vt 0.515000 0.215000
vt 0.479999 0.215000
vt 0.485000 0.215000
vt 0.519999 0.485000
vt 0.519999 0.215000
vt 0.515000 0.215000
vt 0.519999 0.515000
vt 0.519999 0.215000
vt 0.485000 0.210000
vt 0.479999 0.210000
vt 0.515000 0.210000
vt 0.479999 0.210000
vt 0.485000 0.210000
vt 0.519999 0.210000
vt 0.515000 0.210000
vt 0.519999 0.210000
vt 0.989999 0.495000
vt 0.495000 0.215000
vt 0.989999 0.215000
vt 0.495000 0.770000
vt 0.989999 0.770000
vt 0.989999 0.495000
vt 0.989999 0.505000
vt 0.505000 0.215000
vt 0.989999 0.215000
vt 0.505000 0.770000
vt 0.989999 0.770000
vt 0.989999 0.505000
vt 1.010000 0.495000
vt 0.495000 0.215000
vt 1.010000 0.215000
vt 0.495000 0.770000
vt 1.010000 0.495000
vt 1.010000 0.770000
vt 1.010000 0.505000
vt 1.010000 0.215000
vt 0.505000 0.215000
vt 0.505000 0.770000
vt 1.010000 0.505000
vt 1.010000 0.770000
vt 0.495000 0.785000
vt 0.949999 0.785000
vt 0.949999 0.495000
vt 0.505000 0.785000
vt 0.949999 0.785000
vt 0.949999 0.505000
vt 1.049999 0.495000
vt 0.495000 0.785000
vt 1.049999 0.785000
vt 1.049999 0.505000
vt 0.505000 0.785000
vt 1.049999 0.785000
vt 0.495000 0.790000
vt 0.949999 0.790000
vt 0.505000 0.790000
vt 0.949999 0.790000
vt 0.495000 0.790000
vt 1.049999 0.790000
vt 0.505000 0.790000
vt 1.049999 0.790000
vt 0.979999 0.485000
vt 0.485000 0.215000
vt 0.979999 0.215000
vt 0.979999 0.515000
vt 0.515000 0.215000
vt 0.979999 0.215000
vt 0.485000 0.215000
vt 1.020000 0.485000
vt 1.020000 0.215000
vt 0.515000 0.215000
vt 1.020000 0.515000
vt 1.020000 0.215000
vt 0.485000 0.210000
vt 0.979999 0.210000
vt 0.515000 0.210000
vt 0.979999 0.210000
vt 0.485000 0.210000
vt 1.020000 0.210000
vt 0.515000 0.210000
vt 1.020000 0.210000
vt -0.010001 0.495000
vt 0.495000 0.215000
vt -0.010001 0.215000
vt 0.495000 0.770000
vt -0.010001 0.495000
vt -0.010001 0.770000
vt -0.010001 0.505000
vt 0.505000 0.215000
vt -0.010001 0.215000
vt 0.505000 0.770000
vt -0.010001 0.770000
vt -0.010001 0.505000
vt 0.009999 0.495000
vt 0.495000 0.215000
vt 0.009999 0.215000
vt 0.495000 0.770000
vt 0.009999 0.495000
vt 0.009999 0.770000
vt 0.009999 0.505000
vt 0.009999 0.215000
vt 0.505000 0.215000
vt 0.505000 0.770000
vt 0.009999 0.505000
vt 0.009999 0.770000
vt 0.495000 0.785000
vt -0.050001 0.785000
vt -0.050001 0.495000
vt 0.505000 0.785000
vt -0.050001 0.785000
vt -0.050001 0.505000
vt 0.049999 0.495000
vt 0.495000 0.785000
vt 0.049999 0.785000
vt 0.049999 0.505000
vt 0.505000 0.785000
vt 0.049999 0.785000
vt 0.495000 0.790000
vt -0.050001 0.790000
vt 0.505000 0.790000
vt -0.050001 0.790000
vt 0.495000 0.790000
vt 0.049999 0.790000
vt 0.505000 0.790000
vt 0.049999 0.790000
vt -0.020001 0.485000
vt 0.485000 0.215000
vt -0.020001 0.215000
vt -0.020001 0.515000
vt 0.515000 0.215000
vt -0.020001 0.215000
vt 0.485000 0.215000
vt 0.019999 0.485000
vt 0.019999 0.215000
vt 0.515000 0.215000
vt 0.019999 0.515000
vt 0.019999 0.215000
vt 0.485000 0.210000
vt -0.020001 0.210000
vt 0.515000 0.210000
vt -0.020001 0.210000
vt 0.485000 0.210000
vt 0.019999 0.210000
vt 0.515000 0.210000
vt 0.019999 0.210000
vt 0.230589 1.500000
vt 0.246118 1.500000
vt 0.215059 1.500000
vt 0.308234 1.499999
vt 0.292705 1.499999
vt 0.261647 1.499999
vt 0.277176 1.499999
vt 0.215060 -0.499999
vt 0.308234 -0.500000
vt 0.230589 -0.499999
vt 0.261647 -0.500000
vt 0.246118 -0.499999
vt 0.292705 -0.500000
vt 0.277176 -0.500000
vt 0.505000 0.353750
vt -0.010001 0.353750
vt 0.009999 0.353750
vt 0.505000 0.353750
vt 0.495000 0.353750
vt 0.009999 0.353750
vt 0.495000 0.353750
vt -0.010001 0.353750
vt 0.505000 0.353750
vt 0.489999 0.353750
vt 0.509999 0.353750
vt 0.505000 0.353750
vt 0.495000 0.353750
vt 0.509999 0.353750
vt 0.495000 0.353750
vt 0.489999 0.353750
vt 0.505000 0.353750
vt 0.989999 0.353750
vt 1.010000 0.353750
vt 0.505000 0.353750
vt 0.495000 0.353750
vt 1.010000 0.353750
vt 0.495000 0.353750
vt 0.989999 0.353750
s 0
usemtl metal_mp_6
f 83/141/11 84/143/11 88/151/11 87/149/11
f 85/145/12 86/147/12 82/139/12 81/137/12
f 83/142/13 87/150/13 85/146/13 81/138/13
f 88/152/14 84/144/14 82/140/14 86/148/14
f 183/380/12 118/234/12 114/221/12 184/382/12
f 180/373/15 90/156/15 92/162/15 177/367/15
f 177/368/11 92/163/11 96/176/11 178/369/11
f 178/370/16 96/174/16 94/168/16 179/371/16
f 91/159/14 95/171/14 108/207/14 106/200/14
f 96/175/17 100/186/17 99/183/17 94/169/17
f 90/158/12 94/170/12 99/185/12 97/178/12
f 99/184/16 100/187/16 104/195/16 103/193/16
f 92/163/11 98/181/11 100/188/11 96/176/11
f 98/180/15 97/177/15 101/189/15 102/191/15
f 97/178/12 99/185/12 103/194/12 101/190/12
f 100/188/11 98/181/11 102/192/11 104/196/11
f 90/157/18 97/179/18 98/182/18 92/164/18
f 108/206/16 107/203/16 111/213/16 112/215/16
f 89/153/14 91/159/14 106/200/14 105/197/14
f 95/171/14 93/165/14 107/204/14 108/207/14
f 93/165/14 89/153/14 105/197/14 107/204/14
f 105/198/15 106/201/15 110/211/15 109/209/15
f 107/205/12 105/199/12 109/210/12 111/214/12
f 106/202/11 108/208/11 112/216/11 110/212/11
f 184/381/15 114/220/15 116/226/15 181/375/15
f 181/376/11 116/227/11 120/240/11 182/377/11
f 182/378/16 120/238/16 118/232/16 183/379/16
f 115/223/14 119/235/14 132/271/14 130/264/14
f 120/239/17 124/250/17 123/247/17 118/233/17
f 114/221/12 118/234/12 123/249/12 121/242/12
f 123/248/16 124/251/16 128/259/16 127/257/16
f 116/227/11 122/245/11 124/252/11 120/240/11
f 122/244/15 121/241/15 125/253/15 126/255/15
f 121/242/12 123/249/12 127/258/12 125/254/12
f 124/252/11 122/245/11 126/256/11 128/260/11
f 114/222/18 121/243/18 122/246/18 116/228/18
f 132/270/16 131/267/16 135/277/16 136/279/16
f 113/217/14 115/223/14 130/264/14 129/261/14
f 119/235/14 117/229/14 131/268/14 132/271/14
f 117/229/14 113/217/14 129/261/14 131/268/14
f 129/262/15 130/265/15 134/275/15 133/273/15
f 131/269/12 129/263/12 133/274/12 135/278/12
f 130/266/11 132/272/11 136/280/11 134/276/11
f 179/372/12 94/170/12 90/158/12 180/374/12
f 176/365/15 138/284/15 140/290/15 173/359/15
f 173/360/11 140/291/11 144/304/11 174/361/11
f 174/362/16 144/302/16 142/296/16 175/363/16
f 139/287/14 143/299/14 156/335/14 154/328/14
f 144/303/17 148/314/17 147/311/17 142/297/17
f 138/286/12 142/298/12 147/313/12 145/306/12
f 147/312/16 148/315/16 152/323/16 151/321/16
f 140/291/11 146/309/11 148/316/11 144/304/11
f 146/308/15 145/305/15 149/317/15 150/319/15
f 145/306/12 147/313/12 151/322/12 149/318/12
f 148/316/11 146/309/11 150/320/11 152/324/11
f 138/285/18 145/307/18 146/310/18 140/292/18
f 156/334/16 155/331/16 159/341/16 160/343/16
f 137/281/14 139/287/14 154/328/14 153/325/14
f 143/299/14 141/293/14 155/332/14 156/335/14
f 141/293/14 137/281/14 153/325/14 155/332/14
f 153/326/15 154/329/15 158/339/15 157/337/15
f 155/333/12 153/327/12 157/338/12 159/342/12
f 154/330/11 156/336/11 160/344/11 158/340/11
s 1
f 166/351/11 172/358/11 171/357/11 164/349/11
f 172/358/19 166/351/19 165/350/19 169/355/19
f 167/352/20 168/354/20 161/345/20 163/347/20
f 170/356/12 162/346/12 161/345/12 168/354/12
f 162/346/21 170/356/21 169/355/21 165/350/21
s 0
f 137/282/15 176/365/15 173/359/15 139/288/15
f 139/289/22 173/360/22 174/361/22 143/300/22
f 143/301/16 174/362/16 175/363/16 141/294/16
f 141/295/23 175/364/23 176/366/23 137/283/23
f 89/154/15 180/373/15 177/367/15 91/160/15
f 91/161/22 177/368/22 178/369/22 95/172/22
f 95/173/16 178/370/16 179/371/16 93/166/16
f 93/167/23 179/372/23 180/374/23 89/155/23
f 113/218/15 184/381/15 181/375/15 115/224/15
f 115/225/22 181/376/22 182/377/22 119/236/22
f 119/237/16 182/378/16 183/379/16 117/230/16
f 117/231/23 183/380/23 184/382/23 113/219/23
f 175/364/12 142/298/12 138/286/12 176/366/12
s 1
f 163/348/24 164/349/24 171/357/24 167/353/24
