# Blender 3.4.0
# www.blender.org
mtllib stairs_2.mtl
o stairs_2
v -1.999999 1.300000 -0.000000
v -1.999999 1.500000 -0.000001
v 1.999999 1.300000 -0.000000
v 0.200000 -0.200000 2.000000
v 2.000000 -0.200000 2.000000
v 0.200000 1.300000 -0.000000
v 0.200000 1.500000 -0.000000
v 2.000000 1.500000 -0.000000
v 0.200000 -0.000000 2.000000
v 0.200000 0.565602 1.676582
v 0.200000 0.600000 1.644999
v 2.000000 0.565602 1.676582
v 0.200000 0.265602 2.076583
v 0.200000 0.300000 2.045000
v 2.000000 0.300000 2.045000
v 2.000000 0.265602 2.076583
v 0.200000 1.465602 0.476582
v 0.200000 1.500000 0.445000
v 2.000000 1.500000 0.445000
v 2.000000 1.465602 0.476582
v 0.200000 1.165602 0.876582
v 0.200000 1.200000 0.844999
v 2.000000 1.200000 0.844999
v 2.000000 1.165602 0.876582
v 0.200000 0.865602 1.276582
v 0.200000 0.900000 1.244999
v 2.000000 0.900000 1.244999
v 2.000000 0.865602 1.276582
v 0.200000 0.600000 1.199999
v 2.000000 0.600000 1.199999
v 0.200000 0.300000 1.600000
v 2.000000 0.300000 1.600000
v 0.200000 1.200000 0.400000
v 2.000000 1.200000 0.399999
v 0.200000 0.900000 0.799999
v 2.000000 0.900000 0.799999
v 2.000000 -0.000000 2.000000
v 2.000000 0.600000 1.644999
v -1.999999 1.300000 -4.000000
v -1.999999 1.500000 -4.000000
v 1.999999 1.300000 -4.000000
v 1.999999 1.500000 -4.000000
vn -0.0000 1.0000 -0.0000
vn -0.0000 0.6763 0.7366
vn -1.0000 -0.0000 -0.0000
vn -0.0000 -0.2770 0.9609
vn 0.0021 -0.2770 0.9609
vn 0.0022 -0.2770 0.9609
vn -0.0000 -0.8000 -0.6000
vn -0.0000 -0.2771 0.9609
vn 1.0000 -0.0000 -0.0000
vn -0.0000 -0.0000 1.0000
vn -0.0000 -1.0000 -0.0000
vn -0.0000 -0.0000 -1.0000
vt -0.166666 0.716667
vt -0.166666 0.487236
vt 0.716667 0.487236
vt -0.166666 0.487236
vt -0.166666 0.783333
vt 0.783333 0.487236
vt 1.166666 0.716667
vt 1.166666 0.487236
vt 0.716667 0.487236
vt 0.566666 1.153903
vt 0.216667 1.153903
vt 0.566666 0.216667
vt 1.166666 1.153903
vt 0.216667 1.153903
vt 1.166666 0.216667
vt 0.566666 0.487236
vt 0.716667 0.487236
vt 0.783333 0.487236
vt 0.566666 0.487236
vt 1.166666 0.487236
vt 1.166666 0.783333
vt 0.783333 0.487236
vt 0.283333 1.153903
vt 0.566666 0.283333
vt 0.566666 0.471867
vt 0.471867 1.046097
vt 0.566666 1.035569
vt 0.566666 0.483333
vt 0.483333 1.035569
vt 1.166666 0.471867
vt 0.471867 1.046097
vt 0.566666 0.371867
vt 0.371867 1.179430
vt 0.566666 1.168903
vt 0.566666 0.383333
vt 0.383333 1.168903
vt 1.166666 1.168903
vt 1.166666 0.383333
vt 0.383333 1.168903
vt 1.166666 0.371867
vt 0.371867 1.179430
vt 0.566666 0.771867
vt 0.771867 0.646097
vt 0.566666 0.783333
vt 0.783333 0.635569
vt 0.566666 0.635569
vt 1.166666 0.783333
vt 0.783333 0.635569
vt 1.166666 0.635569
vt 1.166666 0.771867
vt 0.771867 0.646097
vt 0.566666 0.671867
vt 0.671867 0.779430
vt 0.566666 0.683333
vt 0.566666 0.768903
vt 0.683333 0.768903
vt 1.166666 0.683333
vt 1.166666 0.768903
vt 0.683333 0.768903
vt 1.166666 0.671867
vt 0.671867 0.779430
vt 0.566666 0.571867
vt 0.571867 0.912763
vt 0.566666 0.583333
vt 0.566666 0.902236
vt 0.583333 0.902236
vt 1.166666 0.583333
vt 1.166666 0.902236
vt 0.583333 0.902236
vt 1.166666 0.571867
vt 0.571867 0.912763
vt 0.566666 0.887236
vt 0.566666 0.483333
vt 0.483333 0.887236
vt 1.166666 0.887236
vt 1.166666 0.483333
vt 0.483333 0.887236
vt 0.566666 1.020570
vt 0.566666 0.383333
vt 0.383333 1.020570
vt 1.166666 1.020570
vt 1.166666 0.383333
vt 0.383333 1.020570
vt 0.566666 0.683333
vt 0.566666 0.620569
vt 0.683333 0.620569
vt 1.166666 0.683333
vt 1.166666 0.620569
vt 0.683333 0.620569
vt 0.566666 0.583333
vt 0.566666 0.753903
vt 0.583333 0.753903
vt 1.166666 0.583333
vt 1.166666 0.753903
vt 0.583333 0.753903
vt 0.283333 1.153903
vt 1.166666 0.283333
vt 1.166667 1.035569
vt 1.166667 0.483333
vt 0.483333 1.035569
vt -0.166666 -0.846097
vt -0.166666 0.716667
vt 0.716667 -0.846097
vt -0.166666 -0.846097
vt -0.166666 0.783333
vt 0.783333 -0.846097
vt 1.166666 -0.846097
vt 1.166666 0.716667
vt 0.716667 -0.846097
vt 1.166666 -0.846097
vt 1.166666 0.783333
vt 0.783333 -0.846097
s 0
usemtl concrete_4
f 42/110/1 40/104/1 2/4/1 8/20/1
f 31/78/1 14/34/1 15/37/1 32/81/1
f 25/62/2 28/70/2 27/67/2 26/64/2
f 35/92/3 33/86/3 6/17/3 29/74/3
f 34/87/4 20/50/4 17/42/4 33/84/4
f 32/82/5 12/30/6 10/25/5 31/79/5
f 21/52/2 24/60/2 23/57/2 22/54/2
f 16/40/4 13/32/4 9/24/4 37/97/4
f 30/75/1 29/72/1 11/27/1 38/98/1
f 33/85/1 22/55/1 23/58/1 34/88/1
f 4/10/7 6/16/7 3/8/7 5/13/7
f 36/93/8 24/60/8 21/52/8 35/90/8
f 6/17/3 33/86/3 18/45/3 7/18/3
f 17/42/2 20/50/2 19/47/2 18/44/2
f 13/32/2 16/40/2 15/38/2 14/35/2
f 30/76/4 28/70/4 25/62/4 29/73/4
f 35/91/1 26/65/1 27/68/1 36/94/1
f 11/28/2 10/25/2 12/30/2 38/99/2
f 19/48/9 20/51/9 34/89/9
f 27/69/9 28/71/9 30/77/9 36/95/9
f 14/36/3 31/80/3 9/23/3 13/33/3
f 3/9/9 34/89/9 36/95/9 30/77/9
f 22/56/3 33/86/3 35/92/3 21/53/3
f 26/66/3 35/92/3 29/74/3 25/63/3
f 4/11/3 31/80/3 29/74/3 6/17/3
f 5/14/9 32/83/9 37/96/9
f 17/43/3 18/45/3 33/86/3
f 19/48/9 34/89/9 3/9/9 8/22/9
f 32/83/9 5/14/9 3/9/9 30/77/9
f 31/80/3 4/11/3 9/23/3
f 32/83/9 15/39/9 16/41/9 37/96/9
f 23/59/9 24/61/9 36/95/9 34/89/9
f 38/100/9 12/31/9 32/83/9 30/77/9
f 11/29/3 29/74/3 31/80/3 10/26/3
f 7/19/1 18/46/1 19/49/1 8/20/1
f 2/5/10 1/1/10 3/7/10 8/21/10
f 41/107/11 3/8/11 1/2/11 39/101/11
f 37/97/10 9/24/10 4/12/10 5/15/10
f 39/102/12 40/105/12 42/111/12 41/108/12
f 2/6/3 40/106/3 39/103/3 1/3/3
f 41/109/9 42/112/9 8/22/9 3/9/9
