# Blender 3.4.0
# www.blender.org
mtllib dirty_sock_mx_1.mtl
o dirty_sock_mx_1
v -0.101972 0.009653 -0.171380
v -0.092312 0.000053 -0.167949
v -0.099152 0.002865 -0.170413
v -0.090819 0.000053 -0.151892
v -0.097797 0.002865 -0.150560
v -0.058794 0.000051 -0.038177
v -0.065890 0.001691 -0.037370
v -0.059675 -0.000000 -0.005522
v -0.066763 0.002343 -0.004983
v -0.056181 0.000000 0.013819
v -0.062957 0.002929 0.016088
v -0.049033 0.000000 0.027979
v -0.056971 0.010000 0.034443
v -0.054646 0.002929 0.032550
v -0.032922 0.000000 0.040781
v -0.037624 0.010000 0.049818
v -0.036247 0.002929 0.047171
v -0.007901 -0.000000 0.048195
v -0.010790 0.001757 0.054714
v 0.109867 -0.000000 0.119761
v 0.107053 0.006000 0.129753
v 0.107878 0.001757 0.126826
v 0.131971 -0.000000 0.119828
v 0.133427 0.001757 0.126903
v 0.160853 -0.000000 0.107314
v 0.167185 0.006000 0.115468
v 0.165330 0.001757 0.113080
v 0.173547 -0.000000 0.090927
v 0.184156 0.006000 0.093561
v 0.181049 0.001757 0.092789
v 0.169678 -0.000000 0.068715
v 0.176314 0.001757 0.065605
v 0.154477 -0.000000 0.050820
v 0.161044 0.006000 0.043105
v 0.159121 0.001757 0.045365
v 0.048186 -0.000000 -0.013428
v 0.052821 0.001757 -0.018889
v 0.032461 -0.000000 -0.031832
v 0.038333 0.001757 -0.035845
v 0.017771 0.000051 -0.059241
v 0.024341 0.001691 -0.061951
v -0.016395 0.000053 -0.173537
v -0.009699 0.002865 -0.175829
v -0.021672 0.000053 -0.187182
v -0.014524 0.009653 -0.195190
v -0.016628 0.002865 -0.192881
v -0.092312 0.019253 -0.167949
v -0.099152 0.016441 -0.170413
v -0.100687 0.009653 -0.150008
v -0.090819 0.019253 -0.151892
v -0.097797 0.016441 -0.150560
v -0.068829 0.005651 -0.037036
v -0.058794 0.011251 -0.038177
v -0.065890 0.009611 -0.037370
v -0.069699 0.008000 -0.004760
v -0.059675 0.016000 -0.005522
v -0.066763 0.013657 -0.004983
v -0.065764 0.010000 0.017028
v -0.056181 0.020000 0.013819
v -0.062957 0.017071 0.016088
v -0.049033 0.020000 0.027979
v -0.054646 0.017071 0.032550
v -0.032922 0.020000 0.040781
v -0.036247 0.017071 0.047171
v -0.011986 0.006000 0.057414
v -0.007901 0.012000 0.048195
v -0.010790 0.010243 0.054714
v 0.109867 0.012000 0.119761
v 0.107878 0.010243 0.126826
v 0.134030 0.006000 0.129834
v 0.131971 0.012000 0.119828
v 0.133427 0.010243 0.126903
v 0.160853 0.012000 0.107314
v 0.165330 0.010243 0.113080
v 0.173547 0.012000 0.090927
v 0.181049 0.010243 0.092789
v 0.179062 0.006000 0.064317
v 0.169678 0.012000 0.068715
v 0.176314 0.010243 0.065605
v 0.154477 0.012000 0.050820
v 0.159121 0.010243 0.045365
v 0.054741 0.006000 -0.021151
v 0.048186 0.012000 -0.013428
v 0.052821 0.010243 -0.018889
v 0.040765 0.006000 -0.037508
v 0.032461 0.012000 -0.031832
v 0.038333 0.010243 -0.035845
v 0.027063 0.005651 -0.063074
v 0.017771 0.011251 -0.059241
v 0.024341 0.009611 -0.061951
v -0.006926 0.009653 -0.176778
v -0.016395 0.019253 -0.173537
v -0.009699 0.016441 -0.175829
v -0.021672 0.019253 -0.187182
v -0.016628 0.016441 -0.192881
v -0.092522 0.008000 -0.122500
v -0.082571 -0.000000 -0.124012
v -0.089608 0.002343 -0.122943
v -0.007076 -0.000000 -0.145367
v -0.000444 0.002343 -0.147868
v -0.089608 0.013657 -0.122943
v -0.082571 0.016000 -0.124012
v 0.002304 0.008000 -0.148904
v -0.000444 0.013657 -0.147868
v -0.007076 0.016000 -0.145367
vn 0.1099 0.9920 -0.0623
vn 0.0541 0.9841 0.1691
vn -0.0372 0.9906 0.1320
vn 0.0856 0.9912 -0.1006
vn -0.1219 -0.9924 0.0158
vn 0.1095 -0.9930 -0.0447
vn 0.0913 -0.9938 -0.0630
vn -0.1648 -0.9861 0.0204
vn -0.1896 -0.9580 -0.2150
vn -0.1914 -0.9810 0.0315
vn -0.6934 -0.7111 0.1164
vn -0.6051 -0.6448 -0.4670
vn -0.9837 0.0074 0.1795
vn -0.8342 -0.0000 -0.5515
vn -0.6162 -0.7698 0.1664
vn -0.5713 -0.8173 0.0755
vn -0.9929 -0.0167 0.1177
vn -0.9590 -0.0046 0.2833
vn -0.6065 0.7611 0.2300
vn -0.5851 0.8100 0.0388
vn -0.1211 0.9925 -0.0188
vn -0.1304 0.9844 0.1178
vn -0.6503 -0.7562 0.0721
vn -0.9980 -0.0016 0.0639
vn -0.1892 -0.9795 0.0686
vn -0.6699 -0.7036 0.2369
vn -0.9505 0.0124 0.3106
vn -0.1676 -0.9764 0.1364
vn -0.5630 -0.6877 0.4584
vn -0.7754 -0.0000 0.6314
vn -0.0986 -0.9808 0.1683
vn -0.3431 -0.7142 0.6100
vn -0.4504 0.0207 0.8926
vn -0.0543 -0.9918 0.1158
vn -0.2486 -0.8115 0.5288
vn -0.3907 -0.0231 0.9202
vn -0.0372 -0.9906 0.1320
vn -0.1618 -0.8024 0.5744
vn -0.2711 -0.0000 0.9626
vn 0.0271 -0.9909 0.1316
vn 0.1194 -0.8056 0.5803
vn 0.2015 -0.0000 0.9795
vn 0.0836 -0.9907 0.1077
vn 0.3653 -0.8033 0.4704
vn 0.6133 -0.0000 0.7898
vn 0.1363 -0.9901 0.0338
vn 0.5828 -0.7996 0.1447
vn 0.9705 -0.0000 0.2409
vn 0.1240 -0.9906 -0.0581
vn 0.5401 -0.8026 -0.2532
vn 0.9055 -0.0000 -0.4244
vn 0.0856 -0.9912 -0.1006
vn 0.3816 -0.8084 -0.4483
vn 0.6482 -0.0000 -0.7615
vn 0.0698 -0.9942 -0.0823
vn 0.3492 -0.8418 -0.4115
vn 0.6471 -0.0000 -0.7624
vn 0.4507 -0.8381 -0.3073
vn 0.8243 0.0022 -0.5662
vn 0.5217 -0.8263 -0.2122
vn 0.9277 -0.0065 -0.3732
vn 0.1482 -0.9877 -0.0497
vn 0.1732 -0.9827 -0.0663
vn 0.6479 -0.7208 -0.2462
vn 0.6099 -0.7669 -0.1998
vn 0.9396 0.0076 -0.3423
vn 0.9571 -0.0039 -0.2898
vn 0.0586 -0.9592 -0.2766
vn 0.3071 -0.6511 -0.6941
vn 0.4763 -0.0000 -0.8793
vn -0.6797 0.7169 0.1550
vn -0.6051 0.6448 -0.4670
vn -0.1775 0.9803 0.0866
vn -0.1896 0.9580 -0.2150
vn -0.1479 -0.9882 0.0390
vn 0.1148 0.9921 -0.0513
vn 0.1733 0.9845 0.0265
vn -0.6669 0.7436 -0.0469
vn -0.1812 0.9739 -0.1367
vn -0.6760 0.7171 0.1697
vn -0.1823 0.9828 -0.0304
vn -0.5630 0.6877 0.4584
vn -0.1415 0.9832 0.1155
vn -0.2403 0.7283 0.6418
vn 0.0121 0.9809 0.1943
vn -0.1488 0.7918 0.5924
vn -0.1618 0.8024 0.5744
vn 0.1194 0.8056 0.5803
vn 0.0271 0.9909 0.1316
vn 0.3653 0.8033 0.4704
vn 0.0836 0.9907 0.1077
vn 0.5828 0.7996 0.1447
vn 0.1363 0.9901 0.0338
vn 0.5401 0.8026 -0.2532
vn 0.1240 0.9906 -0.0581
vn 0.3816 0.8084 -0.4483
vn 0.3492 0.8418 -0.4115
vn 0.4446 0.8384 -0.3152
vn 0.1252 0.9890 -0.0793
vn 0.5290 0.8241 -0.2025
vn 0.6557 0.7267 -0.2050
vn 0.6336 0.7604 -0.1426
vn 0.1891 0.9819 -0.0130
vn 0.3071 0.6511 -0.6941
vn 0.0586 0.9592 -0.2766
vt 0.119803 0.934185
vt 0.151390 0.919719
vt 0.129051 0.930043
vt 0.141235 0.880168
vt 0.114726 0.881460
vt 0.146851 0.586273
vt 0.120435 0.588903
vt 0.112053 0.508367
vt 0.085918 0.511634
vt 0.105946 0.459636
vt 0.079267 0.458546
vt 0.118072 0.421005
vt 0.083122 0.410582
vt 0.093358 0.413634
vt 0.163896 0.379865
vt 0.138153 0.361176
vt 0.145693 0.366650
vt 0.247133 0.345938
vt 0.230386 0.332132
vt 0.603425 0.098118
vt 0.583584 0.075920
vt 0.589392 0.082421
vt 0.683240 0.083726
vt 0.681649 0.065785
vt 0.799725 0.095201
vt 0.814717 0.071528
vt 0.810324 0.078462
vt 0.861471 0.126406
vt 0.897257 0.113246
vt 0.886775 0.117101
vt 0.868993 0.182276
vt 0.895988 0.185478
vt 0.831387 0.235069
vt 0.862594 0.249382
vt 0.853451 0.245190
vt 0.509490 0.457911
vt 0.531530 0.468050
vt 0.470486 0.512264
vt 0.495591 0.518128
vt 0.443941 0.587590
vt 0.470305 0.589873
vt 0.431149 0.884263
vt 0.457565 0.885459
vt 0.425288 0.920451
vt 0.458875 0.935092
vt 0.449036 0.930900
vt 0.151390 0.919719
vt 0.129051 0.930043
vt 0.103747 0.881995
vt 0.141235 0.880168
vt 0.114726 0.881460
vt 0.109485 0.589992
vt 0.146851 0.586273
vt 0.120435 0.588903
vt 0.075091 0.512990
vt 0.112053 0.508367
vt 0.085918 0.511634
vt 0.068212 0.458095
vt 0.105946 0.459636
vt 0.079267 0.458546
vt 0.118072 0.421005
vt 0.093358 0.413634
vt 0.163896 0.379865
vt 0.145693 0.366650
vt 0.223449 0.326412
vt 0.247133 0.345938
vt 0.230386 0.332132
vt 0.603425 0.098118
vt 0.589392 0.082421
vt 0.680988 0.058354
vt 0.683240 0.083726
vt 0.681649 0.065785
vt 0.799725 0.095201
vt 0.810324 0.078462
vt 0.861471 0.126406
vt 0.886775 0.117101
vt 0.907166 0.186804
vt 0.868993 0.182276
vt 0.895988 0.185478
vt 0.831387 0.235069
vt 0.853451 0.245190
vt 0.540655 0.472250
vt 0.509490 0.457911
vt 0.531530 0.468050
vt 0.505992 0.520556
vt 0.470486 0.512264
vt 0.495591 0.518128
vt 0.481231 0.590819
vt 0.443941 0.587590
vt 0.470305 0.589873
vt 0.468503 0.885952
vt 0.431149 0.884263
vt 0.457565 0.885459
vt 0.425288 0.920451
vt 0.449036 0.930900
vt 0.106619 0.810632
vt 0.144043 0.807858
vt 0.117580 0.809819
vt 0.437542 0.810565
vt 0.463935 0.812303
vt 0.117580 0.809819
vt 0.144043 0.807858
vt 0.474867 0.813024
vt 0.463935 0.812303
vt 0.437542 0.810565
s 1
usemtl dirty_sock_mx_1
f 83/83/1 66/66/2 68/68/3 80/80/4
f 6/6/5 40/40/6 38/38/7 8/8/8
f 2/2/9 4/4/10 5/5/11 3/3/12
f 3/3/12 5/5/11 49/49/13 1/1/14
f 98/98/15 7/7/16 52/52/17 96/96/18
f 101/101/19 54/54/20 53/53/21 102/102/22
f 6/6/5 8/8/8 9/9/23 7/7/16
f 7/7/16 9/9/23 55/55/24 52/52/17
f 8/8/8 10/10/25 11/11/26 9/9/23
f 9/9/23 11/11/26 58/58/27 55/55/24
f 10/10/25 12/12/28 14/14/29 11/11/26
f 11/11/26 14/14/29 13/13/30 58/58/27
f 12/12/28 15/15/31 17/17/32 14/14/29
f 14/14/29 17/17/32 16/16/33 13/13/30
f 15/15/31 18/18/34 19/19/35 17/17/32
f 17/17/32 19/19/35 65/65/36 16/16/33
f 18/18/34 20/20/37 22/22/38 19/19/35
f 19/19/35 22/22/38 21/21/39 65/65/36
f 20/20/37 23/23/40 24/24/41 22/22/38
f 22/22/38 24/24/41 70/70/42 21/21/39
f 23/23/40 25/25/43 27/27/44 24/24/41
f 24/24/41 27/27/44 26/26/45 70/70/42
f 25/25/43 28/28/46 30/30/47 27/27/44
f 27/27/44 30/30/47 29/29/48 26/26/45
f 28/28/46 31/31/49 32/32/50 30/30/47
f 30/30/47 32/32/50 77/77/51 29/29/48
f 31/31/49 33/33/52 35/35/53 32/32/50
f 32/32/50 35/35/53 34/34/54 77/77/51
f 33/33/52 36/36/55 37/37/56 35/35/53
f 35/35/53 37/37/56 82/82/57 34/34/54
f 36/36/55 38/38/7 39/39/58 37/37/56
f 37/37/56 39/39/58 85/85/59 82/82/57
f 38/38/7 40/40/6 41/41/60 39/39/58
f 39/39/58 41/41/60 88/88/61 85/85/59
f 99/99/62 42/42/63 43/43/64 100/100/65
f 100/100/65 43/43/64 91/91/66 103/103/67
f 42/42/63 44/44/68 46/46/69 43/43/64
f 43/43/64 46/46/69 45/45/70 91/91/66
f 44/44/68 2/2/9 3/3/12 46/46/69
f 46/46/69 3/3/12 1/1/14 45/45/70
f 1/1/14 49/49/13 51/51/71 48/48/72
f 48/48/72 51/51/71 50/50/73 47/47/74
f 97/97/75 6/6/5 7/7/16 98/98/15
f 97/97/75 99/99/62 40/40/6 6/6/5
f 102/102/22 53/53/21 89/89/76 105/105/77
f 52/52/17 55/55/24 57/57/78 54/54/20
f 54/54/20 57/57/78 56/56/79 53/53/21
f 55/55/24 58/58/27 60/60/80 57/57/78
f 57/57/78 60/60/80 59/59/81 56/56/79
f 58/58/27 13/13/30 62/62/82 60/60/80
f 60/60/80 62/62/82 61/61/83 59/59/81
f 13/13/30 16/16/33 64/64/84 62/62/82
f 62/62/82 64/64/84 63/63/85 61/61/83
f 16/16/33 65/65/36 67/67/86 64/64/84
f 64/64/84 67/67/86 66/66/2 63/63/85
f 65/65/36 21/21/39 69/69/87 67/67/86
f 67/67/86 69/69/87 68/68/3 66/66/2
f 21/21/39 70/70/42 72/72/88 69/69/87
f 69/69/87 72/72/88 71/71/89 68/68/3
f 70/70/42 26/26/45 74/74/90 72/72/88
f 72/72/88 74/74/90 73/73/91 71/71/89
f 26/26/45 29/29/48 76/76/92 74/74/90
f 74/74/90 76/76/92 75/75/93 73/73/91
f 29/29/48 77/77/51 79/79/94 76/76/92
f 76/76/92 79/79/94 78/78/95 75/75/93
f 77/77/51 34/34/54 81/81/96 79/79/94
f 79/79/94 81/81/96 80/80/4 78/78/95
f 34/34/54 82/82/57 84/84/97 81/81/96
f 81/81/96 84/84/97 83/83/1 80/80/4
f 82/82/57 85/85/59 87/87/98 84/84/97
f 84/84/97 87/87/98 86/86/99 83/83/1
f 85/85/59 88/88/61 90/90/100 87/87/98
f 87/87/98 90/90/100 89/89/76 86/86/99
f 103/103/67 91/91/66 93/93/101 104/104/102
f 104/104/102 93/93/101 92/92/103 105/105/77
f 91/91/66 45/45/70 95/95/104 93/93/101
f 93/93/101 95/95/104 94/94/105 92/92/103
f 45/45/70 1/1/14 48/48/72 95/95/104
f 95/95/104 48/48/72 47/47/74 94/94/105
f 47/47/74 50/50/73 92/92/103 94/94/105
f 2/2/9 44/44/68 42/42/63 4/4/10
f 96/96/18 101/101/19 51/51/71 49/49/13
f 86/86/99 63/63/85 66/66/2 83/83/1
f 53/53/21 56/56/79 86/86/99 89/89/76
f 86/86/99 56/56/79 59/59/81
f 59/59/81 61/61/83 86/86/99
f 61/61/83 63/63/85 86/86/99
f 8/8/8 38/38/7 10/10/25
f 10/10/25 38/38/7 12/12/28
f 12/12/28 38/38/7 15/15/31
f 15/15/31 38/38/7 36/36/55 18/18/34
f 18/18/34 36/36/55 33/33/52 20/20/37
f 80/80/4 68/68/3 71/71/89 78/78/95
f 78/78/95 71/71/89 73/73/91 75/75/93
f 20/20/37 33/33/52 31/31/49 23/23/40
f 23/23/40 31/31/49 28/28/46 25/25/43
f 52/52/17 54/54/20 101/101/19 96/96/18
f 90/90/100 104/104/102 105/105/77 89/89/76
f 88/88/61 103/103/67 104/104/102 90/90/100
f 50/50/73 102/102/22 105/105/77 92/92/103
f 4/4/10 42/42/63 99/99/62 97/97/75
f 4/4/10 97/97/75 98/98/15 5/5/11
f 41/41/60 100/100/65 103/103/67 88/88/61
f 40/40/6 99/99/62 100/100/65 41/41/60
f 51/51/71 101/101/19 102/102/22 50/50/73
f 5/5/11 98/98/15 96/96/18 49/49/13
