# Blender 3.4.0
# www.blender.org
mtllib mouse_pad_mp_1.mtl
o mouse_pad_mp_1
v -0.120000 0.000000 -0.136472
v -0.110400 -0.000000 -0.146072
v -0.117188 0.000000 -0.143261
v -0.110400 -0.000000 0.146072
v -0.120000 0.000000 0.136472
v -0.117188 0.000000 0.143261
v 0.110400 0.000000 -0.146072
v 0.120000 0.000000 -0.136472
v 0.117188 0.000000 -0.143261
v 0.120000 0.000000 0.136472
v 0.110400 0.000000 0.146072
v 0.117188 0.000000 0.143261
v -0.110400 0.004000 -0.146072
v -0.120000 0.004000 -0.136472
v -0.117188 0.004000 -0.143261
v -0.120000 0.004000 0.136472
v -0.110400 0.004000 0.146072
v -0.117188 0.004000 0.143261
v 0.120000 0.004000 -0.136472
v 0.110400 0.004000 -0.146072
v 0.117188 0.004000 -0.143261
v 0.110400 0.004000 0.146072
v 0.120000 0.004000 0.136472
v 0.117188 0.004000 0.143261
vn -0.9808 -0.0000 -0.1951
vn -0.9808 -0.0000 0.1951
vn -0.0000 1.0000 -0.0000
vn -0.1951 -0.0000 0.9808
vn 0.1951 -0.0000 0.9808
vn 0.9808 -0.0000 0.1951
vn 0.9808 -0.0000 -0.1951
vn -0.0000 -1.0000 -0.0000
vn 0.1951 -0.0000 -0.9808
vn 0.7071 -0.0000 -0.7071
vn 0.7071 -0.0000 0.7071
vn -0.7071 -0.0000 0.7071
vn -0.1951 -0.0000 -0.9808
vn -0.7071 -0.0000 -0.7071
vt 0.032862 0.000000
vt 0.000000 0.040000
vt 0.009636 0.011716
vt 1.000000 0.040000
vt 0.967138 0.000000
vt 0.990365 0.011716
vt 0.000000 0.960000
vt 0.032862 1.000000
vt 0.009636 0.988284
vt 0.967138 1.000000
vt 1.000000 0.960000
vt 0.990365 0.988284
vt 0.000000 0.040000
vt 0.032862 0.000000
vt 0.009636 0.011716
vt 0.967138 0.000000
vt 1.000000 0.040000
vt 0.990365 0.011716
vt 0.032862 1.000000
vt 0.000000 0.960000
vt 0.009636 0.988284
vt 1.000000 0.960000
vt 0.967138 1.000000
vt 0.990365 0.988284
s 1
usemtl mouse_pad_mp_1
f 1/1/1 5/5/2 16/16/2 14/14/1
f 13/13/3 15/15/3 14/14/3 16/16/3 18/18/3 17/17/3 22/22/3 24/24/3 23/23/3 19/19/3 21/21/3 20/20/3
f 4/4/4 11/11/5 22/22/5 17/17/4
f 10/10/6 8/8/7 19/19/7 23/23/6
f 1/1/8 3/3/8 2/2/8 7/7/8 9/9/8 8/8/8 10/10/8 12/12/8 11/11/8 4/4/8 6/6/8 5/5/8
f 7/7/9 20/20/9 21/21/10 9/9/10
f 9/9/10 21/21/10 19/19/7 8/8/7
f 22/22/5 11/11/5 12/12/11 24/24/11
f 24/24/11 12/12/11 10/10/6 23/23/6
f 4/4/4 17/17/4 18/18/12 6/6/12
f 6/6/12 18/18/12 16/16/2 5/5/2
f 13/13/13 2/2/13 3/3/14 15/15/14
f 15/15/14 3/3/14 1/1/1 14/14/1
f 7/7/9 2/2/13 13/13/13 20/20/9
