# Blender 3.4.0
# www.blender.org
mtllib pc_mouse_mp_2.mtl
o pc_mouse_mp_2
v -0.000000 -0.000000 0.029086
v 0.013406 0.031517 0.037735
v 0.028415 0.026288 0.029086
v 0.038589 0.016146 0.029086
v -0.038589 0.016146 0.029086
v -0.028416 0.026288 0.029086
v -0.013406 0.031517 0.037735
v -0.026707 0.026288 0.042414
v -0.036444 0.016146 0.045839
v -0.020644 0.026288 0.052871
v -0.028341 0.016146 0.059816
v -0.005628 0.030000 0.046654
v -0.011368 0.026288 0.059606
v -0.015571 0.016146 0.069088
v -0.000000 0.016146 0.072347
v -0.000000 0.026288 0.061986
v 0.005628 0.030000 0.046654
v 0.011368 0.026288 0.059606
v 0.015570 0.016146 0.069088
v 0.020644 0.026288 0.052871
v 0.028340 0.016146 0.059816
v 0.026707 0.026288 0.042414
v 0.036444 0.016146 0.045839
v -0.000000 0.012687 -0.071344
v -0.012790 0.020163 -0.059367
v -0.015863 0.012687 -0.069183
v -0.022624 0.020795 -0.054356
v -0.029954 0.012687 -0.062003
v -0.012581 0.025266 -0.043962
v -0.026244 0.021554 -0.047938
v -0.036246 0.012687 -0.050849
v 0.012581 0.025266 -0.043962
v 0.036246 0.012687 -0.050849
v 0.026244 0.021554 -0.047938
v 0.012611 0.025266 -0.043910
v 0.022624 0.020795 -0.054356
v 0.029954 0.012687 -0.062003
v 0.012790 0.020163 -0.059367
v 0.015863 0.012687 -0.069183
v -0.024897 -0.000000 0.056709
v -0.029755 0.008039 0.061093
v -0.038234 0.008039 0.046469
v -0.032084 -0.000000 0.044312
v -0.031659 -0.000000 -0.049744
v -0.038083 0.008043 -0.051384
v -0.031300 0.008043 -0.063408
v -0.026674 -0.000000 -0.058581
v 0.040459 0.008039 0.029086
v 0.034034 -0.000000 0.029086
v -0.034034 -0.000000 0.029086
v -0.040459 0.008039 0.029086
v -0.013690 -0.000000 0.064845
v -0.016343 0.008039 0.070830
v -0.000000 -0.000000 0.067711
v -0.000000 0.008039 0.074252
v 0.013690 -0.000000 0.064845
v 0.016343 0.008039 0.070830
v 0.024897 -0.000000 0.056709
v 0.029755 0.008039 0.061093
v 0.032084 -0.000000 0.044312
v 0.038234 0.008039 0.046469
v -0.000000 -0.000000 -0.066765
v -0.000000 0.008042 -0.073225
v -0.014488 -0.000000 -0.064791
v -0.016428 0.008043 -0.070987
v 0.031659 -0.000000 -0.049744
v 0.038083 0.008043 -0.051384
v 0.026674 -0.000000 -0.058581
v 0.031300 0.008043 -0.063408
v 0.014488 -0.000000 -0.064791
v 0.016427 0.008043 -0.070987
v -0.036542 0.014508 -0.023853
v -0.026456 0.024285 -0.023853
v -0.012803 0.027997 -0.023853
v -0.031972 -0.000000 -0.023853
v -0.038395 0.008041 -0.023853
v 0.026456 0.024285 -0.023853
v 0.036542 0.014508 -0.023853
v 0.031972 -0.000000 -0.023853
v 0.038395 0.008041 -0.023853
v 0.012803 0.027997 -0.023853
v -0.013061 0.031164 0.002633
v 0.013061 0.031164 0.002633
vn 0.8723 0.4879 0.0315
vn 0.8332 0.4755 0.2822
vn 0.9222 0.2278 0.3125
vn 0.9709 0.2361 0.0408
vn -0.0000 -1.0000 -0.0000
vn -0.0000 -0.8871 -0.4616
vn 0.1396 -0.8841 -0.4459
vn 0.3357 -0.8744 -0.3502
vn 0.4626 -0.8777 -0.1251
vn 0.4339 -0.9009 -0.0109
vn 0.4515 -0.8921 0.0207
vn -0.1674 0.9802 0.1057
vn -0.1777 0.9821 -0.0629
vn -0.5386 0.8425 0.0112
vn -0.0000 0.4762 0.8793
vn -0.3563 0.4762 0.8039
vn -0.3944 0.2289 0.8900
vn -0.0000 0.2287 0.9735
vn -0.6529 0.4762 0.5891
vn -0.7227 0.2288 0.6522
vn 0.1673 0.9802 0.1056
vn 0.5234 0.8345 0.1724
vn 0.5386 0.8425 0.0112
vn 0.1355 0.9833 -0.1217
vn 0.1095 0.9672 -0.2292
vn -0.1007 0.9734 -0.2056
vn -0.1355 0.9833 -0.1217
vn -0.0497 0.9747 0.2177
vn -0.0000 0.8567 0.5159
vn 0.0497 0.9747 0.2177
vn -0.2098 0.8555 0.4734
vn 0.3563 0.4762 0.8039
vn 0.3944 0.2289 0.8900
vn 0.4948 0.8646 -0.0867
vn 0.8503 0.5240 -0.0485
vn -0.7992 0.5533 -0.2350
vn -0.5536 0.5878 -0.5899
vn -0.6382 0.3864 -0.6658
vn -0.9023 0.3538 -0.2463
vn -0.1045 0.8821 -0.4593
vn 0.1047 0.8822 -0.4592
vn -0.0000 0.6174 -0.7866
vn 0.2357 0.5984 -0.7657
vn 0.5536 0.5878 -0.5899
vn 0.7992 0.5533 -0.2350
vn 0.9023 0.3538 -0.2463
vn 0.6382 0.3864 -0.6658
vn 0.7809 -0.6243 -0.0199
vn 0.7808 -0.6239 0.0334
vn -0.9590 0.2817 -0.0313
vn -0.9709 0.2361 0.0408
vn -0.8723 0.4879 0.0315
vn -0.8503 0.5240 -0.0485
vn 0.1776 0.9821 -0.0626
vn -0.5234 0.8345 0.1724
vn -0.8332 0.4755 0.2822
vn -0.3885 0.8459 0.3654
vn -0.0000 -0.8809 0.4732
vn -0.1920 -0.8806 0.4333
vn -0.3516 -0.8807 0.3173
vn -0.4478 -0.8813 0.1511
vn -0.4515 -0.8921 0.0207
vn -0.9222 0.2278 0.3125
vn 0.3885 0.8459 0.3654
vn 0.6529 0.4762 0.5891
vn -0.2357 0.5984 -0.7657
vn -0.0000 0.3753 -0.9269
vn -0.2767 0.3769 -0.8840
vn 0.2098 0.8555 0.4734
vn 0.7227 0.2288 0.6522
vn 0.4478 -0.8813 0.1511
vn 0.3516 -0.8807 0.3173
vn 0.1920 -0.8806 0.4333
vn 0.1469 0.9522 -0.2677
vn 0.3061 0.8727 -0.3804
vn 0.4574 0.8677 -0.1949
vn 0.2767 0.3769 -0.8840
vn -0.3061 0.8727 -0.3804
vn 0.9590 0.2817 -0.0313
vn -0.4575 0.8676 -0.1947
vn -0.5758 -0.6313 0.5196
vn -0.7356 -0.6297 0.2497
vn -0.3357 -0.8744 -0.3502
vn -0.4626 -0.8777 -0.1251
vn -0.7456 -0.6358 -0.1996
vn -0.5321 -0.6392 -0.5551
vn -0.0000 -0.6311 0.7757
vn -0.3142 -0.6314 0.7089
vn -0.0000 -0.6262 -0.7796
vn 0.2324 -0.6281 -0.7426
vn -0.4339 -0.9009 -0.0109
vn -0.7808 -0.6239 0.0334
vn -0.7809 -0.6243 -0.0199
vn -0.1396 -0.8841 -0.4459
vn 0.7456 -0.6358 -0.1996
vn 0.7356 -0.6297 0.2497
vn 0.5758 -0.6313 0.5196
vn 0.3142 -0.6314 0.7089
vn 0.5321 -0.6392 -0.5551
vn -0.2324 -0.6281 -0.7426
vn -0.4949 0.8646 -0.0867
vt 0.460754 0.888571
vt 0.563437 0.876721
vt 0.577804 0.884579
vt 0.591193 0.883909
vt 0.584898 0.883857
vt 0.516438 0.883857
vt 0.512420 0.883814
vt 0.525808 0.884517
vt 0.540190 0.876693
vt 0.527938 0.871377
vt 0.515371 0.865881
vt 0.516438 0.864516
vt 0.533613 0.861324
vt 0.521659 0.837829
vt 0.523780 0.851024
vt 0.516438 0.849044
vt 0.546909 0.867988
vt 0.541870 0.854982
vt 0.536598 0.835470
vt 0.536512 0.841201
vt 0.551794 0.834686
vt 0.551852 0.837573
vt 0.551837 0.852669
vt 0.556735 0.868000
vt 0.561800 0.855006
vt 0.567184 0.841238
vt 0.566991 0.835470
vt 0.570045 0.861368
vt 0.579898 0.851092
vt 0.584898 0.849044
vt 0.581929 0.837829
vt 0.575699 0.871435
vt 0.584898 0.864516
vt 0.588277 0.865969
vt 0.551676 0.994198
vt 0.551702 0.990385
vt 0.539829 0.975245
vt 0.536417 0.994198
vt 0.536307 0.984892
vt 0.536198 0.988057
vt 0.530930 0.969851
vt 0.522427 0.980196
vt 0.522653 0.979220
vt 0.540308 0.958723
vt 0.527651 0.963426
vt 0.515480 0.972170
vt 0.512021 0.968958
vt 0.515613 0.968399
vt 0.563182 0.958772
vt 0.588132 0.972170
vt 0.587844 0.968486
vt 0.589315 0.968958
vt 0.575815 0.963486
vt 0.563206 0.958779
vt 0.572526 0.969902
vt 0.581007 0.980271
vt 0.580959 0.979220
vt 0.563607 0.975273
vt 0.567213 0.988097
vt 0.567304 0.984892
vt 0.567293 0.994198
vt 0.438355 0.860882
vt 0.520154 0.829231
vt 0.431161 0.853661
vt 0.507604 0.847109
vt 0.422735 0.869461
vt 0.507604 0.864516
vt 0.431796 0.873135
vt 0.432559 0.968872
vt 0.512229 0.976883
vt 0.423302 0.971917
vt 0.507604 0.968958
vt 0.520327 0.983960
vt 0.430318 0.985101
vt 0.437158 0.977350
vt 0.593732 0.883857
vt 0.501359 0.887666
vt 0.491772 0.888130
vt 0.429733 0.888393
vt 0.507604 0.883857
vt 0.420143 0.888010
vt 0.448386 0.852851
vt 0.535844 0.826753
vt 0.444403 0.842995
vt 0.460620 0.849910
vt 0.551794 0.825930
vt 0.460583 0.839007
vt 0.472875 0.852747
vt 0.567745 0.826753
vt 0.476790 0.842858
vt 0.482961 0.860694
vt 0.593732 0.847109
vt 0.583434 0.829231
vt 0.490105 0.853412
vt 0.489604 0.872890
vt 0.593732 0.864516
vt 0.498639 0.869140
vt 0.461089 0.985967
vt 0.551676 1.000000
vt 0.461127 0.996964
vt 0.447945 0.983833
vt 0.536116 0.999997
vt 0.533921 0.989947
vt 0.444779 0.994141
vt 0.489500 0.968631
vt 0.591383 0.976883
vt 0.498778 0.971597
vt 0.593732 0.968958
vt 0.484960 0.977147
vt 0.583284 0.983960
vt 0.491852 0.984840
vt 0.474217 0.983722
vt 0.569691 0.989947
vt 0.567594 0.999997
vt 0.477454 0.994003
vt 0.514230 0.939947
vt 0.513840 0.939805
vt 0.527027 0.938678
vt 0.540056 0.938226
vt 0.431559 0.942628
vt 0.421916 0.942959
vt 0.507604 0.939947
vt 0.576480 0.938739
vt 0.589665 0.939895
vt 0.587107 0.939947
vt 0.490319 0.942379
vt 0.499964 0.942629
vt 0.593732 0.939947
vt 0.563446 0.938258
vt 0.540051 0.911594
vt 0.563506 0.911623
s 1
usemtl pc_accessories_mp_1
f 4/5/1 23/33/2 61/96/3 48/76/4
f 1/1/5 62/98/6 70/112/7 68/109/8 66/105/9 79/126/10 49/78/11
f 7/9/12 82/130/13 6/8/14
f 15/21/15 14/19/16 53/83/17 55/86/18
f 14/19/16 11/14/19 41/63/20 53/83/17
f 2/2/21 22/32/22 3/3/23
f 81/129/24 32/49/25 29/44/26 74/119/27
f 12/17/28 16/23/29 17/24/30
f 16/23/29 13/18/31 14/20/16 15/22/15
f 19/27/32 15/21/15 55/86/18 57/89/33
f 77/123/34 3/3/23 4/4/1 78/124/35
f 31/46/36 28/43/37 46/73/38 45/70/39
f 25/37/40 38/58/41 24/36/42
f 38/58/41 39/59/43 24/36/42
f 37/57/44 33/50/45 67/106/46 69/110/47
f 49/78/11 79/126/10 80/127/48 48/77/49
f 76/122/50 51/80/51 5/6/52 72/116/53
f 83/131/54 2/2/21 3/3/23
f 8/10/55 6/8/14 5/7/52 9/11/56
f 7/9/12 10/13/57 12/17/28
f 10/13/57 8/10/55 9/11/56 11/15/19
f 54/85/58 52/82/59 40/62/60 43/68/61 50/79/62 1/1/5
f 13/18/31 10/13/57 11/15/19 14/20/16
f 9/12/56 5/6/52 51/80/51 42/67/63
f 17/24/30 20/28/64 2/2/21
f 22/32/22 20/28/64 21/29/65 23/34/2
f 26/38/66 24/35/42 63/99/67 65/102/68
f 20/28/64 18/25/69 19/26/32 21/29/65
f 23/33/2 21/30/65 59/92/70 61/96/3
f 18/25/69 16/23/29 15/22/15 19/26/32
f 21/31/65 19/27/32 57/89/33 59/93/70
f 3/3/23 22/32/22 23/34/2 4/4/1
f 54/85/58 1/1/5 49/78/11 60/95/71 58/91/72 56/88/73
f 32/49/25 35/54/74 36/55/75 38/58/41
f 38/58/41 36/55/75 37/56/44 39/59/43
f 35/54/74 32/49/25 34/53/76 36/55/75
f 36/55/75 34/53/76 33/51/45 37/56/44
f 39/60/43 37/57/44 69/110/47 71/113/77
f 24/35/42 39/61/43 71/114/77 63/99/67
f 29/44/26 25/37/40 27/41/78
f 27/41/78 25/37/40 26/40/66 28/42/37
f 78/125/35 4/5/1 48/76/4 80/128/79
f 29/44/26 27/41/78 30/45/80
f 30/45/80 27/41/78 28/42/37 31/48/36
f 28/43/37 26/39/66 65/103/68 46/73/38
f 26/40/66 25/37/40 24/36/42
f 29/44/26 32/49/25 38/58/41 25/37/40
f 43/68/61 40/62/60 41/64/81 42/66/82
f 47/75/83 44/69/84 45/71/85 46/74/86
f 52/82/59 54/85/58 55/87/87 53/84/88
f 70/112/7 62/98/6 63/100/89 71/115/90
f 75/120/91 50/79/62 51/81/92 76/121/93
f 50/79/62 75/120/91 44/69/84 47/75/83 64/101/94 62/98/6 1/1/5
f 79/126/10 66/105/9 67/107/95 80/127/48
f 58/91/72 60/95/71 61/97/96 59/94/97
f 56/88/73 58/91/72 59/94/97 57/90/98
f 54/85/58 56/88/73 57/90/98 55/87/87
f 60/95/71 49/78/11 48/77/49 61/97/96
f 68/109/8 70/112/7 71/115/90 69/111/99
f 66/105/9 68/109/8 69/111/99 67/107/95
f 62/98/6 64/101/94 65/104/100 63/100/89
f 50/79/62 43/68/61 42/66/82 51/81/92
f 40/62/60 52/82/59 53/84/88 41/64/81
f 64/101/94 47/75/83 46/74/86 65/104/100
f 11/16/19 9/12/56 42/67/63 41/65/20
f 30/45/80 73/118/101 74/119/27 29/44/26
f 44/69/84 75/120/91 76/121/93 45/71/85
f 45/72/39 76/122/50 72/116/53 31/47/36
f 31/48/36 72/117/53 73/118/101 30/45/80
f 32/49/25 81/129/24 77/123/34 34/53/76
f 34/53/76 77/123/34 78/124/35 33/51/45
f 33/52/45 78/125/35 80/128/79 67/108/46
f 12/17/28 17/24/30 2/2/21 7/9/12
f 5/7/52 6/8/14 73/118/101 72/117/53
f 20/28/64 17/24/30 18/25/69
f 20/28/64 22/32/22 2/2/21
f 10/13/57 7/9/12 8/10/55
f 16/23/29 12/17/28 13/18/31
f 16/23/29 18/25/69 17/24/30
f 10/13/57 13/18/31 12/17/28
f 81/129/24 74/119/27 82/130/13 83/131/54
f 74/119/27 73/118/101 82/130/13
f 73/118/101 6/8/14 82/130/13
f 83/131/54 3/3/23 77/123/34
f 81/129/24 83/131/54 77/123/34
f 2/2/21 83/131/54 82/130/13 7/9/12
f 8/10/55 7/9/12 6/8/14
