# Blender 3.4.0
# www.blender.org
mtllib vent_2.mtl
o vent_2
v -0.409589 -0.400000 -0.000000
v 0.409589 -0.400000 -0.000000
v -0.409589 0.400000 0.000000
v 0.409589 0.400000 0.000000
v -0.346389 0.336710 0.040000
v -0.346389 -0.339668 0.040000
v 0.346389 -0.339668 0.040000
v 0.346389 0.336710 0.040000
v -0.409589 0.400000 0.000000
v -0.409589 0.400000 0.015000
v -0.409589 -0.400000 -0.000000
v -0.409589 -0.400000 0.015000
v 0.409589 -0.400000 -0.000000
v 0.409589 -0.400000 0.015000
v 0.409589 0.400000 0.000000
v 0.409589 0.400000 0.015000
v -0.326389 0.316710 0.030000
v -0.346389 0.336710 0.010000
v -0.346389 -0.339668 0.010000
v -0.326389 -0.319668 0.030000
v 0.346389 -0.339668 0.010000
v 0.326389 -0.319668 0.030000
v 0.346389 0.336710 0.010000
v 0.326389 0.316710 0.030000
vn -0.0000 -0.0000 1.0000
vn -0.0000 1.0000 -0.0000
vn -0.0000 -1.0000 -0.0000
vn -1.0000 -0.0000 -0.0000
vn 1.0000 -0.0000 -0.0000
vn -0.3678 -0.0000 0.9299
vn -0.0000 -0.3828 0.9238
vn 0.3678 -0.0000 0.9299
vn -0.0000 0.3674 0.9301
vn -0.7071 -0.0000 0.7071
vn -0.0000 -0.7071 0.7071
vn 0.7071 -0.0000 0.7071
vn -0.0000 0.7071 0.7071
vt 0.000000 -0.000000
vt 1.000000 -0.000000
vt 0.000000 1.000000
vt 1.000000 1.000000
vt 0.077150 0.518311
vt 0.911034 0.518311
vt 0.077150 0.920887
vt 0.077150 0.518311
vt 0.085355 0.518311
vt 0.077150 0.075415
vt 0.922850 0.518311
vt 0.085355 0.518311
vt 0.922850 0.075415
vt 0.922850 0.518311
vt 0.911034 0.518311
vt 0.922850 0.920887
vt 0.000000 1.000000
vt 0.006694 0.997814
vt 0.001485 0.993223
vt 0.000000 1.000000
vt 0.000000 -0.000000
vt 0.006418 -0.003289
vt 0.001488 0.000000
vt 0.000000 0.000000
vt 1.000000 -0.000000
vt 0.998544 0.000000
vt 0.993308 -0.003415
vt 1.000000 0.000000
vt 1.000000 1.000000
vt 0.993581 0.997918
vt 0.998569 0.993425
vt 1.000000 1.000000
vt 0.097902 0.902098
vt 0.077150 0.481689
vt 0.911034 0.481689
vt 0.076923 0.923077
vt 0.077150 0.481689
vt 0.085355 0.481689
vt 0.076923 0.076923
vt 0.097902 0.097902
vt 0.922850 0.481689
vt 0.085355 0.481689
vt 0.923077 0.076923
vt 0.902098 0.097902
vt 0.922850 0.481689
vt 0.911034 0.481689
vt 0.923077 0.923077
vt 0.902098 0.902098
s 0
usemtl vent_2
f 3/3/1 1/1/1 11/21/1 9/17/1
f 4/4/1 3/3/1 9/17/1 15/29/1
f 1/1/1 2/2/1 13/25/1 11/21/1
f 2/2/1 4/4/1 15/29/1 13/25/1
f 6/8/2 7/11/2 21/41/2 19/37/2
f 8/14/3 5/5/3 18/34/3 23/45/3
f 7/12/4 8/15/4 23/46/4 21/42/4
f 5/6/5 6/9/5 19/38/5 18/35/5
f 9/17/4 11/21/4 12/22/4 10/18/4
f 12/24/6 6/10/6 5/7/6 10/20/6
f 11/21/3 13/25/3 14/26/3 12/23/3
f 14/28/7 7/13/7 6/10/7 12/24/7
f 13/25/5 15/29/5 16/30/5 14/27/5
f 16/32/8 8/16/8 7/13/8 14/28/8
f 15/29/2 9/17/2 10/19/2 16/31/2
f 10/20/9 5/7/9 8/16/9 16/32/9
f 19/39/10 20/40/10 17/33/10 18/36/10
f 21/43/11 22/44/11 20/40/11 19/39/11
f 23/47/12 24/48/12 22/44/12 21/43/12
f 18/36/13 17/33/13 24/48/13 23/47/13
f 20/40/1 22/44/1 24/48/1 17/33/1
