# Blender 3.4.0
# www.blender.org
mtllib painting_3.mtl
o painting_3
v -0.242087 -0.250000 0.000000
v 0.242087 -0.250000 0.000000
v -0.242087 0.250000 -0.000000
v 0.242087 0.250000 -0.000000
v -0.188285 0.196198 -0.000000
v -0.188285 -0.196198 0.000000
v 0.188285 -0.196198 0.000000
v 0.188285 0.196198 -0.000000
v -0.155610 0.163522 -0.008000
v -0.155610 -0.163522 -0.008000
v 0.155610 -0.163522 -0.008000
v 0.155610 0.163522 -0.008000
v 0.204226 -0.212139 0.000000
v 0.204226 0.212139 -0.000000
v -0.232124 -0.240037 0.000000
v 0.232124 0.240037 -0.000000
v -0.171947 -0.179860 -0.008000
v -0.171947 0.179860 -0.008000
v 0.171947 -0.179860 -0.008000
v 0.171947 0.179860 -0.008000
v -0.155610 0.163522 -0.013000
v -0.155610 -0.163522 -0.013000
v 0.155610 -0.163522 -0.013000
v 0.155610 0.163522 -0.013000
v -0.146910 0.154823 -0.013000
v -0.146910 -0.154823 -0.013000
v 0.146910 -0.154823 -0.013000
v 0.146910 0.154823 -0.013000
v -0.146910 0.154823 -0.018000
v -0.146910 -0.154823 -0.018000
v 0.146910 -0.154823 -0.018000
v 0.146910 0.154823 -0.018000
v -0.204226 -0.212139 0.000000
v -0.223281 -0.231193 0.005490
v -0.213070 -0.220982 0.005490
v 0.232124 -0.240037 0.000000
v 0.223281 -0.231193 0.005490
v 0.213070 -0.220982 0.005490
v 0.223281 0.231193 0.005490
v 0.213070 0.220982 0.005490
v -0.204226 0.212139 -0.000000
v -0.232124 0.240037 -0.000000
v -0.213070 0.220982 0.005490
v -0.223281 0.231193 0.005490
v -0.242087 -0.250000 -0.020000
v 0.242087 -0.250000 -0.020000
v -0.242087 0.250000 -0.020000
v 0.242087 0.250000 -0.020000
vn -0.0000 -0.0000 1.0000
vn 0.3344 -0.0000 0.9424
vn 0.1178 -0.0000 0.9930
vn -0.0000 0.3344 0.9424
vn -0.0000 0.1178 0.9930
vn -0.3344 -0.0000 0.9424
vn -0.1178 -0.0000 0.9930
vn -0.0000 -0.3344 0.9424
vn -0.0000 -0.1178 0.9930
vn -0.0000 1.0000 -0.0000
vn -0.0000 -1.0000 -0.0000
vn 1.0000 -0.0000 -0.0000
vn -1.0000 -0.0000 -0.0000
vn -0.5275 -0.0000 0.8496
vn 0.5275 -0.0000 0.8496
vn -0.0000 -0.5275 0.8496
vn -0.0000 0.5275 0.8496
vt 0.000000 0.000000
vt 0.932886 1.000000
vt 0.932886 0.000000
vt 0.872483 0.000000
vt 0.932886 0.000000
vt 0.000000 1.000000
vt 0.932886 1.000000
vt 0.872483 1.000000
vt 0.932886 0.000000
vt 0.932886 1.000000
vt 0.114094 0.894737
vt 0.114094 0.105263
vt 0.765101 0.105263
vt 0.765101 0.894737
vt 0.181208 0.827068
vt 0.181208 0.172932
vt 0.697987 0.172932
vt 0.697987 0.827068
vt 0.798658 0.075188
vt 0.798658 0.924812
vt 0.020134 0.022556
vt 0.852349 0.977444
vt 0.147651 0.142857
vt 0.147651 0.857143
vt 0.731544 0.142857
vt 0.731544 0.857143
vt 0.181208 0.827068
vt 0.181208 0.172932
vt 0.697987 0.172932
vt 0.697987 0.827068
vt 0.194631 0.812030
vt 0.194631 0.187970
vt 0.677852 0.187970
vt 0.677852 0.812030
vt 0.194631 0.812030
vt 0.194631 0.187970
vt 0.677852 0.187970
vt 0.677852 0.812030
vt 0.080537 0.075188
vt 0.033557 0.037594
vt 0.060403 0.060150
vt 0.852349 0.022556
vt 0.838926 0.037594
vt 0.812081 0.060150
vt 0.838926 0.962406
vt 0.812081 0.939850
vt 0.080537 0.924812
vt 0.020134 0.977444
vt 0.060403 0.939850
vt 0.033557 0.962406
vt 0.973154 1.000000
vt 0.973154 0.000000
vt 0.973154 0.000000
vt 0.973154 1.000000
vt 0.973154 0.000000
vt 0.973154 1.000000
s 1
usemtl painting_3
f 15/21/1 42/48/1 3/6/1 1/1/1
f 36/42/1 15/21/1 1/1/1 2/4/1
f 16/22/1 36/42/1 2/4/1 4/8/1
f 42/48/1 16/22/1 4/8/1 3/6/1
f 17/23/2 18/24/2 5/11/3 6/12/3
f 19/25/4 17/23/4 6/12/5 7/13/5
f 20/26/6 19/25/6 7/13/7 8/14/7
f 18/24/8 20/26/8 8/14/9 5/11/9
f 10/16/10 11/17/10 23/29/10 22/28/10
f 12/18/11 9/15/11 21/27/11 24/30/11
f 9/15/12 10/16/12 22/28/12 21/27/12
f 11/17/13 12/18/13 24/30/13 23/29/13
f 5/11/9 8/14/9 14/20/1 41/47/1
f 8/14/7 7/13/7 13/19/1 14/20/1
f 7/13/5 6/12/5 33/39/1 13/19/1
f 6/12/3 5/11/3 41/47/1 33/39/1
f 9/15/1 12/18/1 20/26/8 18/24/8
f 12/18/1 11/17/1 19/25/6 20/26/6
f 11/17/1 10/16/1 17/23/4 19/25/4
f 10/16/1 9/15/1 18/24/2 17/23/2
f 26/32/10 27/33/10 31/37/10 30/36/10
f 26/32/1 25/31/1 21/27/1 22/28/1
f 27/33/1 26/32/1 22/28/1 23/29/1
f 28/34/1 27/33/1 23/29/1 24/30/1
f 25/31/1 28/34/1 24/30/1 21/27/1
f 30/36/1 31/37/1 32/38/1 29/35/1
f 27/33/13 28/34/13 32/38/13 31/37/13
f 25/31/12 26/32/12 30/36/12 29/35/12
f 28/34/11 25/31/11 29/35/11 32/38/11
f 42/48/14 15/21/14 34/40/14 44/50/14
f 44/50/1 34/40/1 35/41/1 43/49/1
f 43/49/15 35/41/15 33/39/15 41/47/15
f 15/21/16 36/42/16 37/43/16 34/40/16
f 34/40/1 37/43/1 38/44/1 35/41/1
f 35/41/17 38/44/17 13/19/17 33/39/17
f 36/42/15 16/22/15 39/45/15 37/43/15
f 37/43/1 39/45/1 40/46/1 38/44/1
f 38/44/14 40/46/14 14/20/14 13/19/14
f 16/22/17 42/48/17 44/50/17 39/45/17
f 39/45/1 44/50/1 43/49/1 40/46/1
f 40/46/16 43/49/16 41/47/16 14/20/16
f 3/7/10 4/9/10 48/55/10 47/54/10
f 2/5/11 1/2/11 45/51/11 46/53/11
f 4/10/12 2/5/12 46/53/12 48/56/12
f 1/3/13 3/7/13 47/54/13 45/52/13
