# Blender 3.4.0
# www.blender.org
mtllib painting_5.mtl
o painting_5
v -0.577758 -0.491400 0.000000
v 0.577758 -0.491400 0.000000
v -0.577758 0.491400 -0.000000
v 0.577758 0.491400 -0.000000
v -0.525344 0.438986 -0.020000
v -0.525344 -0.438986 -0.020000
v 0.525344 -0.438986 -0.020000
v 0.525344 0.438986 -0.020000
v -0.432124 0.345766 -0.050000
v -0.432124 -0.345766 -0.050000
v 0.432124 -0.345766 -0.050000
v 0.432124 0.345766 -0.050000
v -0.470966 -0.384608 -0.050000
v -0.470966 0.384608 -0.050000
v 0.470966 -0.384608 -0.050000
v 0.470966 0.384608 -0.050000
v -0.414539 0.328181 -0.067011
v -0.414539 -0.328181 -0.067011
v 0.414539 -0.328181 -0.067011
v 0.414539 0.328181 -0.067011
v -0.414539 0.328181 -0.075011
v -0.414539 -0.328181 -0.075011
v 0.414539 -0.328181 -0.075011
v 0.414539 0.328181 -0.075011
v -0.577758 -0.491400 -0.080000
v 0.577758 -0.491400 -0.080000
v -0.577758 0.491400 -0.080000
v 0.577758 0.491400 -0.080000
vn 0.3912 -0.0000 0.9203
vn 0.3565 -0.0000 0.9343
vn -0.0000 0.3912 0.9203
vn -0.0000 0.3565 0.9343
vn -0.3912 -0.0000 0.9203
vn -0.3565 -0.0000 0.9343
vn -0.0000 -0.3912 0.9203
vn -0.0000 -0.3565 0.9343
vn 0.3685 -0.0000 0.9296
vn -0.0000 0.3685 0.9296
vn -0.3685 -0.0000 0.9296
vn -0.0000 -0.3685 0.9296
vn 0.6953 -0.0000 0.7187
vn -0.0000 -0.0000 1.0000
vn 1.0000 -0.0000 -0.0000
vn -0.0000 0.6953 0.7187
vn -0.6953 -0.0000 0.7187
vn -0.0000 -0.6953 0.7187
vn -0.0000 -1.0000 -0.0000
vn -0.0000 1.0000 -0.0000
vn -1.0000 -0.0000 -0.0000
vt 0.000000 0.000000
vt 0.930091 0.000000
vt 0.930091 1.000000
vt 0.917933 0.000000
vt 0.930091 0.000000
vt 0.000000 1.000000
vt 0.930091 1.000000
vt 0.917933 1.000000
vt 0.930091 1.000000
vt 0.930091 0.000000
vt 0.045360 0.946668
vt 0.045360 0.053332
vt 0.872594 0.053332
vt 0.872594 0.946668
vt 0.126034 0.851817
vt 0.126034 0.148183
vt 0.791921 0.148183
vt 0.791921 0.851817
vt 0.092420 0.108661
vt 0.092420 0.891339
vt 0.825535 0.108661
vt 0.825535 0.891339
vt 0.141252 0.833925
vt 0.141252 0.166075
vt 0.776703 0.166075
vt 0.776703 0.833925
vt 0.141252 0.833925
vt 0.141252 0.166075
vt 0.776703 0.166075
vt 0.776703 0.833925
vt 1.000000 0.000000
vt 1.000000 1.000000
vt 1.000000 0.000000
vt 1.000000 1.000000
vt 1.000000 1.000000
vt 1.000000 0.000000
s 1
usemtl painting_5
f 6/12/1 5/11/1 3/6/2 1/1/2
f 7/13/3 6/12/3 1/1/4 2/4/4
f 8/14/5 7/13/5 2/4/6 4/8/6
f 5/11/7 8/14/7 4/8/8 3/6/8
f 13/19/9 14/20/9 5/11/1 6/12/1
f 15/21/10 13/19/10 6/12/3 7/13/3
f 16/22/11 15/21/11 7/13/5 8/14/5
f 14/20/12 16/22/12 8/14/7 5/11/7
f 9/15/13 10/16/13 18/24/13 17/23/13
f 9/15/14 12/18/14 16/22/12 14/20/12
f 12/18/14 11/17/14 15/21/11 16/22/11
f 11/17/14 10/16/14 13/19/10 15/21/10
f 10/16/14 9/15/14 14/20/9 13/19/9
f 17/23/15 18/24/15 22/28/15 21/27/15
f 10/16/16 11/17/16 19/25/16 18/24/16
f 11/17/17 12/18/17 20/26/17 19/25/17
f 12/18/18 9/15/18 17/23/18 20/26/18
f 22/28/14 23/29/14 24/30/14 21/27/14
f 20/26/19 17/23/19 21/27/19 24/30/19
f 18/24/20 19/25/20 23/29/20 22/28/20
f 19/25/21 20/26/21 24/30/21 23/29/21
f 4/9/15 2/5/15 26/33/15 28/35/15
f 1/2/21 3/7/21 27/34/21 25/31/21
f 3/7/20 4/10/20 28/36/20 27/34/20
f 2/5/19 1/3/19 25/32/19 26/33/19
