# Blender 3.4.0
# www.blender.org
mtllib painting_2.mtl
o painting_2
v -0.450000 -0.450000 0.000000
v 0.450000 -0.450000 0.000000
v -0.450000 0.450000 -0.000000
v 0.450000 0.450000 -0.000000
v 0.436156 0.433406 -0.000000
v 0.436156 -0.432051 0.000000
v -0.436156 -0.432051 0.000000
v -0.436156 0.433283 -0.000000
v 0.383171 0.369895 -0.018000
v 0.383171 -0.363358 -0.018000
v -0.383171 0.369302 -0.018000
v -0.353270 -0.324592 -0.018000
v -0.383171 -0.363358 -0.018000
v 0.420766 0.414959 -0.018000
v 0.436156 0.433406 -0.008000
v 0.420766 -0.412099 -0.018000
v 0.436156 -0.432051 -0.008000
v -0.420766 -0.412099 -0.018000
v -0.436156 -0.432051 -0.008000
v -0.420766 0.414699 -0.018000
v -0.436156 0.433283 -0.008000
v -0.353270 0.333195 -0.018000
v 0.353270 -0.324592 -0.018000
v 0.353270 0.334055 -0.018000
v -0.353270 -0.324592 -0.026000
v 0.353270 -0.324592 -0.026000
v -0.353270 0.333195 -0.026000
v -0.316341 0.288603 -0.026000
v -0.316341 -0.276716 -0.026000
v 0.316341 -0.276716 -0.026000
v 0.316341 0.289791 -0.026000
v 0.353270 0.334055 -0.026000
v -0.316341 0.288603 -0.034000
v -0.316341 -0.276716 -0.034000
v 0.316341 -0.276716 -0.034000
v 0.316341 0.289791 -0.034000
v 0.395579 0.384768 -0.011399
v 0.408358 0.400086 -0.011399
v 0.408333 -0.395981 -0.011386
v 0.395603 -0.379477 -0.011386
v -0.395612 -0.379487 -0.011382
v -0.408325 -0.395970 -0.011382
v -0.408324 0.399675 -0.011381
v -0.395613 0.384326 -0.011381
v -0.329001 -0.293128 -0.019347
v -0.341669 -0.309552 -0.019519
v -0.341665 0.319183 -0.019517
v -0.329004 0.303894 -0.019345
v 0.341679 -0.309565 -0.019524
v 0.328991 -0.293115 -0.019352
v 0.328963 0.304920 -0.019367
v 0.341705 0.320193 -0.019539
v -0.450000 -0.450000 -0.040000
v 0.450000 -0.450000 -0.040000
v -0.450000 0.450000 -0.040000
v 0.450000 0.450000 -0.040000
vn -0.0000 -0.0000 1.0000
vn 0.0001 -1.0000 -0.0000
vn -0.0000 1.0000 -0.0000
vn -1.0000 -0.0000 -0.0000
vn 1.0000 -0.0000 -0.0000
vn -0.4877 -0.0000 0.8730
vn -0.3945 -0.0000 0.9189
vn -0.3893 -0.0000 0.9211
vn -0.0000 0.2721 0.9623
vn 0.0002 -0.2954 0.9554
vn 0.0001 -0.1187 0.9929
vn 0.0001 -0.1193 0.9929
vn 0.0002 -0.2947 0.9556
vn -0.3713 -0.0000 0.9285
vn -0.3770 -0.0000 0.9262
vn 0.3770 -0.0000 0.9262
vn 0.3718 -0.0000 0.9283
vn 0.0001 -0.4752 0.8799
vn -0.0000 0.4481 0.8940
vn -0.0000 0.1154 0.9933
vn -0.1134 -0.0000 0.9935
vn -0.1075 -0.0000 0.9942
vn -0.5449 -0.0000 0.8385
vn 0.5449 -0.0000 0.8385
vn -0.0000 -0.2721 0.9623
vn -0.0000 -0.3796 0.9251
vn -0.4697 -0.0000 0.8828
vn -0.3718 -0.0000 0.9283
vn -0.0001 0.2953 0.9554
vn -0.0002 0.4044 0.9146
vn -0.0001 0.2948 0.9556
vn 0.1075 -0.0000 0.9942
vn 0.1129 -0.0000 0.9936
vn 0.0012 -1.0000 -0.0000
vn 0.0019 -1.0000 -0.0000
vn -0.0000 0.3757 0.9268
vn -0.0000 0.1067 0.9943
vn 0.0007 -0.4003 0.9164
vn 0.0002 -0.1092 0.9940
vn 0.0002 -0.1100 0.9939
vn 0.0957 -0.0000 0.9954
vn 0.4652 -0.0000 0.8852
vn 0.1011 -0.0000 0.9949
vn -0.0004 0.3110 0.9504
vn -0.0006 0.4212 0.9070
vn -0.0004 0.3101 0.9507
vn 0.4877 -0.0000 0.8730
vn 0.3888 -0.0000 0.9213
vn 0.3945 -0.0000 0.9189
vn -0.1017 -0.0000 0.9948
vn -0.4652 -0.0000 0.8852
vn -0.0957 -0.0000 0.9954
vn -0.0000 -0.2869 0.9580
vn -0.0000 -0.3957 0.9184
vn 0.3713 -0.0000 0.9285
vn 0.4697 -0.0000 0.8828
vn -0.0000 -1.0000 -0.0000
vt 0.000000 0.000000
vt 0.960000 0.000000
vt 0.960000 1.000000
vt 0.900000 0.000000
vt 0.960000 0.000000
vt 0.000000 1.000000
vt 0.960000 1.000000
vt 0.900000 1.000000
vt 0.960000 1.000000
vt 0.960000 0.000000
vt 0.884618 0.981562
vt 0.884618 0.019943
vt 0.015383 0.019943
vt 0.015383 0.981425
vt 0.825745 0.910995
vt 0.825745 0.096269
vt 0.074255 0.910335
vt 0.107478 0.139342
vt 0.074255 0.096269
vt 0.867518 0.961066
vt 0.884618 0.981562
vt 0.867518 0.042112
vt 0.884618 0.019943
vt 0.032482 0.042112
vt 0.015383 0.019943
vt 0.032482 0.960777
vt 0.015383 0.981425
vt 0.107478 0.870217
vt 0.792522 0.139342
vt 0.792522 0.871172
vt 0.107478 0.139342
vt 0.792522 0.139342
vt 0.107478 0.870217
vt 0.148510 0.820670
vt 0.148510 0.192538
vt 0.751490 0.192538
vt 0.751490 0.821990
vt 0.792522 0.871172
vt 0.148510 0.820670
vt 0.148510 0.192538
vt 0.751490 0.192538
vt 0.751490 0.821990
vt 0.839532 0.927520
vt 0.853732 0.944540
vt 0.853704 0.060022
vt 0.839559 0.078359
vt 0.060431 0.078348
vt 0.046305 0.060033
vt 0.046307 0.944084
vt 0.060430 0.927029
vt 0.134444 0.174302
vt 0.120368 0.156053
vt 0.120372 0.854648
vt 0.134440 0.837661
vt 0.779643 0.156039
vt 0.765545 0.174316
vt 0.765515 0.838800
vt 0.779672 0.855770
vt 1.000000 0.000000
vt 1.000000 1.000000
vt 1.000000 0.000000
vt 1.000000 1.000000
vt 1.000000 1.000000
vt 1.000000 0.000000
s 1
usemtl painting_2
f 7/13/1 1/1/1 2/4/1 6/12/1
f 5/11/1 4/8/1 3/6/1 8/14/1
f 4/8/1 5/11/1 6/12/1 2/4/1
f 1/1/1 7/13/1 8/14/1 3/6/1
f 5/11/2 8/14/2 21/27/2 15/21/2
f 7/13/3 6/12/3 17/23/3 19/25/3
f 6/12/4 5/11/4 15/21/4 17/23/4
f 8/14/5 7/13/5 19/25/5 21/27/5
f 25/31/6 46/52/7 47/53/8 27/33/6
f 12/18/1 13/19/9 10/16/9 23/29/1
f 9/15/10 37/43/11 44/50/12 11/17/13
f 24/30/1 9/15/10 11/17/13 22/28/1
f 9/15/14 24/30/1 23/29/1 10/16/15
f 13/19/16 12/18/1 22/28/1 11/17/17
f 14/20/18 15/21/18 21/27/18 20/26/18
f 18/24/19 19/25/19 17/23/19 16/22/19
f 13/19/9 41/47/20 40/46/20 10/16/9
f 37/43/21 9/15/14 10/16/15 40/46/22
f 15/21/23 14/20/23 16/22/23 17/23/23
f 19/25/24 18/24/24 20/26/24 21/27/24
f 42/48/25 18/24/26 16/22/26 39/45/25
f 18/24/27 42/48/15 43/49/28 20/26/27
f 38/44/29 14/20/30 20/26/30 43/49/31
f 41/47/32 13/19/16 11/17/17 44/50/33
f 24/30/34 22/28/34 27/33/34 32/38/34
f 12/18/3 23/29/3 26/32/3 25/31/3
f 23/29/4 24/30/4 32/38/4 26/32/4
f 22/28/5 12/18/5 25/31/5 27/33/5
f 31/37/35 28/34/35 33/39/35 36/42/35
f 29/35/36 45/51/37 50/56/37 30/36/36
f 31/37/38 51/57/39 48/54/40 28/34/38
f 45/51/41 29/35/42 28/34/42 48/54/43
f 52/58/44 32/38/45 27/33/45 47/53/46
f 32/38/47 52/58/48 49/55/49 26/32/47
f 51/57/50 31/37/51 30/36/51 50/56/52
f 46/52/53 25/31/54 26/32/54 49/55/53
f 34/40/1 35/41/1 36/42/1 33/39/1
f 29/35/3 30/36/3 35/41/3 34/40/3
f 30/36/4 31/37/4 36/42/4 35/41/4
f 28/34/5 29/35/5 34/40/5 33/39/5
f 38/44/29 43/49/31 44/50/12 37/43/11
f 42/48/25 39/45/25 40/46/20 41/47/20
f 37/43/21 40/46/22 39/45/16 38/44/55
f 41/47/32 44/50/33 43/49/28 42/48/15
f 46/52/53 49/55/53 50/56/37 45/51/37
f 52/58/44 47/53/46 48/54/40 51/57/39
f 51/57/50 50/56/52 49/55/49 52/58/48
f 45/51/41 48/54/43 47/53/8 46/52/7
f 14/20/56 38/44/55 39/45/16 16/22/56
f 4/9/5 2/5/5 54/61/5 56/63/5
f 1/2/4 3/7/4 55/62/4 53/59/4
f 3/7/3 4/10/3 56/64/3 55/62/3
f 2/5/57 1/3/57 53/60/57 54/61/57
