# Blender 3.4.0
# www.blender.org
mtllib painting_6.mtl
o painting_6
v -0.344737 -0.400000 0.000000
v 0.344737 -0.400000 0.000000
v -0.344737 0.400000 -0.000000
v 0.344737 0.400000 -0.000000
v -0.238520 0.293783 -0.028000
v -0.238520 -0.293783 -0.028000
v 0.238520 -0.293783 -0.028000
v 0.238520 0.293783 -0.028000
v -0.253583 0.308847 -0.020000
v -0.253583 -0.308847 -0.020000
v 0.253583 -0.308847 -0.020000
v 0.253583 0.308847 -0.020000
v -0.245803 0.301066 -0.020000
v -0.245803 -0.301066 -0.020000
v 0.245803 -0.301066 -0.020000
v 0.245803 0.301066 -0.020000
v -0.344737 -0.400000 -0.030000
v 0.344737 -0.400000 -0.030000
v -0.344737 0.400000 -0.030000
v 0.344737 0.400000 -0.030000
vn -0.0000 -0.0000 1.0000
vn -0.0000 0.2143 0.9768
vn -0.2143 -0.0000 0.9768
vn -0.0000 -0.2143 0.9768
vn 0.7395 -0.0000 0.6732
vn -0.0000 0.7395 0.6732
vn -0.7395 -0.0000 0.6732
vn -0.0000 -0.7395 0.6732
vn 0.2143 -0.0000 0.9768
vn 1.0000 -0.0000 -0.0000
vn -1.0000 -0.0000 -0.0000
vn -0.0000 1.0000 -0.0000
vn -0.0000 -1.0000 -0.0000
vt 0.000000 0.000000
vt 0.954955 0.000000
vt 0.954955 0.986842
vt 0.892596 0.000000
vt 0.954955 0.000000
vt 0.954955 0.013158
vt 0.000000 1.000000
vt 0.954955 1.000000
vt 0.954955 0.986842
vt 0.892596 1.000000
vt 0.954955 1.000000
vt 0.954955 0.013158
vt 0.154055 0.867229
vt 0.154055 0.132771
vt 0.738541 0.132771
vt 0.738541 0.867229
vt 0.132207 0.886058
vt 0.132207 0.113942
vt 0.760388 0.113942
vt 0.760388 0.886058
vt 0.143491 0.876333
vt 0.143491 0.123667
vt 0.749104 0.123667
vt 0.749104 0.876333
vt 1.000000 0.000000
vt 1.000000 0.986842
vt 1.000000 0.000000
vt 1.000000 0.013158
vt 1.000000 1.000000
vt 1.000000 0.986842
vt 1.000000 1.000000
vt 1.000000 0.013158
s 1
usemtl painting_6
f 6/14/1 7/15/1 8/16/1 5/13/1
f 11/19/2 10/18/2 1/1/2 2/4/2
f 12/20/3 11/19/3 2/4/3 4/10/3
f 9/17/4 12/20/4 4/10/4 3/7/4
f 14/22/1 13/21/1 9/17/1 10/18/1
f 15/23/1 14/22/1 10/18/1 11/19/1
f 16/24/1 15/23/1 11/19/1 12/20/1
f 13/21/1 16/24/1 12/20/1 9/17/1
f 6/14/5 5/13/5 13/21/5 14/22/5
f 7/15/6 6/14/6 14/22/6 15/23/6
f 8/16/7 7/15/7 15/23/7 16/24/7
f 5/13/8 8/16/8 16/24/8 13/21/8
f 10/18/9 9/17/9 3/7/9 1/1/9
f 4/11/10 2/5/10 18/27/10 20/31/10
f 1/2/11 3/8/11 19/29/11 17/25/11
f 3/9/12 4/12/12 20/32/12 19/30/12
f 2/6/13 1/3/13 17/26/13 18/28/13
